/* XPM */
static char *result[] = {
/* columns rows colors chars-per-pixel */
"64 64 254 2 ",
"   c #1A5B01",
".  c #235C04",
"X  c #285807",
"o  c #146501",
"O  c #1B6402",
"+  c #156B02",
"@  c #1B6B03",
"#  c #196B08",
"$  c #0E7901",
"%  c #147303",
"&  c #1A7404",
"*  c #137C03",
"=  c #1B7D05",
"-  c #1B790A",
";  c #226305",
":  c #246C05",
">  c #226509",
",  c #236D0A",
"<  c #2B6809",
"1  c #227305",
"2  c #227B05",
"3  c #297805",
"4  c #24740A",
"5  c #2B730C",
"6  c #257B0B",
"7  c #2C7C0B",
"8  c #32790C",
"9  c #2E6D11",
"0  c #2C7B11",
"q  c #357813",
"w  c #437E22",
"e  c #0D8403",
"r  c #0C8B02",
"t  c #138403",
"y  c #1C8305",
"u  c #148B04",
"i  c #1C8B05",
"p  c #1C850A",
"a  c #158B0A",
"s  c #1B8D0B",
"d  c #0B9402",
"f  c #0D9C02",
"g  c #139504",
"h  c #1C9404",
"j  c #139C04",
"k  c #1B9C03",
"l  c #1C930B",
"z  c #16990A",
"x  c #1D9C0B",
"c  c #1D9712",
"v  c #228405",
"b  c #248C05",
"n  c #2B8906",
"m  c #23830B",
"M  c #2B830C",
"N  c #248B0B",
"B  c #2C8C0B",
"V  c #32830D",
"C  c #39870C",
"Z  c #338D0C",
"A  c #229506",
"S  c #239B05",
"D  c #2B9A05",
"F  c #23940C",
"G  c #2B930B",
"H  c #259C0B",
"J  c #2B9B0C",
"K  c #33940D",
"L  c #339D0C",
"P  c #39990B",
"I  c #278811",
"U  c #2B8A12",
"Y  c #398516",
"T  c #338C13",
"R  c #3C8D15",
"E  c #2C9413",
"W  c #279814",
"Q  c #2C9D13",
"!  c #339413",
"~  c #3C9414",
"^  c #339C13",
"/  c #3B9D14",
"(  c #36971B",
")  c #3D9D1A",
"_  c #0EA203",
"`  c #14A305",
"'  c #1BA405",
"]  c #14AA04",
"[  c #1CAA05",
"{  c #15A20A",
"}  c #1CA30A",
"|  c #1DA909",
" . c #1EB107",
".. c #1FA511",
"X. c #24A405",
"o. c #2BA406",
"O. c #24AA05",
"+. c #2CAC06",
"@. c #24A40B",
"#. c #2CA40B",
"$. c #24AB0B",
"%. c #2CAC0B",
"&. c #33A40D",
"*. c #37A808",
"=. c #33AC0C",
"-. c #3BAC0C",
";. c #25B30C",
":. c #2BB308",
">. c #2CB30B",
",. c #37B406",
"<. c #34B30C",
"1. c #3BB40D",
"2. c #34BA0D",
"3. c #3CBB0C",
"4. c #24A412",
"5. c #2CA312",
"6. c #2CAB13",
"7. c #28AA16",
"8. c #34A313",
"9. c #3CA413",
"0. c #34AC13",
"q. c #3CAC14",
"w. c #33A31C",
"e. c #3BA41A",
"r. c #34AA1B",
"t. c #3CAA1A",
"y. c #24B610",
"u. c #2CB413",
"i. c #34B313",
"p. c #3BB413",
"a. c #34B913",
"s. c #3CBB12",
"d. c #34B41A",
"f. c #3CB41B",
"g. c #34BA1A",
"h. c #3CBC1B",
"j. c #3E8820",
"k. c #3A9A22",
"l. c #3CA924",
"z. c #3BB622",
"x. c #42980E",
"c. c #448B17",
"v. c #449B14",
"b. c #469518",
"n. c #439B1B",
"m. c #50941D",
"M. c #42A90D",
"N. c #41B30E",
"B. c #43BB0D",
"V. c #4ABA0E",
"C. c #43A414",
"Z. c #42AC14",
"A. c #4BA817",
"S. c #44A41B",
"D. c #44AC1C",
"F. c #4CAC1D",
"G. c #51AA19",
"H. c #42B413",
"J. c #4BB415",
"K. c #43BC13",
"L. c #4BBC14",
"P. c #44B41B",
"I. c #4BB31B",
"U. c #44BB1B",
"Y. c #4BBC1B",
"T. c #52BC15",
"R. c #53B41B",
"E. c #56B618",
"W. c #53BC1B",
"Q. c #5BBC1D",
"!. c #62BC1C",
"~. c #499925",
"^. c #4E9328",
"/. c #579A36",
"(. c #609F3E",
"). c #43AD22",
"_. c #4AA826",
"`. c #53AC23",
"'. c #56A827",
"]. c #45B322",
"[. c #4CB322",
"{. c #44BC22",
"}. c #4CBB22",
"|. c #4AB62A",
" X c #53B324",
".X c #54BC24",
"XX c #5BBC25",
"oX c #57B62A",
"OX c #5CBC2A",
"+X c #4DAA31",
"@X c #58A835",
"#X c #4DB733",
"$X c #57BA38",
"%X c #64BB29",
"&X c #66BB36",
"*X c #3BC10D",
"=X c #3DC214",
"-X c #3FC21A",
";X c #48C20E",
":X c #53C20E",
">X c #44C114",
",X c #4CC315",
"<X c #44C21B",
"1X c #4CC31B",
"2X c #4DCA18",
"3X c #53C315",
"4X c #5BC315",
"5X c #54C914",
"6X c #5BCB16",
"7X c #53C41B",
"8X c #5BC51B",
"9X c #54CA1B",
"0X c #5CCC1B",
"qX c #5BD21B",
"wX c #62C51B",
"eX c #66CB19",
"rX c #63CC1C",
"tX c #64D31C",
"yX c #6BD21B",
"uX c #73D51E",
"iX c #44C322",
"pX c #4CC422",
"aX c #4BC828",
"sX c #53C323",
"dX c #5BC324",
"fX c #54CB23",
"gX c #5CCB24",
"hX c #58C62B",
"jX c #57CE2B",
"kX c #5AC435",
"lX c #63C423",
"zX c #64CD23",
"xX c #6BCD24",
"cX c #69C72A",
"vX c #63CB2B",
"bX c #64D323",
"nX c #6AD629",
"mX c #76D726",
"MX c #74D32C",
"NX c #68C935",
"BX c #74CD31",
"VX c #69D532",
"CX c #75D637",
"ZX c #7DE22E",
"AX c #61A840",
"SX c #6BAD4A",
"DX c #68B848",
"FX c #6AC544",
"GX c #77CB47",
"HX c #73CF4B",
"JX c #7AE552",
"KX c #80DA3E",
"LX c #83D54B",
"PX c #82D359",
/* pixels */
"q.U.B w.@.} fXB.H C.3X9XH 0.' } %.O.=.J.L.<XqX7XY : b zX-.t.6 uXP CXnX8XL.y.Y.! i.<.w.NX7X7X<.o 7 l $.1XD.2.` @.i.1.Y.,X5X,Xp.X.",
"oXA.7X3.s.=.%.` j cXv.=.v R.) B.H O k A eXb C.! 6 X < <Xh Q 6 MXGXxX=.oXvXAX&XW.W ` ^ ~.&X7Xk f.i.+.3Xp.m.a...$ , i.1.O.X.d + r.",
"Y.s.nXL.tX0XZ.W.I y   P.$XF fX1XmXhX* G ,X_.X c.}.v.S gXs.<.VXNX  . |.GXPXHXFXBXU 6.O %.NXhXk p.,.>X1XO.8X1Xe.f 9.T.*.O.f d , ~ ",
"2.N F..XN.,X,.[ f.%.U.nXb '.eX*.: >X<X<.x 1 C.) N.j a.=.y.g gX@XT F w.HXLXFXDX$X$ l M i.&X}.iX+.0XL.6XeXa.p.|.u.R #.bXK.u.z n.U ",
"9.1XL.<.9XO.F >.f @.S.1.qXC.gXL.MX,XK.>.U.C . G.XX.X%X7 ` P.Y.DX).O ~.@XPXSXHX$Xx _.^.@X@X2.1X3.rX0X3X:.:.<XfX1.L %.=.>Xu.H # R ",
"L U c.H.8.F ! o.T & 5.;.p.1.B.K.T.0X@.a.k D.O ~.c.MXI.B z XX8.$Xk.cXp.GX$XSXGX#Xz.SXHX@X/ N.H p.t.y m dX{ j v F.+ J A 1X&.q > e.",
"6 . X `.L H +XL O O ( 0.]._.Y.6.6 u l x.3.0.%.!.J.t.' d T Q Y.NX.X3XgX& 9 &Xb.^.$X@X@X< n 2. XdXL 7 NX3X2.S.<.<.Y.Z. XL.  ~ B 0.",
"8X1.&.t p h.Y.dXY.m t 6.`.  L.XX#./ X _.v.'.@ lX6Xp.}.vXeXB.3.JXP.i.$.j   CXFXDXHX$Xp.E '.1.t > W.h.L.bXs.4.U.ZX,.] 6./ &Xh.7.s.",
"~ A.1 R.b .X<.:X: ! @., <.9.0.+.z.6.; m.%XkX> ~ #.<X] l.[.M H J $X9 = vXt 7 (.SXaX* l.7.! K.h 6 e.$.&.8XN.U.` 9XL./ 1 x y ` rXs.",
"[.i.h.f E q z n.J | F , -.N I.%.S J u x.2 F 8 V y <.2X8.) 8X=.h =.|.E w.a.t.FX|.5.U.q.$.`.k [ $.s.<X:.8XA C.a.W.=XrXK.8.1XbXB.a.",
"P.O.<XgX0.P.H Q J z N X 3.<XwX+.fX3X1XE.D.OXw 8 %.hX-.~ Y.3X1XL.>.j +X( l.GX&XC.v.! b 6 S.<X&.1.T.>X=.1XS N.J B @.a.3X/ n.M.E.1X",
"W.J mX7XJ Q G Z e.I.h V 3.&.cX1.8X<X} S @.CX@XS.!  XO = J sXV 7Xs.U.3.kX$X#Xi   O 1._.q c.l.3 p.E.dX* L.,X~ , s sX1.9.p.i = N x.",
"W.K.3.bXK.&.1.W.X b.r.3X~ l.lX3XB.gX2X%.h u ( [.: / X t oXR.xXL.uXyX,XN.rXj tXn lXr 7 F 1.4 n [ ( `./.8.{.G.U v.8XL.2.r.' & &XH.",
"'.X.U.H p I J N.h @.4.U.v m -.3X1.bXK.$.@.=.%X1 E.xXc.< R cXrXrX2.=.O.@.Z.eXV.s.' ' u 8XwX8X1 3.R.p.% C & l 9.~ y y d.* D.1.| B.",
"I.X.X.sX7XZ.9.N = a.L.B J / =.,X<.+.s.| % q.`.S./ zX,Xm wXR v.4XpX& ! Y.= %X5XJ &.U.P.p.8.b S.x eXU.7.=.&.G K.G f.@ p & cX3.O.q.",
"Y H.hX& cXP y V.i K.7XG jX~ b K a.=X:.g L W y H.6 ! N.@ 9 7XMXK.X.1XH.yXV.Z.1Xq.^ r #.V.bX5XB.hXxXi t.[ O R T $.N.8.M F.nX6Xe.F.",
"; '.J.l 7XB.;.r -.] t.oXX.D.A z.g.<.;.7.i @ x ! p.l y %.E 6.<XW.+.P.K.[ E g.M U.1Xw.O.<.8XrX:X3.{.u.+.` p j./ {.K.o.B.B 5 tXvXH.",
"=   8.U.MXI.0.o ).`.& 3 iXY.P.J { _ g.$ 7X{.t l t 0.S h $ o.aXn.PXs G J.:.mXN o.y 6.O.t.<.4XV.<.1Xy.@.s.f.Z q J.*.s.s.h 7 eXB.2X",
").P.Y.Q p.=.6.J.1XI.0 s.%.J n.~.1.P.R.yXK.>.H }.t.}.;XA Z T.@...{.B.@ & z * m.#.l.` q : J.Y.6XiX} { dX=..X! %X8X5X$.f.zXx.E.B.[ ",
"L oX  :.[ f Q M @.G OXP.<.R c.E.<.B.<.<.{.N % G MXQ.1.e.F.M #.z.J gXl { #.b.U.m i.k J.K F.q.<.s.] k 8 Y.E.Q.9.J.6X*.a.7 O I s.+.",
"t.J.$X<X=XO.k dX%.t 9.;.=.3   S.1XI.rX#.m ).oXU.H.7X=.F R B.G ,.I vX<.g.T./ eX3.B.7 eXyXI.<XX.! 4.l Y ,./ _.5X5.B.K.p.8.U.t.-.#.",
"m _.>XhXXXM @.e.1Xp.@.g.G.) @.^ l + N r.4.- 0.oXrXMXB.O.oXfXG.;XcXsXB.Z.'.mX6X,XVX*.bXB.,Xf.F.5 m F Y.+ 3.BXp.2.%.a.@.o.& %X#.i.",
"<XV./ F.k.$ 8.W u.U.: =.. ! xXR.H N.N e.. NX9.'.7X,X;XO.} ' VX1.b.! x.6XB.+.k $.q.MX5Xa.iXk k fXB ~ T.  .Xs.P.&.P.=.hX  [.6 G k ",
"O.Y.= oXY.].6.d.$.Y.xX4XD.1.l D.sXy dXv.. eX8XN.5XU.V.u.iXa.} } _.U I.,X@.rXfXs.| x 7X$.1X{ l tXR -.3.J * 1XX.~ 9.i.0.n.&X<Xk XX",
"w.H l..XD.gXfXk r oX3XC.@.%.1 N h l {.M E.!.D.=.yXL.5XX.k p.>X..m % ` 2Xg 8.9.s.A s.f.! Z F O '.rXB H.U . f.#.f.F f.t T.K.j r E ",
"E.L.1.P ,.<.$.VX) y 1.! ] }.5.g.4.'..XL.E.C.!.zX:X*.K.1.+X5.7X,X2.` @.<Xu Z.L.0XN.vXn c.|.%.& ) U.oXW.  '.7XO.0.z }.^ h i. .J 1.",
"sX=.B.eXK.s.$.=.fXH.).L ,X4XjX@.v < K.N X < oXMXQ.q.' 9Xf.E s.,X<.<X<X;Xd.@.7Xq.X.H fX,.r.) 1 J.G B F.@XoXrXN.. n.1.+X}.6X3.m }.",
"* { mX4XtXL.e r.O aXa.V.*.[.*.. xXeX,XJ I lXS.K A K.t ' F e.%.* U.D.jX4.7X;XyX3X9X| 1Xv BXK.G F F r.| ] i J T.rXbX$   &Xm sX~ a.",
"8.v &.W.3X5.5 ' O 0 ).Z. Xs.V Y gXD oX$.{ e.&.3.F N & H.'.~ 2.Y.K.+.=.p.7X;X<.i.%.P +.3.D.}.q.Q Q [ K + XX%.oXZ wXfX%.iX|.J aXP.",
"'.k.m.xX,X' I.A > M |.#XM L.2 M A.X.XXh oX<XL.%.<Xa.d f.R lXw.<.h.a.6.V.x Q.% M A H.9XN.L Y kXH.B.z 1 z.a 2.8.G.7X3X2.1.' w.5.D.",
"U.p KXP :X<.-X' Z t.9   kXgXK.F ~ a.s 1 . K.Y.+.s.&.( u.1 J | G J P.a.D + wX.X( Y yX1X+ 4 t sX0.0X$.L :X,XP.1.A.N.K.9XMXzXu l.U.",
"&.r j Y.1.N y f 7.f.^ f.{.FXVX,XJ ] g t.`.&.,Xi.<.[ f ` 7.i ].O.3X=.z ' d =.v & W.mX,XO : 4.} :.yXlXdXO.1XK.$.U.nXmXc.# {.q.p.d.",
"m | *./ P.p.k a 8.|.&..XgX3.VX].].+.z C A..Xw.1 U M.<X* c %X,X3X,XB.:.%.iXmX1.8.8.,X2Xv gX*X>.*XL.Y.L.-X{.`.q.6.z + ~._.).@.$.).",
"9.U.,.S | | x q gXS.h.H.,XU.>.z.{.s.^ R S.Y.r.zX<X,X2X=.s.`.N B p.#Xf.jXq.5X0X^ A.pXf <.,XB.0Xi 8.B 8X .z dX9.5.s 4 4 M p h 0X7X",
"L n.a.o.=X@.T J.<.x U  XZ ~.m.=.).,XS.A W.= bXzX1X-.ZX9Xe.q 5 / 1., F {.%.K.,X%.-Xt n.7Xs.J.tXB.K Y i.|.@.l ! 0Xf.: lXxX9.1X9.T.",
"t L.pXs.L.pXfX=.W g & XXS.. 1XW 5 HX<.a.t.8 1Xu gXF.4XqX1X4 p.g 2 h Q G .X<.,.S.gX5.u 1Xs.T.V.K.;Xf 0.J : | o L g h.;.<.,.*.p b.",
"gXx.F.aXnXW.$ CX7X[.@ q.V.@XB @.=.g P.9XtXp.0.H yXB.: 6Xo.>X3.mX6Xj t c.dXI.vX}.5Xv yX<XO.B.O.K.a.;.tX4.X e.t 4Xc.. F g g H 4.w.",
"K.=.$ '.I.2.| ,.h &.m  X1X|.XX8 .X> > hX8XfXO.o.uXe.5 dXr.e.J D.y.* U .XQ ( H {.:.O.@.-Xs.@.O.oX#.U.Z 0.vX$.;.H ).9 5.E Z.R VXzX",
"( P.{.sXZ.S [ :.$.a.0./ % f N 5 r.. - I.].#.n.{.&.0.p i s.%.pX%.1.J - K 8.+ h h f.S * ,X0.<X>Xi.H.bX7X+.K.=.0.<.sX1X<.%.7.U W.P ",
"a.p.].[.3XO.{ aX<.v s.Y.V.l 5.5.& t.8Xh.8.kX9.: C.<.>XT.q.f.;.$.%.x w.Y   h 8.n.3Xz.s 5X1XY.N.+.5X*.lX=.p.a.f.3.J.p.H.#.M W G 6 ",
"I.J.Z.7 #.:.$.#.B.j i S.s # Y.` 0.$ ,XH.t.O _.s q.K.mXeX|.q.3.o.hX^ r F -.8XB.=.=.jX7 3X2X=X,X2X,X@.p.j kX9.& 5.F _.x p F.H F   ",
"D.gX:XK.l.N.$ gXA O.g P.` z.' x 1.Y.1XZ.M U.& +XdXT.0XNX+XdXJ 7 . U.t.& rXy `.8XN.tX9.L.8XB.5XK ,.Y.aXP.lXK.q.} s.%.N oX8XG >.+ ",
"H.9X+ s.G U.j H.M.r.aX=.+ $Xv 3.=.%.3 [.~ t fXx iX1Xk lX[.x.rXp.O.s.( V 6X2.fXZ.6XL <.8 cX,.k D.%.} ^ H mXtXD., < oX& hXrXv D.. ",
"U.i.W dXs.K.q.i._.s.s.g.6.k 9.XX3X2.m ^ 6XVX$.u / hXw.O T C.;X+.OX0.0.K.V O Q.M.P.Y.r.= cX%.& 7 ;.d.H.S < G.H.< '.C.k 6.9X;X+.M.",
">X<.W y 7X$.A l c.E.o.m 0.<.mXeX1X3.t p.&.4Xn /.E.0X2 n U J <.j O F.s.#.6.& XXK.1XL.*.( : H 8 @.7.l |.k @ G =.<.e.H.1 H.%.e p.0.",
"K.xXy e.=.P.NXo K 3Xp.q.O ~ #.8.6X*X$.-Xv.5 `.m.J.L.h y H.% m #.% C.L.K.1.%.B K.B.8XS 4.M N OXZ.%.! A.6.e h.#.<.= d.l.2.` %.1Xu ",
"9X8X3.lXa.g -.zXtXC l.  X ~ 1.S.jXv sXbX8 8 eX6 #.' d e &.2 C :X] ].8.7XL.; Y.9.;.zX.XI m ( <XgXi + 7 ] U.].=.P.( &.<.<.J.$.7Xc.",
"1X` ,.#   9.~.>.Y.,X1.<XA W.1 X.6.| +XA n.8 3.>.* m y.l l ; Z 9X[ : ; B 6X<Xl . g fXOXD.E 9X< P 6 U.>.aXaXE.Z -.1X2.L U / ^.C XX",
"<.` O.y + p 5 4Xb <.N.y b E.rXJ.U.h * XXP.G %.u z.dXx h s.lX%.pX+   CXrXi._ ' l t +Xr.NX].#.9.7X<.u <.rXbXtXT bX5Xa...5.P.-.%.r.",
";.H f i m @.9.6X} %. XI.MXx.Z Z 1.a.x 4 4 s.l + ! P $.a.p.I.8.B & b.Q.-.2.<X;.z _.).GX|.#.$.` | s.F M e.6.8.vX.X7X&.U 0 : g 8X/ ",
"I.A fXfXD.v 8 ;.6.S zXZ V b.&.Y.,X;.} Y.xX* _..X[.<.r ' S g Z.@XT ! V.wX,.0.iXkXkX+Xr.DXt.S.%.X.0.) 6 @.i 4 U.& a.+.v.: `.N H xX",
"Q K K.! 1Xp.D.zXVX:.`.O 7 lXzX0XF p {.<.A gX-.0.& Z.Y.:.:.p pX= vXzX_.V *.  GX'.oX/.`.) ! . LXM.o q V | 2 cX! [ f.%.R.4 G DX7X,X",
"i #.E rXfXO.* < i 1 N T eXVX= c.k OX@ E i 0X@.w.! + lX7XZ H.0.i.W '., 5 Z.c.@X+X(.%X$X%.7.6 ) 4XJ.J D.<X> ( @ 6.V.<.y ]._.n.>XB.",
"w.N &.a.$.x i +Xi cXXX0XF.nX%.V %.c.U aX0.qX% 6 H O rX|.m.`.e.gXXX1.P # ^._.$X$X@XFXm B.q./ 1 0.! / v *.9.t q 9.-.U.F { 9.rXK.3.",
"5.I.J A.p.H.@.M r.7 ~ K nX^ %.' X./ v.rXp.G ; B -.R xX3 v.G.1X8.6 A %X^.'.I.z.kXCX<Xy K.B Y.L.T M b = pX+.1 c.N t.>.K.$.Q 8XH.A.",
"f.E.1.7XB.K.} q &  X=.5.#.cXR.H X.T. X2X=.8 vX+.G   X OXV `.B.2.,X5.[.LX&XP.Q NXq.=.m 5Xv.B.,XwXT.K.&.<.& Y.S.D dXM.H i   O D.q ",
"L V Q.O.:.' F X & O dX1.k 2 Y rXu.] [ G N cX2X-.I C i e .X6 MXn W..X].|.kXK.~.xX@.0 W } Z.Y.$X+.s B D.p.q %.fX,X|.@ Z.p.o   R.Z.",
"+ O eX>.= l p n.( ~ ,XN n mX8XY.:.:.B $.$.7XB.[.H.V.rX8 *.1.#.h FX/.w.(.< kXsX%.W m >.i.A.=.& O.j Z.'.H.sXH.T g + Y 5X&.v Q dXQ.",
"T < Q.a % q Z.Y.&.W.K.,.~ m.3X/ %XF.8.u.p.D O.gX%.i.& #.J.xXJ.^ s k.$Xk.GXaXX.| J ~ *.< 5 | 9.F Q &.&.Y J.=X:._ o Q.B.9X%.h r K.",
"S.0 9.@.= 5 xXT.H.' ;.` ` & H.C.J H.6 P .XE.8.>.7.A a 3.U.U cXw.w.r.].#X_.h S h r.: 6 ^ J <.9Xl.R.R.O.^ >Xi F.H MXV f.W.1.$.a.7X",
"hX# K.9X=.1XsXN 8Xa.#.2.@.P.0.U S.G ; x.D tX<.i.' j y T.1.) dX$.j U s 7 [ u j p.=.3.1.K.<.u.<.u e.NX& h.L.2 L :.g W.=Xf.K.:.s ) ",
"bX<Xd ;.2.$.pX;X .j I..X.XC.g } + W OXXX3.<.%.K.H b ( VXdXL.PXGX%.Z 5 H.=X:.z.:.T %.2X4 F.pX;.d G N X.5XbX4XZ.>./ { g.X.H.Y.& > ",
"bXN.<X1XK.#.J s.U.@.U.h NXa.f e * { @ 5 >.= -.^ & ^ W.8.sX7Xl.&X X).&.& bX2XL.8X7X7X~ %.Y.K.4.i 2 b } K %X,Xp.8.  sXH.H.B.<XH h ",
"1XqX;XyXV M 4.g >.$.,XY.q.3X=Xs.O.g X.S.@.zX5X9.C.H bXq.Y.5.W NX5.q.P.*.g K.! 0X0XU.yXbX1Xp.0.sXi.a.s.U A.U.E ' J.s.i.1X#.@.z H "
};
