/* XPM */
static char *result[] = {
/* columns rows colors chars-per-pixel */
"64 64 78 1 ",
"  c #725D0E",
". c #635313",
"X c #776A0C",
"o c #7D690F",
"O c #85770D",
"+ c #806810",
"@ c #8B7712",
"# c #8A741A",
"$ c #9C7E14",
"% c #9A8513",
"& c #9D811F",
"* c #A18F0F",
"= c #AA9316",
"- c #AF9B10",
"; c #B39D14",
": c #BDA711",
"> c #BAA018",
", c #AA8C21",
"< c #B19520",
"1 c #B79624",
"2 c #BEA022",
"3 c #C6AB1A",
"4 c #C5AE19",
"5 c #CBB312",
"6 c #D2BA17",
"7 c #D9BF13",
"8 c #C4A026",
"9 c #CBAB24",
"0 c #D1AA29",
"q c #D8B626",
"w c #DCBF24",
"e c #D7B132",
"r c #DBBB32",
"t c #E3C80D",
"y c #E1D50A",
"u c #E7CB14",
"i c #E0C41E",
"p c #E9CE1E",
"a c #ECD11E",
"s c #F2D81C",
"d c #FDF905",
"f c #F4E511",
"g c #FFE111",
"h c #E2C220",
"j c #E5C921",
"k c #E4C62E",
"l c #EDD32D",
"z c #EDD42C",
"x c #F9DD21",
"c c #E6CA3C",
"v c #EBD537",
"b c #EED73A",
"n c #EED63B",
"m c #FFE320",
"M c #DFC34C",
"N c #EBD24B",
"B c #EFDA48",
"V c #ECD952",
"C c #EAD95D",
"Z c #D8C77A",
"A c #EDDD60",
"S c #EFE06E",
"D c #F1E064",
"F c #F2E372",
"G c #F2E273",
"H c #FFF473",
"J c #E7D380",
"K c #F3E680",
"L c #F0E287",
"P c #F4E98E",
"I c #F4E88F",
"U c #F2E595",
"Y c #F0E59B",
"T c #F5EC9C",
"R c #D6CFB8",
"E c #F4E8A3",
"W c #F0E7AB",
"Q c #F6EFAA",
/* pixels */
"aaaqaaaaaaaaaaaaaaaaaaaaaaaaaaa000q000aaaSaaaaaaq00aaaaaaajoaaaa",
"aaaaaaaaaaaaaaaaiaaaaaaaaaaaai;0000000aaLaaaaaaaq00aaaaaaa  aaa=",
"aaaaaaaaaaaaa4aaao6aaaaaaaaau000q000LVaLaaaaaaasp0jaaaaaaa oaaa ",
"aaaaaaaaaaaaa 4aaxoaaaaaaaaaa70000q0aaYaaaaaaxmmmmxaaaaaaa  aa> ",
"aaaaaaaaaaaaa4@mmmf@aaaaaaaaa75ap0qwaLLaaaaaammmmmmaaaaaaao dd %",
"aaaaaaaaaaiaaa%smmm aaaaaaaaaaX5:qq0LSaSaaaaammmmmmaaaaaaa= o  p",
"aaaaaaaaaaoaax> fmfoaaaaaaaaaaa*aqqq0paaSaaaammmmmmaaaaaaaap  wa",
"aaaaaaaaaaommm>%odd iaaaaaaaa::aa00q0waaaLaaasmmmxsaaaaaaaaaaaa0",
"aaaaaaaaaa mmd@j=   aaaaaaaaaa5000qqaaaaaaLaaaaaaaaaaaaaaaaaaaa0",
"aaaaaaaaaa dfy aa@  aaaaaaaaaa700qqaaaaaaaaSaaaaaaaaaaaaaaaaaaaq",
"aaaaaaaaaao % 4aaaaaaaaaaaaaaua10qqaaaaaaaaaSaaaaaaaaaaaaaaaaaaa",
"aaaaaaaaaaa>%aaaaaaaaaaaaaaaauC78q0aaaaaaaaaaSaaaaaaaaaqqaaaaaaa",
"0aaaaaaaaaaaaaaaaaaaaaaaasxsaLa&1q00qaaaaaaaaaLaaaaaaaj00aaaaaaa",
"0aaaaaaaaaaaaaaaaaaaaaaammmmLaa,2000aaqaaaaaaaaLaaaaaa00qaaaaaaa",
"0aaaaaaaaaaaaaaaaaaaaaaammmmHau,9000aaqaaaaaaaaaSaaaaa00qaaaaaaa",
"waaaaaaaaaaaaaaaaaaaaaasmmLHmau02q0q0qqaaaaaaaaaaSaaap00aaaaaaaa",
"aaaaaaaaaaaaaaaaaaaaaaaamLmmmaa020qqqqaaaaaaaaaaaaLaa000aaaaaaaa",
"aaaaaaaaaaaaaaaaaaaaaaaaLmmmsaa800q0q0qaaaaaaaaaaaaLa00waaaaaaaa",
"aaaaaaaaaaaaaaaaaaaaaaaaSxxxaau800q0qqqaiiaaaaaaaaaaS00paaaaaaaa",
"aaaaaaaaaaaaaaaaaj4%%>ZSaaaaaa5aq9qqqqq0000aaaaaaaaaaZpaaaaaaaaa",
"Laa>>>aaaaaaaaa> 4i6@Laaaaaaaa59q9q0q0000  aaaaaaaaaaaSaaaaaaaxa",
"aLa>>>aaaaaaao 6i= 6Laaaaaaaaa7<<q0000  >haaaaaaaaaaaaaLaaaaammm",
"aaLjwaaaaaa6 pp6 6aLaaaaaaaaaaa55qq0  >kbaaaaaaaaaaaaaaaLaaaammm",
"aaaSaaaaaaao6iwo@aaSaaaaaaaaaaaO2q80 >cTaaaaaaaaaaaaaaaaaSaaaxms",
"aaaaSaaaaai6>= 4aLSaaaaaaaaaau7u.q1 zFaaaaaaaaaaaaaaaaaaaaSaaaaa",
"aaaaaSaaaaa o@javaaaaaaaaaaaaaau<q  zDaaaaaaaaaaaaaaaaaaaaaSaaaa",
"aaaaaaaaaaaaaaaaaaaaaaaaaaaaqq9a<80 $baaaaaaaaaaaaaaaaaaaaaaaaaa",
"aaaaaaaaaaaaaaaaaaaaaaaaaaaaaq20210  aBaaaaaaaaaaaaaaaaaaaaaaaaa",
"aaaaaaaaaaaaaaaaaaaaaaaaaaaaaa7a1029   Dzaaaaaaaaaaaaaaaaaaaapaa",
"aaaaaaaaaaaaaaaaaaao  %4aaaaaa7990a1>>  +Kbaaaaaaaaaaaaaaaaaw00q",
"aaaaaaaaaaaaaaaaaa@ 46@  iaaaau:70q00000>  Baaaaaaaaaaaaaaaaaw00",
"0waaaaaaaaaaaaaaaa@ dmmmxo6aaaa5-q0000000>  zaaaaaaaaaaaaaaaaaap",
"00waaaaaaaaaaaaaaa> dmmmxs%aaaa5<q00000000> aaaaaaaaaaaaaaaaaaaa",
"p000aaaaaaaaaaaaaaa 6mmxaaaaaaaq9qq00q00000>>aaaaaaaaaaaaaaaaaaa",
"aaawaaaaaaaaaaaaaaaa @mxaaaa4aa49aqqq0q00000aaaaaaaaaaaaaaaaaaaa",
"aaaaaaaaaaaaaaaaaaaaa=  wa4 aaa 4smqq000a00abaaaaaaaaaaaaaaaaaaa",
"aaaaaSaaaaaaaaaavaaaaaaaaa @aaa  m2m wa00abzaaaaaaaaaaaaaaaSqaaa",
"aaaaLSaaaaaaaaaaaSaaaaaaaa yaax %6mf >aaezzajjaaaaaaaaaaaaLS0paa",
"aaaLaaaaaaaq0aaaaaLaaaaaao4mmm ja fd @aaDaaa000aaaaaaaaaaLaa0waa",
"aaLaaaaaaaaa00aaaaaLaaaaa fdf oaaa   =baaaaaa000aaaaaaaaLaaa00aa",
"aLaaaaaaaaaaq00aaaaaLaaaa    @aaaaa44qbaaaaaaaw0qaaaaaaLaaaa00aa",
"aSaaaaaaaaaap00aaaaaaSaaa    aaaaaaaaqbaaaaaaap00aaaaaLSaaaaiqaa",
"Saaaaaaaaaaaa00jaaaaaaSaaaaaaaaaaaaaqazaaaaaaaaw0iaaaLaaaaaaaaaa",
"aaaaaaaaaaaaaw0qaaaaaaaLaaaaaaauaaqaazaaaaaaaaaa00jaLaaaaaaaaaaa",
"aaaaaaaaaaaaaa00aaaaaaaaLaaaaauaaaqqaPTaaaaaaaaaq00Lasssaaaaaaaa",
"aaaaaaaaaaaaaaj0aaaaaaaaaLaaaa7aa<qq0qJaaaaaaaaaa0Zaaasaaaaaaaaa",
"aaaaaaaaaaaaaaawaaaaaaaaaaSaaaua7qq00qaaaaaaaaaaaZZaaaaaaaaaaaaa",
"aaaaaaaaaaaaaaaaaaaaaaaaaaaLaa7900q000qnaaaaaaaaLiqaaaaaaaaaaaaa",
"aaaaaaaaaaaaaaaaaaaaaaaaaaaaLuq8800000lGaaaaaaaLaaaaaaaaaaaaaaaa",
"aaaapjaaaaaaaaaaaaaaaaaaaaaaqLqu-aqq00BbaaaaaaLaaaaaaaaaaaaaaaaa",
"aaaj00aaaaaaaaaaaaaaaaaaaaaaauq777q00aIzaaaaaLSaaaaaaaaaaaaaaaaa",
"aap000aaaaaaaaaaaaaaaaaaaaaaaaaAa70q00#QaaaaLaaaaaaaaaaaaaaaaaaa",
"aa00paaaaaaaaaaaaaaaaaaaaaaaaaauLaaq000zN3%Laaaaaaaaaaaaaaaaaaaa",
"aa0qaaaaaaaaaaaaaaaaaaaaaaaaaaa7uLq0q00zibLioiaaaaaaaaaaaaaaaaaa",
"aw0aaaaaaaaaa>iaapaaaaaaaaaaaaauuaq0qeBa6R>aa4 %aaaaaaaaaaaaaaaa",
"aw0aaaaaaaaaa>aaa>aaaaaaaaaaaaaa7a000rDaES 6aai @aaaaaaaaaaaaaaa",
"aq0aaaaaaaaa saaa>aaaaaaaaaaaaaa7aq00MzUaaa@%ii%oaaaaaaaaaaaaaaa",
"aaaaaaaaaaa>6mmm aaaaaaaaaaaaaaauq000rUaaaaa6 %w6 @aaaaaaaaaaaaa",
"aaaaaaaaaaa mmm6@aaaaaaaaaaaaaaaus000rzaaaaaaa4 4py aaaaaaaa0aaa",
"aaaaaaaaaaa fmmo6aaaaaaapaaaaaaatm000qbaaaaaaaa@o4j aaaaaaaa0paa",
"aaaaaaaaaaa dd=oaaaaaaap0aaaaaammg0000Daaaaaaaaa4  oaaaaaaaa00aa",
"aaaaaaaaaaa   oaaaaaaai00aaaaaammg0000baaaaaaaaaap4aaaaaaaaa00aa",
"aaaaaaaaaaa%%aaaaaaaaa00qaaaaaammm00q0abaaaaaaaaaaj0aaaaaaaaq0wa",
"aaaaaaaaaaaaaaaaaaaaaj00aaaaaaaammg0qaWBaaaaaaaaai00aaaaaaaap0qa"
};
