/* XPM */
static char *_d827b75cc8e47bdcde888adaa4fbe4dsPKqlvbgWdQI3jj5[] = {
/* columns rows colors chars-per-pixel */
"64 64 190 2 ",
"   c #2F391F",
".  c #333A1B",
"X  c #3A3E1D",
"o  c #2F3C24",
"O  c #343524",
"+  c #383725",
"@  c #343C25",
"#  c #3B3E24",
"$  c #37312E",
"%  c #363C2A",
"&  c #3B3D2A",
"*  c #3C3D30",
"=  c #423E2A",
"-  c #3A451E",
";  c #364324",
":  c #3B4425",
">  c #3D4C25",
",  c #34442A",
"<  c #3C442B",
"1  c #374C2B",
"2  c #3D4B2B",
"3  c #3E5224",
"4  c #3E512C",
"5  c #3D4532",
"6  c #3E4D32",
"7  c #3D5231",
"8  c #3E5934",
"9  c #424324",
"0  c #424C25",
"q  c #484B21",
"w  c #42442D",
"e  c #434C2C",
"r  c #4A4C2E",
"t  c #504D2D",
"y  c #445325",
"u  c #4C5327",
"i  c #4F5C26",
"p  c #44532C",
"a  c #4B532D",
"s  c #46592E",
"d  c #4C5A2D",
"f  c #53552C",
"g  c #525C2D",
"h  c #595D2D",
"j  c #434531",
"k  c #444B32",
"l  c #4A4E34",
"z  c #454E3A",
"x  c #4A4E3A",
"c  c #445433",
"v  c #4B5533",
"b  c #455A34",
"n  c #4C5B34",
"m  c #465539",
"M  c #4B543A",
"N  c #465B3A",
"B  c #4C5C3A",
"V  c #515533",
"C  c #535C34",
"Z  c #595D36",
"A  c #525639",
"S  c #535D3B",
"D  c #5A5D3B",
"F  c #46612C",
"G  c #49632D",
"H  c #586227",
"J  c #52642D",
"K  c #5D632E",
"L  c #516C29",
"P  c #466134",
"I  c #4D6135",
"U  c #46623B",
"Y  c #4D633B",
"T  c #4C6A3B",
"R  c #546335",
"E  c #5B6435",
"W  c #546A35",
"Q  c #5B6B36",
"!  c #54643B",
"~  c #5B643C",
"^  c #556A3C",
"/  c #5B6B3C",
"(  c #56713A",
")  c #5D723D",
"_  c #636B36",
"`  c #62663D",
"'  c #626C3D",
"]  c #6A6C3D",
"[  c #697C35",
"{  c #62723D",
"}  c #6C743C",
"|  c #60783E",
" . c #6B793F",
".. c #71763E",
"X. c #77783C",
"o. c #4E5640",
"O. c #4D5D40",
"+. c #535D41",
"@. c #5D5C45",
"#. c #615F45",
"$. c #4F6740",
"%. c #546441",
"&. c #5B6542",
"*. c #566B42",
"=. c #5C6C43",
"-. c #5D654A",
";. c #576B4A",
":. c #5D6D49",
">. c #567144",
",. c #5D7243",
"<. c #577048",
"1. c #5D734A",
"2. c #5D7A4B",
"3. c #616543",
"4. c #626C43",
"5. c #696D44",
"6. c #616749",
"7. c #646E4A",
"8. c #6B6D4B",
"9. c #647344",
"0. c #6A7344",
"q. c #657945",
"w. c #6B7A45",
"e. c #64744B",
"r. c #6B744B",
"t. c #657A4B",
"y. c #6C7B4C",
"u. c #727544",
"i. c #727D46",
"p. c #787E47",
"a. c #72764C",
"s. c #727C4C",
"d. c #797E4B",
"f. c #6A6751",
"g. c #6A6F53",
"h. c #667652",
"j. c #6C7552",
"k. c #657B51",
"l. c #6C7C52",
"z. c #6E7D59",
"x. c #737753",
"c. c #737D53",
"v. c #797E52",
"b. c #737759",
"n. c #737D59",
"m. c #787C5A",
"M. c #608046",
"N. c #6D8347",
"B. c #61824C",
"V. c #6E814C",
"C. c #748246",
"Z. c #7D8444",
"A. c #738A45",
"S. c #74824C",
"D. c #7A824D",
"F. c #73894C",
"G. c #7D894E",
"H. c #6D8153",
"J. c #6D815A",
"K. c #748354",
"L. c #7A8353",
"P. c #768955",
"I. c #7B8A54",
"U. c #74845A",
"Y. c #7B855B",
"T. c #768A5A",
"R. c #7C8A5B",
"E. c #7F915B",
"W. c #7D8B63",
"Q. c #808254",
"!. c #838C55",
"~. c #8B8C53",
"^. c #81865B",
"/. c #838C5B",
"(. c #8B8F5C",
"). c #829155",
"_. c #84915C",
"`. c #8A945E",
"'. c #8A9A5F",
"]. c #828D62",
"[. c #859362",
"{. c #8B9363",
"}. c #8C9A63",
"|. c #85956A",
" X c #8A9769",
".X c #8D996A",
"XX c #979A67",
"oX c #939C6B",
"OX c #94A071",
"+X c #99A272",
/* pixels */
"q./ 1 c N I ^ b n c q.' i.{.< l 2 C 9.L.0.< B a.v ^ ! , +.=.! c 2 R T ;.! c < k p : R p d Q R R I.: ,.P / ` { Q r 9 = # X 0 h 4.",
"; s ^ T ^ ^ *.1.2.! e./ w.i.~ r Q 4.~ j.9.S k A ! B Y t.) 9.y.! I *.l.*.B =.r.> B ^ c 5 e : # p n e s P | / C.f = w Z C t r u : ",
"^ p s T N Y U 1.1.%.*.=.=.Q i > ! / ! y.} Z r D B % k ! >.>.! =.,.*.l.,.b b e./ k # b ! n B Q v @ < J e p b n g 5./ Q C r & a Q ",
"T I B m ^ *.$.U T 1.p ,.p q.Q e R ) y.N.0.5.y.y.&.e B b 2 d / Q ! R n ^ v B B ! d 4.n B I p =.d > + ! E : : A R ~ n C y : e r v ",
"I 4.n m ! *.R N T >.=.b =.%.R a H.q.^ q.q.S./ q.y.y.M p c p 0 Q } / B R 0.p k n B b c c B C ; : c k n R o ,.4.{ { R { v + : E R ",
"1./ n n =.B B m U ,.2.T b *.B ,.B.V.9.P.P.S./ C ! y.w.R =.v C b R Q n Y :.y ~ 2 n c S / / ^ p 5 5 %.m b 4 9.a J / d g g a @ G a ",
"e.S R n B R %.b N %.;.R Y ! v 1.k.H.) 9.F.9.R d J C { y.P.q.E k B R ! ^ ! =.9.a B a B ! *.^ I c m M z 7 b I ~ : g p e d / v e e ",
"v S R b I I ! ^ I b Y ^ T c B ^ <.,.( =.) W 9.| Q { E 9.' ) { ~ v c c ! ,.! n y.Q v Y 4 b ^ *.m c > v % c 3 &.S v a a E v c < I ",
"p Z v d I Q ! %.=.Y 4.;.I 9.k n 4 V.y.( q./ 9.^ / W R q.R ^ / w.n 4.B k < / p e.S.0.! 1 , n t.9.B N e e p c n B / b e a & S M k ",
"c.9.e.B ! B &.=.-.&.B ;.B q.+.v > =.N.W ( V. .N.0.3 9.q.=.0.{ N._ { m v 2 v n ;.=.w.q.Y R v / / R 7 B B 6 c 2 w j p Y ^ 0.' E 0.",
"&.9.w./ n C R 5.~ ~ e &.b =.! m 6 c Y p ( W W A.c 6.p { { V.) q.N.Q { L.+.e m %.d p p c w < r.~ R m j -.< 4 Y n + @ N V.E g / 0 ",
"e ) W I.0.~ ~ ' h 5.A =.t.&.N n c k n 7 ! c T L W N 5 a V.D.y.s ) N.^ W 9.S.n 0.y.P.i.w.R %.y.} 9.k y.B B :.7 M k < n b I p | n ",
"x p / ^ R v.s.s.a.4.3.e %.e./ ^ 6 +.M %.Y ,.1.B.( C : , $.^ ) u S c.d . ' @ ( A.^ E E ~ v / w.w.d 0.K.( %.h.B B k 6 , 2 0 R > 0.",
"z =.e 4.9.E / s.5.r u.&.O.e.R ,.! k %.j.N b 2.U ;.H.p p 4 7 ^ R.4.. / }.U.> z.w.R 0 q.w.E q 0 A &.^ ; q.P.n 2 *.%.M 5 %.T 6 j 7 ",
"x =.! ! R { E E h r Y.S o.m.1.9.*.c.4.v 2 1.K.^ T 1.( F.9.2 4 ,.t.y.y./ =.F., t.y.( L ) C j < 6 c S T.H.B ^ R v ! N c c B y.b k ",
"r.R 4.d 0 p 0.L.0.] 5.=.;.e.e.E ' =.D S A Y P ,.,.2.F 7 > P 8 m n ,.K.y.Q V.M.*./ q.y.Q i.S.! e # # e ^ =.p t.4.n I B S B Y B y ",
"A 9.y ! 9.d ~ y.!.~.~ y.e ) c.K.0.9.5.:.C k.*.R e.y.^ 2.n Y 8 U P s 1.R c 9.| 1.U ,.z.R { S.Q e z w O n ,.e.1.e./ ! v $.+.B 7 : ",
"/ V.w.U./ w.9./ 4.` C 4.%.R r.y.=.%.;.5.0.,.%.l.s.Y *.t.1.+.m $.P P b ^ ! > =.! ,.P v *.0.w.w.) ! / S # 2 %.e.q.=.R B 2 5 +.c 7 ",
"w.I.W w.,.s.q.q./ r C C 4.7.~ E 5.B &.=.7.k.e.y.K.^ y.l.e.l.$.N N N T %.~ 2 & > / ,.  > T q.w.w.R  .I.~ ; n V.V.*.! n ! k 5 ! B ",
") e.I s ^ q.I =.w.0.d.V r =.:.r.0.B $.1.=.1.z.y.%.V.T.U.^ e.*.B %.1.k.e.:.Y v n p ) b c 2.y.{ w.R s.w.).~ 1.I.t.! ! N / R < B e.",
"9.*.,.^ ^ ) n p ' S.L.D v 4.e.=.=.&.t.=.! c =.q.h.w.9./ 0.q.9.=.N *.$.$.l.*.R %.; s ^ ! Y =.0.q.J G.! G.' e.P.) ,.B B / c p * B ",
"*.R =./ W F ( l.y.P...3.Z y.S.q.^ =.y.=.2 B B =.4.] E p 9.U.l.^ N m U *.U.%.e.c N N T k.B B e.w.I.w.C ' R K.c.,.%.R c n 3 n 5., ",
"*.R y.s.{ q.) ,.w.I.i.Z w a / R w.=.y.1.=.c $.B 4.K 0.V :.U.r.p N c c s n 1 U.Y y.H.$.N B 9.K.9./ ~ - C p I.R w.0.E p Q C e S 5.",
"! l.) S.A.{ ,.t.a s./ } e : s.C ~ c.e.^ 2.,.e.7.c.f Z c e.R.h.9.K.l.N ^ / T ! &.*.=.l.e T %.p 5 P.Q e = & W q.{ N.P.C.~ w.Q / e ",
"3 B R b M e v R I ^ ^ 3 D.*.]..X5.r.c.T *.U./ K.7.d I 9.h.9.R.^ ! 4.*.*.b < ) k.k c.,.B B m *.! 0 ~ e e O 3 ! C.[ J d i p d  .r ",
"1.J.,.R v 0.d M :.e.=.=.].E.*.L.!.L.a.e.j.%.U.K.R.< B l.M e.K./ %.K.B P 1 1 =.1.@ O.B R ! B m # E 0 C 0.:.c ! / a d R e.' ..' d.",
"> > ,.n.~ l . - &.P.=.> /.P.:.*.) I.=.I ! S y.c.s.R b.U.d R 9.y.! U.B b h.y.~ o =.%.R =.! K.q.w.| I._ 2 a F.^ - d E C t.q.g 9 ' ",
"j.! N 4.d v v B U.4.D E ! s.p t.9.H.1.%.*.y.C d Z ' 0.W.9.t.e./ ! :.S n *.I.B j , Y v v B e.2.t.P.i.a =.%.e.p w.w.6.5.H.1.R ' y ",
"0.k.r.0.R ~ ' C r.K.0.Z v y.,.N ,.1.t.*.n ! L.D.4.' 5.Y.' K.-./ n n :.Y e.1.{ 9.m Y =.n &.*.N %.! R 2 c 5 P T y.y./ C Q I ! / p ",
"%.l.c.r.! Q { e.t.w.g a c B R M ;.e.%.n ~ 6.s.D.s.&.b 9.s.P.4.C R : ~ ! k.p y.e.q.e.=./ *.*.m h.! %.v b c S %.B ! / B p a n 6.< ",
"/ e.3.w.c.0.a.{ =.D.} v # v ! c B / ,.%.7.b.s.!.&.L.) ! ' v.~ v :.=.4.! 0.n e.e.,.0.U.' &.A M ;.k.t.d ^ %.5 m N v ! ~ c S l =.x ",
"8.0./ r.0.E E ! ^ { u.V 9 0.y.n I y.*.Y *.=.d.S.q.0./ q.R s.0.3.8.j.r.~ *.a C B ) n 4.e.9.0.B 5 1.t.! q.B ! B *.^ =.~ V v A D +.",
"r.E E ~ d...~ R R C L.] t 3.Y.e.J.H.^ *.U Y T t.S.E T.y.K.R.E h ~ D S 4.j.V &.v 7.0.=.9.{ 9.m w M o.h.! B *.:.*.;.) I 9.&.x @.&.",
"g y.^ V U.d.} _ E C 5.u.t B K.y.t.9./ ! b T ^ T.T.| T.z.y.0.s.' C E V =.j.&.j.S v S 0.w.' B R ! %.z O.9.Y ! ! e.*.=.R 7.9.l A j ",
":.S.{ L.d.d..._ ' y.5.5.5.x.t.e.q./ R v ! ^ 2.*.$.t.^ 1.t.! 0.^ 0.5.4.9.M =.Y.R h.=.! 5.4.&.A R B k 5 1.0.~ 2 ! e.:.! c v ! l 5 ",
"/ y.a r.{ p.} f Z 0.x.a.` Y.c.*.w.D./ S ~ *.,.2.R c R m ! 9.B C 0.r.R ! :.e.&.&.~ R ^ K.=.p B A e.< B 4 Y.E e e ~ c ! 4.~ %.O.< ",
"{ S.{ q.d d X.u.5._ 5.x v v h Q w.L.q.v M *.N 1.t./ b 1.j.l.y.:.! 4.c t.b c.e.R =./ _.e.! U.W.S :.B r.9.XX9.=.7.&.M e -.x w o.< ",
"w.}./ b B e f 5.~ V 4.E d S.l.n / 4.s.~ C z.b B.l.H.S U ;.6 v R 4.1.~ / J / R.C 5.L.&.4 3 R ^ 9.y.B m M k =.D.a.~ 4.' 8.j.B k n ",
",.K.9.! { =.l l 4.E ` /.) OXe ^ R L.w.r.%.&.R.R : ,.^ T 2.O.8 m c 4 1.9.7.c.- y.3.c.V.R k ; k ,.9.l.c ,.p < / V r.4.S =.l 4.e ! ",
"d :.p K.].1.R.R.w.R s.d.R _ D./ =.D L.U.~ Y %.Q I.).l =.8 8 6 7 N U n b n ~ r u.s.r.V r p c B B U.h.H.4 *.5.% b B y.a.` &.e z =.",
"0 < e T.V.Y ^ =.e.]././.U.{.U.Q / r.4./.r.v ~ +.,.D.R.R.,.Y m z m U ;.9.c.~ 7.l 5.0.' d R &.+.*.! :.U.Y.6 c ~ S S E R k b.&.< 9.",
"w./ d n I p > *.=.e.P.w.q.E L.Y.U.0.~ s.v./ 4.n *.e R I.^ I 7 B m b 1.*.e.s.Y.9.y._.w.q.R &.z +.l.h.U.y.R 4.a.8.! -.A V k @.V |.",
"g E W ,.W a e S Q 9.w.E ,.=.~ r.U.|.K.s.V.n =.! k.c e.,.P.H.^ B ;.b e.m M J.R J.1.e.! ! 9.&.v c 1.M %.4.y.9 5.w.C 4.D ~ S M n h.",
"i a R 0.w./ w : 5.S.y./ Q ! p r v.R.K.y.{ y.=.~ l.S *.2 t.H.T.e.1.*.*.B m %.z B Y B M B ! 3.D A M Y 3.y.K.3.d.7.~ r.j.&.: ~ 2 S ",
"Q 9.! S S.,.) ^ y.w.7./ d q.g C 4.r.U.U.w.U.c.~ y.! n.;.Y y.j.e.h.1.;.;.l.T &.*.e.N c R ^ s.~ l +.! &.{.~ {.Y.~ e ~ 4.A w r.&.M ",
" .I.D.I ,.) R e.) s.Y.v.d ^ ' ' E ~ &.K.K.y.R.9.y.T.l.U.:.;.&.7.l.*.N z.J.k.q.B e.1.B v v E M $.*.+.=.+Xx.r.b.Z A E A r D r.&.@.",
"F V.C.q.R ! p ! 0.0.R.D.{ S._ d Q Z V c.j.t.R.l._._.^ e.r.n S =.j.h.&.z.J.e.E.^ *.%.S ^ S S B N B M :. XP.8.Q.r./ E 3.C ` 8.&.M ",
",.{ D.w.g n > C r.9.4.0.G.T.' v f f v 6.=.e.7.l.V.].9.=.r.D R 6.b.j.g.l.k.1.=.;.v c C &.! M 5 m 1.O.e.=.I.y.r.8.C ' y.9.5.r.S v ",
"y.t.4._.)./ e B S.Q w l S.!.I.a.S 8.c -.U.D.y.U.S./ 4.S r.0.e.m.8.x j.y.y.t.T.H.K./ 0.~ r l x =.*.M ;.=.e.:.l.v.8.v 4.j.7.0.S a ",
"R.%.R l.Y.E.! B | Q 0 9 s w.F.L.y.L.Y.Y.R.L._ i._.s._./ c.c.4.0.u.3.j e.1.H.T.W.S.I.y.Z Z l : ! ;.N U > t.e.r.r.U.b.&.V Y.~ v &.",
"j.c.=.q.) { s.S K.9._ U._.n t.4.4.y.w.=.S.U.D.u X R / { L.D.Q.8.8.D r 6.-.=.W.oX/ r.C u.D w ~ l.4.^ :.0.z c &.7.j.S v Z j V 0 j ",
"Q l.U.9.q.y.U./ 1.U.`.H e.i.{ 9.R =.=.U.-.C '.`.5.n s.oXoXQ.D Q.(.L.y.M s.&.< l.4.Y.d.` 8.g.j.Y.y.^ 4 y.k.; p e 3.~ R Z r = f.j ",
"~ A c.`.E a a R ! U.R.s.Q r A t s.I. X X`.D./ s.. y.:.C D. .a.V A #.v.&.r.^.b.:.p ' 0.] D 8.S.y.y./ B d.a.w %.: A -.+.p : x $ = ",
"a.v 0.!.`.c.C ` 0.! /.Q / `.5.k S A 9.v.S.).s./ ~ Q I.: r.d.5.` a.0.Y.|.P.R s./.q.~ V D D C 0.9.R.=.h.r.s.4.5.A 4.k S M = & v D ",
"Z #.3.u.d.d.u.0.9.0.{ I.9.K.y.' S M =.&.q.9.C a.s.D.R (.Z j.v V 3.C v n 0.q a.L.i.{ 8.Z E ' 0.9.9./ 4.j.4.a.5.l.K./ 4.&.< @ k S ",
"h 0.` u.i.p.Q._ &.0.' 5.} ' e ' &.S S r.K.D.] r !.d.r.s._ d.4.&.S v &.Y.R / L.y./ ' !.L.R 5./ s.&.~ 9.n.v.c.y.Y.9.C k j * j 5 n ",
"' 5.0./.`.!.Q.3.#.V Q 4.r.E n y.' Q B 7.r.4.w.' L./.a.5.i.U.v.0.' E L.Y.' ~ 4.U.R.y.{.L.~ 7.:.K.r.r.7.W.s.0.! R.D.E 4.:.! %.m > ",
"b.C B ~ 0.K.d.j.0.4.E P.=.e.R P.q.E A =.S p ~ C 5.y.' 3.(._.v.d.` 5.Y.s.r.> p R.c.:.l.L.e.K.c.[.{./ 9.B ! R v l.K.9.r.e.y.~ %.%.",
"C ' a.V / 7.c.d.~ 5.~ S.=.e.~ K.t.9.T.K.r.0.l.:.R 9.~ 5.!.{.9.' 5.L.L.(.s.C B 4.~ e ! *.S R 3.c.}.I.0.< ;.{ S 7.%.~ n v / C *.! ",
"} Q.C.v.*.c n =.u.L.8.B e.n.e.t.y.y.K.I.w.Y.7.l.r.c.v.' ^.L.D.d.P./.~ {.G.I.p s.e : -.n e A 0.E ' 8.0.9.&.C v A =.&.C / 4.4.R &.",
"w.{ } 9.y.9.+.r.!.L._ e e %.U.y.e.! 4.4.! 4.p 9.~ L.y.r D 4.P.E.F.0.R 8.R.U.R R.y.S ! 4.7./ s.D.D.0.|._.! A S :.7.o.~ 4.v.~ n =.",
"! R D.a ] u.7.U.R.[.!.~ e l.r.9.0.K.Y.r.4.a.j.U.c.C / a E w ! e.K.L.S 6.y.[.K.9.R.v.v n ^ / T.h.K.l.T {.a.~ y.h.S %.l.:.b.y.! 0.",
"/ V.I.C.i f a.}..X]./.(._.w d.V e D.R.r.C D.r.D s.Y e a ' 4.r.=.v C v.I.^ T.{ 9.I.y p c =.q.V.R C c ! =.R.r.].y.9.c V 0.s.r.0.,.",
"oXg 0 p.Z._ Z g  .!.Z P.L.h.S 8.Z A a.v.w.r.y.*.7.,.Q e.].e.9.e.q.! k R 9.}.^ w./ P.0.b t.V.0.S < O T.v c.M /.n C E e n =._.:.b."
};
