/* XPM */
static char *_727ee01bca84e74f34e02bfcd4050d4aw7P7nA05759mB2Z[] = {
/* columns rows colors chars-per-pixel */
"64 64 121 2 ",
"   c #305924",
".  c #3B652B",
"X  c #3E6430",
"o  c #3F6B30",
"O  c #456B2F",
"+  c #4A752F",
"@  c #436732",
"#  c #446C33",
"$  c #4C6D35",
"%  c #496E39",
"&  c #526F39",
"*  c #457134",
"=  c #4C7335",
"-  c #4F7C34",
";  c #4C753B",
":  c #4E7A3C",
">  c #557636",
",  c #597737",
"<  c #517936",
"1  c #5C7E34",
"2  c #53743B",
"3  c #59773E",
"4  c #547B3C",
"5  c #5A7D3E",
"6  c #647F3A",
"7  c #537740",
"8  c #587741",
"9  c #557E42",
"0  c #5A7E42",
"q  c #627E43",
"w  c #56843A",
"e  c #5B823E",
"r  c #5E893D",
"t  c #63833D",
"y  c #69863D",
"u  c #628A3D",
"i  c #698C3F",
"p  c #6F923F",
"a  c #558143",
"s  c #5C8343",
"d  c #5D8A43",
"f  c #568349",
"g  c #5C8549",
"h  c #5D8B49",
"j  c #628543",
"k  c #638C44",
"l  c #6B8C45",
"z  c #63854A",
"x  c #6A8749",
"c  c #658C49",
"v  c #6B8D49",
"b  c #738C46",
"n  c #718E4B",
"m  c #659145",
"M  c #6C9345",
"N  c #6E9946",
"B  c #659249",
"V  c #6C944A",
"C  c #6D994C",
"Z  c #729446",
"A  c #789246",
"S  c #729947",
"D  c #7C9945",
"F  c #73954B",
"G  c #79964B",
"H  c #749B4C",
"J  c #7B9B4C",
"K  c #6D9451",
"L  c #6D9A51",
"P  c #739551",
"I  c #7A9651",
"U  c #749C51",
"Y  c #7B9E52",
"T  c #769758",
"R  c #759F58",
"E  c #76A04D",
"W  c #7AA14E",
"Q  c #76A152",
"!  c #7CA453",
"~  c #7FA856",
"^  c #7DA559",
"/  c #7FA858",
"(  c #829C4D",
")  c #819E52",
"_  c #85A34E",
"`  c #8AA44F",
"'  c #86A84E",
"]  c #8AA94E",
"[  c #85A351",
"{  c #84A253",
"}  c #81A452",
"|  c #82A753",
" . c #84A653",
".. c #82A357",
"X. c #85A355",
"o. c #80A555",
"O. c #85A755",
"+. c #89A653",
"@. c #82A853",
"#. c #83A953",
"$. c #83A957",
"%. c #85AB56",
"&. c #86AC55",
"*. c #8BA953",
"=. c #80A258",
"-. c #84A35A",
";. c #81A759",
":. c #86A45A",
">. c #84A35D",
",. c #89A65D",
"<. c #82A858",
"1. c #85A959",
"2. c #88AA59",
"3. c #8AAC5B",
"4. c #8DAA5C",
"5. c #93A652",
"6. c #92AA53",
"7. c #99AE53",
"8. c #97B054",
"9. c #98B051",
"0. c #89A960",
/* pixels */
"^ k 5 T ) >.! Y H Y H Y ! H l Z F H Y Y ! ..:.-.^ =.1.2.3.1.Y F F Z l l F F F F l J | | { _ _ ( ) J G J J ) Y G Z v z 3 , F U v ",
"^ ^ U l M ! ! ! J ! ! ^ $.<.o.o.1.1.<.$.o.Y J ..;.;.....! ! U P F ! ! ! ! Y =.Y ..! X. . . .{ | { { X.{ | | | | ! F v n I Y F V ",
"W | $.^ o.$.o.H o.! ! ! $.$.$.$.%.$.$.^ W $.| | o.^ U Y ! ! F R H ! W ^ H ! o.:.O.Y ! | | W | O.O.| | O. . .| | $.| | ..Y F V v ",
"&.%.%.$.$.$.$.o.<.$.$.@.$.~ ! $.$.$.$.W ! $.@.$.| ! ^ o.^ o.^ ;.^ ^ <.H ! ! o.J | ! ! ! ! M ! $.! ! W $.| @.%.$.~ $.$.H H m c g ",
"$.$.$.$.<.$.<.$.$.$.$.$.$.<.$.<.o.<.^ ^ $.$.%.%.| ! ! ! $.$.$.$.! ! ! <.^ <.~ ^ <.^ ! Y ;.^ ^ <.Q ! W Q W ! ^ ! $.! H B B B c 4 ",
"! ! $.$.$.$.$.$.$.$.$.$.$.$.$.$.o.^ ! ;.$.$.$.@.$.$.o.o.o.o.$.$.o.! o.$.~ ! ! Y ^ R U U ! ! U H C H H H H H U H H W H C C V C < ",
"! W ^ ! ~ ~ $.$.~ $.$.$.$.$.$.$.$.$.$.<.<.$.$.$.^ <.;.$.o.! $.$.$.! o.o.~ ^ ! H H U B B L L V B V V V C V C V V C V V B m V U e ",
"$.H ! ^ $.! ^ $.$.$.~ $.$.$.~ ! $.$.^ ! ! o.$.o.H Y ! o.$.$.$.$.! ! ^ o./ ! C C C k k d B d d k d d d d k k V d k k k k d d V k ",
"<.H H ! o.<.! S ! o.! ! ! S H $.^ H H ^ o.! ^ $.^ ;.;.! $.$.! $.$.^ ! N C C V V V k k d d d d d d d d d d d d d d d d d c d k k ",
"~ H M M ! o.^ H o.J ! $.o.W ^ $.o.H H ^ $.o.! o.^ ^ ! W o.$.! ! ! H H M m m k k d d d d d d d d d d d d d d d d d d d d d d k d ",
"^ H H U H ^ ^ $.! ^ $.! ! W $.$.! ! ^ H ! ! $.o.<.;.! ! W ! ! ! ! J ^ U C C m k d d d k d d k d d d d d d d d d d d d d d d d d ",
"C k U H M ! H ! W ! ! o.$.$.$.^ ! ! ! H ! o.$.! H J M W W ! ^ ^ ^ ! $.^ ^ H H C B k m d B V B d d d d d d d d k d k d d B k d k ",
"r w C C H N W ! ! ! $.$.@.! ! ! ! ! ! $.$.$.$.H H ^ H H <.o.^ ^ Q ! ! $.$.! ^ ! M C B V B k k c k k k k k k k k B V m V B B B d ",
"U M F U Q H ^ ~ ~ ~ o.@.S H ^ H H H Y $.! ! ! M H U M H H Q ! ! Q H W $.$.^ ^ U H V B B c d k M H ! H H Q ! H M ! ! ! C C C B B ",
"! G M M H H N H H H ! ! H H ^ H ! N U H H N N k k k k k k N C M N H H ! H H C V m B m d c s k M ! ^ ! ! ! ! H ^ o.! ! H C C C B ",
"J G Z F H M M r k j C ! <.^ ! H V V B j M V B k d d k k d d d d m V N M k j d d B k k k M s s N ! ^ $.^ ! J ! J ! o.! ! C C C B ",
"V v k d c k k U c s k U ^ H V C B k k d B m k d d d k d d d d d B c c k c d d d B B V V N k j U <.o.$.! $.! ! H %.o.! ! S H U B ",
"s 4 ; ; ; s l k k c s c U C V B k k d d d k k k k c k k k k m M B V k d e d d d B V Q ! M H H ! $.$.$.W o.^ ^ o.! $.! ! ! Q ! H ",
"; # # # 4 k l F l j e s V V k c k k c c B N U F v v k k k l V H Q N N r k d k m Q U ^ o.W o.| @.$.$.W W ! ! ^ ! %.$.$.! Q Q ;.U ",
"9 9 4 4 s s s s s s s s s c s s j 4 j M U Y o.Y I V K K z z v F N Q U H H V U ! W H ! ! o.$.o.! o.o.| | ! $.o.! o.1.%.o.o.^ ! H ",
"f a a 9 a a a s s s s a s s s 0 < s z c R U Z v v s 0 0 9 0 s s k N H Q M N U ^ U J ! S ^ $.! ! o.o.o.! <.o.| o.$.$.| | <.<.;.H ",
"9 g g a a 9 9 s s a 9 9 9 9 9 a a s s c v c j 5 0 s s s c c M m U c C U N M V k j M F Z ^ <.$.o.o.$.o.^ ;.o.o.$.$.$.$.$.$.^ ! H ",
"k v k s s s a a a a 9 9 9 9 9 0 9 s s c c M V l v v V C C N C C U U M c s s s 0 e C N H ! <.o.^ o.;.;.1.<.1.@.$.@.$.$.$.<.E H ! ",
") J F l k k s a 9 9 9 9 9 9 9 9 9 4 c L C M H H H F H ! H H H H H j k c c g s j e l V U k V F H H ! ! <.! ! ~ $.! $.<.<.<.^ ^ <.",
"( J G F k c s s s s 9 9 9 9 a a c c c M M C U N H F F U H U L L c j e j j s c P F k N U k k C F M H F Y ! Y H ^ ! R k H ;.<.$.$.",
"A F Z v s s s s 0 s 0 0 0 0 0 z s k c V V V v j M l k B k s k c 9 a s s s d c R C l U ^ N F ! Y M H F l l F F U B c e k H U ^ <.",
"G F v k s s s s s s s s 0 0 0 s s j k k j k c j k e e s c s s s 0 s s j k c j F V V H Y H ! o.| J Y F k j c V s 4 e e e e j U >.",
"F F Z j v j z v j s j v j s 0 5 s s j k j j j k k s s j s s s j e c L k F M k M H U U U M ! ^ ! H V k 5 < < = ; ; = O # = < , >.",
"G G F F V v F V l k V l V F V v j v v F v l l k V F v k k V U U l Y Y ! ! ! ! E ! N H V u ! U N u M r 4 L v j j k s , ; 2 < e ;.",
"J J G F F F F Z M l M l F F F F F F F F F F Z F V N U H F U ! Y H H H H W ! ^ ~ ^ H N N l M M N M N N H U F F F F F H U P V F %.",
"J J J G G G F F F F F F G A F F F F F G G F Z H F H Y Y ! ! ! M H N C C N M U V C H H H H H H H M H Y H J H H G G G H H F F J O.",
"G G G G G G G G F F G G G F F F F F F A J Z F J M H H H H N M U U e e c k L V k k M H H J W J M M Z J J J G G G G G G H H G J :.",
"G G G G G G G G G G G G G G G F F Z i l y F F Z Z l F i J H H H r u r k k d k k k F H J G Z H F F Z Z F Z J J J J J J J G J F Y ",
"F G G G G G G G G G G G G J G J A Z J J | Y ! o.o.| | | %.o.| %.$.o.! Z F V u u l F F Z Z Z Z Z Z Z Z Z Z H F J J J F H H H F F ",
"l F F J G G F F F F F J J ( ( J ( ( {  . .{  .+.+.+.+.+.+.+.+.+.+.+.+.+.{ ) ..F J J J H H F F Z Z F F H G G J J G G G G J J J H ",
"t l F Z F Z l l l l F J { ( D D ( ` ] +.+.` ` +.+.+.+.+.+.+.+.+.+.+.*.*.+.+.2.4.X.J F H H F F F F F H G G D D J D G G G ( J J G ",
"e l v l l l F F j j l J J J J +.+.' ' ' +.*.+. . . .O.+.*.+.+.+.*.*.+.+. .J Y J X.J Z V j j k k l l V F G G G G D D Y J J F F F ",
"s s j k k j k k k v M F ! o.| @.@. ._ ' ` ` _ G H J J J | | |  .o.o.| o.o.Y Y Y I H R L s s e e j k k j k l Z Z H H I F F l k k ",
"j j j V j j j k V V N H J ^ ^ $.! ^ J J _ +.| ..M M H M H H G W ^ ! ! <.F R R Y ..Y R V s j z k k s < ; : 4 0 s V k j e s s 5 e ",
"k v M U U l l k k M M H ! o.o.o.^ ^ M M H Y J J ! H M H H H J ! ! ^ o.^ R V Z F l H ^ r L V V F H U k ; o # # . ; ; = # @ % ; ; ",
"U R ! ^ 1.J H H H F F H Y ^ o.o.^ M H U k M H ! Q Q ! ! H J ! | ! ! ! ! H M t v R k H ! C H J J H U d g ; 9 : * ; 9 0 9 4 s g s ",
"N ! $.| @.@.! H <.^ ! Y <.$.! ^ ! M N Q M H ^ ! H Q ~ ! ! | ! $.@.! ! H H ^ F ! ! J H ^ H J W ! U k e a 4 s g a a s j j j t k k ",
"V C ^ ! W @.W Q ~ ^ ^ ! ^ ^ $.~ ^ ! ! Q ! Q ~ ! Q ! ! ! $.! W Q ! H ! H H H H ^ ^ W H ! ! H H ! ! U k k e k V s e s c k k k v F ",
"d C Q ! C ~ Q $.<.H ! M H ! ~ ~ S ! H ! ^ S ! $.W ! S ! o.^ H N M M H ! ;.^ ^ $.$.! ^ ! ! H ^ H U ! H C k j v s 5 s j c v l F I ",
"d B V V d C ! Q ! ~ ! S ^ Q Q ~ Q u C ^ ;.^ Y ^ ! H H Y ^ $.! Q N H H ! o.! J o.1.o.^ ! H H o.<.! ! W ! M ^ T s s s s k l H H J ",
"m m m m d L Q H C S ! / / ! W ^ ^ C U ~ ! H C H u ! Q ! ^ ^ M E W Q ^ ~ ! J ! $.! ! $.! o.! ^ <.H ! o.F M ! U L 9 7 2 4 5 k l l ",
"U S H B d d B m H N H $.$.! W ^ ^ ! H ! Q H H H k H E ! ^ Q H ^ H H ^ $.W ^ $.$.! ^ $.$.$.^ ! ^ ! ! ^ ^ H H H j , = 3 z c l M J ",
"O.| H H L d m E E E W $.$.$.H M H ^ H Q ~ E M ! H ^ ! Q H M H <.H H $.o.$.<.$.o.^ ^ ! ! o.$.o.o.$.J M ! ^ Y ! R v F F Z t 1 y l ",
"Y J ! C U m C Q ! $.W | ! H M ! H ! J ! S H ! ~ ~ ^ o.^ <.^ ^ ! ^ H ! o.$.$.<.^ ^ ^ o.$.$.$.o.$.$.$.^ ~ ! H H ! Y Y | J J ! Y Y ",
"l H ! ^ ^ ^ ! ^ o.! ! o.! H M U U M H ^ ! J ! ^ ^ ^ ^ $.o.! ! ^ ;.;.^ o.! $.$.W W ! $.$.^ <.$.o.$.$.$.! ! U F F H J Y | | | J M ",
"V ! Q ^ ! | J ! ! ! J Y ! H C U C N ! o.! J ! ! ! ! ! ! W ! W ! o.o.^ $.$.@.$.$.$.$.$.$.o.<.o.$.$.$.$.$.! ^ F N H W G Y J P v j ",
"Z J | | J Y J Y W W ! U ^ Y M k N M C U H ! ^ ^ ! ! ! H ! $.^ ^ $.! ! o.$.<.$.! | $.$.$.$.$.<.o.$.<.$.$.! $.! S ! ^ S C e : 4 : ",
"n ) :.O.O.o.| | ! ! W U U M M U U Q S M M H N ^ Q ! ^ ! $.$.$.$.$.! ! o.^ W $.$.<.^ ^ <.o.! U ^ ! ^ ^ Q S ! ! H H M u e + - k K ",
"3 z z l V N H U Q ^ ! H U V k U C H ! N ~ ! ! ! ! ^ ;.! ^ o.^ o.o.$.o.$.$.! ! o.^ ^ $.$.$.Q m k M C Q H Q Q H M M F H F M N H H ",
"X @ . . = a 4 a h L C r V d m H Q ! ^ E Q ^ ^ ! W ! ^ H ! o.o.$.| @.$.$.$.$.W ! @.^ $.~ ! ! N m r H ! W H ! ! H F J H H F F Y U ",
"; 7 # ; ; 7 .   . : k V V U Q H Q H N N ^ ~ ^ ! ! ^ $.o.$.$.$.$.%.%.%.&.%.$.@.@.| ! $.$.Q ^ ! ! ! ^ ^ ! Z ! J J F G H M Z Z F P ",
"5 j x v F ) v > j e l ^ H ! ^ ^ Q Q ! Q ! H M ! ! ! |  .|  .@.%.*.*.%.*.%.%.@.| ;.! ! H Q ^ Q U C U k Y J Z F Z Z F F F l l l e ",
"l l b b G ( G G J J J ! ! o.$.$.$.Q U U H H H ^ H | | @.@.%.@.@.%.@.%.%.%.%.| W H F k U ! H R R M k j l F Z Z F F l v n n Z v l ",
"l l Z n G b b l v Z Z F V H ! ! ^ ! ! R N H ! ! H ! W ' @.| | J @.@.o.! | | W | I V V H J F F V T P F F G G F F F F F F F Z v v ",
"v x z t t 6 6 l n F F v v P R H H F U U ! J | ,.V F ;.W W ! H Y o.J J ! H W | O.J C U Y ( D ( { J D ( ) X.D G F F F F F F F F j ",
"q 5 5 y ,.,.,.,.I F Z F F F H U F F I Y | +.6.6.p l R U F V V J O.%.| ! o.$.+.7.*.| o.*.5.6.6.6.` +.+.( { ( ( G G G G b F F F , ",
"q n ) 4.4.4.) n n l l v 0 j n P -.4.` | ( 5.7.9.*.W M F e j u W +.+. .O. .%.6.7.6._ _ 6.5.6.6.6.*.` ` ` ( ( ( J J J G G G F v 2 ",
"l y A { J G j 2 2 2 3 8 & $ & q F +.] | I +.6.8.+.F Z Y .... .' +.+.+.+.{ { 6.7.6.{ Y X.) ) +.{ _ ( ( { D G ( J J J G G G n j 8 ",
"0.Y +.*.X.Y F c K v j 3 2 $ $ & & x n Z U F A J x 8 n ) ] +.+.+.*.%...G l y G A A I P P j t l F F G J J G G G G G J ) I I F j 8 "
};
