/* XPM */
static char *result[] = {
/* columns rows colors chars-per-pixel */
"64 64 236 2 ",
"   c #080100",
".  c #190600",
"X  c #081201",
"o  c #191500",
"O  c #260300",
"+  c #360100",
"@  c #251702",
"#  c #371C02",
"$  c #1D2600",
"%  c #2B2F08",
"&  c #392708",
"*  c #293513",
"=  c #343C15",
"-  c #323D20",
";  c #450501",
":  c #580702",
">  c #491801",
",  c #581705",
"<  c #650000",
"1  c #680503",
"2  c #760905",
"3  c #711705",
"4  c #4A2803",
"5  c #473704",
"6  c #593805",
"7  c #4F371C",
"8  c #682803",
"9  c #673A04",
"0  c #712F10",
"q  c #7A2519",
"w  c #5A3723",
"e  c #3B4C20",
"r  c #444302",
"t  c #554409",
"y  c #5C4515",
"u  c #4F5017",
"i  c #694609",
"p  c #794A07",
"a  c #79500B",
"s  c #67541C",
"d  c #775613",
"f  c #6D6B06",
"g  c #797401",
"h  c #454B26",
"j  c #554B25",
"k  c #49552C",
"l  c #585828",
"z  c #4C4E31",
"x  c #4E5A32",
"c  c #515F32",
"v  c #634A28",
"b  c #635A28",
"n  c #785B36",
"m  c #4C622E",
"M  c #5D6629",
"N  c #586936",
"B  c #5A733C",
"V  c #626529",
"C  c #696D34",
"Z  c #64743C",
"A  c #726C49",
"S  c #677843",
"D  c #757C44",
"F  c gray44",
"G  c #8A0806",
"H  c #960202",
"J  c #84120B",
"K  c #9A190E",
"L  c #871815",
"P  c #A90807",
"I  c #B70A08",
"U  c #B11310",
"Y  c #B61615",
"T  c #8C280F",
"R  c #B92827",
"E  c #C80C0B",
"W  c #D1100D",
"Q  c #CB1715",
"!  c #D81615",
"~  c #E80E0D",
"^  c #F4110F",
"/  c #FE130E",
"(  c #EA1212",
")  c #E41818",
"_  c #F41413",
"`  c #FE1212",
"'  c #F41618",
"]  c #E11E21",
"[  c #C72927",
"{  c #D52324",
"}  c #8A5501",
"|  c #85550A",
" . c #8A510F",
".. c #875A16",
"X. c #A25506",
"o. c #A34516",
"O. c #886D0A",
"+. c #9A630B",
"@. c #986516",
"#. c #A5690C",
"$. c #A46A0C",
"%. c #AF710D",
"&. c #B6730B",
"*. c #BB790D",
"=. c #A56B14",
"-. c #AE7314",
";. c #B47612",
":. c #BC7A13",
">. c #B1751B",
",. c #904D38",
"<. c #8B662F",
"1. c #B3702C",
"2. c #C47E0E",
"3. c #C37D14",
"4. c #8A7043",
"5. c #76822F",
"6. c #658E4B",
"7. c #6A884B",
"8. c #75874C",
"9. c #738B4E",
"0. c #69924C",
"q. c #6B944D",
"w. c #72954C",
"e. c #749B4E",
"r. c #799D4E",
"t. c #6A8C50",
"y. c #768C53",
"u. c #6E9651",
"i. c #6F9852",
"p. c #729652",
"a. c #749B53",
"s. c #7A9E53",
"d. c #7B9558",
"f. c #759B5B",
"g. c #799E5B",
"h. c #7BA04F",
"j. c #77A055",
"k. c #7DA154",
"l. c #7CA25B",
"z. c #7A9861",
"x. c #7A9F61",
"c. c #77A061",
"v. c #7DA262",
"b. c #858204",
"n. c #8B8C1C",
"m. c #AE8D12",
"M. c #ACA600",
"N. c #ADA800",
"B. c #B3AA03",
"V. c #B7B111",
"C. c #898D2D",
"Z. c #979A2B",
"A. c #BB842D",
"S. c #A2A221",
"D. c #CB820F",
"F. c #CB8211",
"G. c #C5831C",
"H. c #C79B16",
"J. c #C4B905",
"K. c #C6BF1A",
"L. c #C38323",
"P. c #C18328",
"I. c #CD9630",
"U. c #CCBC29",
"Y. c #C7C004",
"T. c #CAC201",
"R. c #D5CB00",
"E. c #DCD503",
"W. c #D5CF1C",
"Q. c #E4DC02",
"!. c #EDE503",
"~. c #F1E702",
"^. c #F0E801",
"/. c #F0E709",
"(. c #EDE613",
"). c #F0CE38",
"_. c #FED73E",
"`. c #938155",
"'. c #859C56",
"]. c #839C5C",
"[. c #AC9157",
"{. c #82A455",
"}. c #88A756",
"|. c #86A856",
" X c #8AAA56",
".X c #83A55B",
"XX c #89A65C",
"oX c #86A95C",
"OX c #8BAB5C",
"+X c #96AF59",
"@X c #91AE5C",
"#X c #8FB05E",
"$X c #94B25D",
"%X c #9AB55D",
"&X c #9FB85F",
"*X c #A1BA5F",
"=X c #829C62",
"-X c #83A562",
";X c #8AA762",
":X c #86A961",
">X c #8CAD62",
",X c #85A66A",
"<X c #8DAC6A",
"1X c #91AE63",
"2X c #92AE6C",
"3X c #9AAF6E",
"4X c #8EB163",
"5X c #94B264",
"6X c #9AB663",
"7X c #97B865",
"8X c #9DB965",
"9X c #95B36A",
"0X c #9BB66B",
"qX c #9DB96B",
"wX c #97B371",
"eX c #9DBA71",
"rX c #A2BC64",
"tX c #A8BD65",
"yX c #A3BD6C",
"uX c #A3BD73",
"iX c #A7BF76",
"pX c #D8A858",
"aX c #A9C066",
"sX c #A6C16D",
"dX c #AAC16C",
"fX c #B1C36A",
"gX c #A7C071",
"hX c #ABC272",
"jX c #ADC479",
"kX c #B2C878",
"lX c #FED641",
"zX c #FAD74D",
"xX c #F7C778",
"cX c #F9C77A",
"vX c #ABA59F",
"bX c #F1C886",
/* pixels */
"OXOXk.a.g.k.k.oX@X{.s.'.'.w.g.XXOX'.OXXX$X6XrX6X1X%X%X6XqX8XyXyXyXyXyXyXdXdXyXyX].N +XrXrXyXyXtXaXfXaXaX8XsX*X7X%X$X8X*X$X#X#X#X",
"qX5XoXa.s.{.{.XX>X:Xp.s.s.p.p.OXXXOXoXoXOX@X7X8X6XrX8X6X$X$XyXyXsXdXdXz Z iXuXXXc yXS rXrXrXrXrX8XrXaXaXaXrX8X*X%X%X$X&X%X7X%X7X",
"8X8X5Xk.XXOXXX>X1X;Xf.g.s.a.f.'.oXoX.Xl.OXXXOXOX@X6X1XOX@X4X8XgXs 8.Z }.Z 6 =.6 p.@XM 8.y C rX8X&X*XrXrXsXrX&X8X%X#X#X#X%X$X$X7X",
"6XyX$XOX1X1X1X1X1XXX;X-Xq.7.f.w.p.p.i.i.f.s..XoXOX8X@XOXOXOX5XqX@.F.4 @.>.F.4 3.L.4 i A.[.h 8X8X*X*XrXrX%X$X&X%X%X$X#X X$X$X#X X",
"8XyXyX6X1X2X1X9X9X:X>X;Xg.p.f.a.u.0.6.0.i.j.l.#XOX@XOXOX1X5X5X8X= ..+.@ &.D.F.9 D.%.@ ..e 8X8X8X&XrXrXrXrX&XaXaX&X$X$XoX#X X X#X",
"rXrX8X6X1X1X>X2XwX9X<X-X;X-Xg.u.i.6.6.0.j.j.j.l.#X6X7XOX6X6XqXqXuXyX- ..2...6 ;.D.1.L.B @X$X$X8X&X&X%XrXaX&XrXaX$X$X X|.|.|.#X&X",
"6X6XOX5X0X2XXX<X-X-X<X,Xf.x.p.p.i.i.0.j.k.l.oX#X8XyX6X1XqX5X8XsXqXyX=X%.F.# n a D...L.d.9X>XOX#X$X%X7X%X%X7X8X%X#X X|. X#X#X+X%X",
"5X%XXX>XwX1X;X2Xv.v.,X,Xf.t.u.f.i.i.i.j.j.l.oX4X7X9X7XrXyXqXyXqX1Xh [.v @.4 F `.D.:.G.].9XOX|.OX5X%X&X#X X%X%X6X#X|. X#X+X#X#X X",
"OXOX;XXX<X<X-X2X<X,X,Xx.f.f.f.f.i.0.0.i.u.j.#X4X4X#XqXsXyXyXsX8X@ xXcXxXbXn vX`.G.D.G.=X9X4XXXoXOX$X6X@X@X$X5X+X X5X$X$X X|.oX X",
" XXX{..X<X;X<X<XwX<X<Xx.z.f.f.f.j.i.i.f.f.f.4Xv.oXoX8X8X8XyXrX7XxXxXxXcX& & >.F.F.| A.z.;X.X.X.XOX1XOXOX|.$X#X@X@X$X+X$X X|. X@X",
"$X@XXXXX;X.X-X<X;X.X-Xx.c.v.v.l.j.f.j.j.j.v.#XoX#X4XqX7X8X8XsX9X  xXn cX4 bX;.D.3.@.2.V -XoX.Xl.;XXX.Xs.{.oXoX X X X X%X%X+X%X$X",
"1X1XOX1X2X;Xl.-Xv.x.-Xx.c.v.c.l.l.l.j.l.l.oXoX4X#X5X7XrX8XsXsXrXn xX4.cXcXbX+.D.F.9 D.b -X<XoXs.a.a.s.p.p.{.|.|.{. X$X&X6X6X6X%X",
"qX0X5X1X9X9X2X-Xa.a.l.v.f.l.v.l.c.l.l.l.l.oXOX4X7X7X8XyXrXrXsXyXpXbXcXcXcXcX=.F.D.9 D.l |.:X.Xf.q.u.6.0.w.j.k.{.|. X$X+X@X@X6X@X",
"1XqXuXyX1X9X1X.Xf.a.k.j.f.i.l.v.j.j.j.j.oXl.OX5X7X7XqXrXsXsX8X7X# bX<.xXxXw 2.D.9 ;.D.& l.l.f.p.6.6.6.6.u.w.e.k.|. X X@X@X XOX@X",
"9X1XiXyX0X5XOX:Xl.k.l.j.j.l.l.l.c.j.j.l.l.l.4X4X7X8X7X8XrX8X7X7X<Xv A % & #.F.D.D.D.G.> -X.Xf.u.0.6.6.0.q.q.w.r.{.}. X X@XOXoX@X",
"yXyXyX6X@X1X9X5XoX-Xl.v.l.4XoX:Xj.j.j.l.l.#X4X5X5X7X8X8XrX8X8X8X9X8.0 ..;.D.F.D.D.;.J ^ J t.u.0.0.6.6.0.q.q.a.r.{.{.}.{. X}.@X@X",
"6XyXyXyX6X0X1X6XOX-X.X-X:X4XoXl.l.l.l.v.l.4X4X7X7XrX8X8X8X6X6X8X= 0 1 2.D.D.*.+.D.0 ` ` Y d B p.q.u.w.s.a.a.w.e.e.k.s.r.{.{.}.6X",
"6XiXyXyXyX0X9X6X4X4X4X4X4X4X4XoXl.oX#Xv.#X4Xv.7X8XyXqX8X8X7X6Xy 7 2 #.D.D.i } F.+.W ` ` 0 F.>.m a.w.k.l.'.s.e.a.e.r.a.e.'.|.XX$X",
"6XyXyXrXqXyXyXyXqXqXqX9X5X5X#XOX4X:X4X4X4Xv.7X4X5X7X5X7X8X5Xv > )  .D.D.F.2.D.D.o.` / ! =.D.F.} 7.a.{.|.oX}.{.e.r.r.r.e.{.XXOX@X",
"6XyXiXiXiXiXhXuXyXuXgXqX9X7X5X4X4X4XoX4X7X4X4X4X7X7X7X5X1X6 p ^ O F.2.6 D.D.D.$.I ` / 0 D.D.F.2.i m '.{.oXXX{.{.r.a.{.{.{.oX$X@X",
"yX6XyXuXhXhXhXgXyXhXjXuXqX8X7X7X4X4X4X4X4X4Xv.4X4X9X7X5Xj  .Q _ -.D.#.%.D.F.D.0 ` ` ) =.D.D.D.D.D.@.7.k.|.oX{.{.s.e.a.{.oX@X6XrX",
"1X1X0XyXyXhXhXyXsXhXhXyX9X9X7X7X7X4X7X4X4X4X4X4X4X>X>Xl #.Y ` + 3.D.6 2.D.D.:.I ` ` H *.F.D.D.D.D.D.y a.{.{.s..Xs.r.k.oXOXoX@X1X",
"@X5XyXyXhXyXjXdXyXgXhXqX5X4X5X9X4X4X7X#X#X4X4X4X>X1Xl >.2 ` _ A.D.D.} F.D.F. ._ / / G D.D.D.D.D.D.D.D.u {.{.{.g.{.s.{.;XOXoXOX@X",
"6X6X8XyXyXhXiXhXyXyXqX9X7X4X4X4X4X#Xl.4Xv.4X4X4X>Xj :.T ` ` I F.D.D.&.D.F.F.3 / / / K D.F.} F.D.D.D.D.=.k k..X.X.X{.{.OXoX{. X1X",
"1X1X1X6X9XyXuXuXyXqX9X7X5X4XoXOXl.#Xv.#X4X4X5X4XZ -.@.' ` ` ; D.D.@.2.F.D.F.Q ^ ' ` o.F.#.#.D.D.D.D.D.D.2.x .XXXXX.X.XXXXX{.{.OX",
"XXOX>X1XqXqXyXqXyX0X9X4X4X4XoXoXl.l.oXl.:XOX4X5Xi D.: ` / _ @.D.F.@.F.D.D.F.I  .<.E o.2.#.:.D.D.D.D.D.D.D.-.e.|.OXoX{.oXoXl..X{.",
"XX>XOX5XqXyXqXuX0X5X7X7X4XOX.Xk.k.l.k.l.v.>X4XN +.$.# 2 ` K D.D.F.D.D.D.D.P.L zXlXP | D.F.6 F.D.D.D.D.D.D.D.. '..X.X'.{..X.X.X].",
">X>X1X1X5X0XyXqX5X5X7X1X5XOXl.l.l.j.l.v.:X:X:Xl m.d _.pX` 3 D.D.D.D.D.D.&.O i _.lX1...D.F. .*.D.D.D.D.D.D.D.L.'.{.s.|.{..X{.{.k.",
";X;X>X>X1X9XeX3X9X5X1X4X9X>X.Xl.l.j.f.l.l.:X:X4.} _._.I.~ P =.D.F.F.2.@.3 1 I._.lXL + :.F.F.6 F.D.F.D.D.D.F.F.'.{.}.oXOXOXXX.X{.",
":X>X>X5X2X9X9XeX9X4X9X4X4X>X-X.Xl.j.c.c.g.f.g.D i _.pXP Y ` P >.F.3., Q ) Y I.lX).P Y T 2.F.%.p D.D.D.D.D.D.F.XX X XOX X@X|.{.l.",
":X:X:X>X>X9X9X9X<X9X0X5X5X>Xl.l.l.l.l.x.p.a.f.x : _.I.` ; J ` ` Y Y ' ' K Q 8 _.s H ) ` , D.F...$.D.D.D.F.F.2.'.{.|.{.|.XXXX{.l.",
".X<X;X<X>X0X9X9X9X5XqX4X;X;Xl.l.l.l.j.j.f.g.f., / ; { ! ' Q Y / ` ` ` { ` Q ' P _ H < _ W > 3.8 8 D.D.D.F.3.2.o {.{.{.{.k.{.{.{.",
">X>X:X:X:X9X9X2X9X9X9X>X;X:X.Xl.l.l.l.l.x.x.z _ ` / ` { ` ` ) / _ ` ` / ` Q ` ` ` H ` < ' ` ` ` Y 3.3.F.D.F.F.X k.{..Xs..Xg.{.oX",
">X>X>X<X>X4X4X9X9X1X1XOXXX-X-X.Xg.f.g.d.v.v.N ! / ` _ < ` ` / ` ` ` ` ` ` 1 ( ` ` Y ` ` ` ` ` ` ` 1 F.F.F.F.=.9.s.{.g.{.{.s..X.X",
";X4X9X4X5X>X>X5X1X1X;XoXoX.X.Xv.f.f.f.f.f.x.x.z q G J ' ` ` ` ` ` ` ` ` ` ` ~ ~ ~ ^ ` ` ` ` ` ` ^ > F.D.D.} 7.s.g.{.s.k..X{.l..X",
".X>X9X>X>X>X>X4X>X1X.XoX:X.X:Xl.g.p.f.f.g.x.c.N ! _ / ` ` ` ` ` ` ` ` ` ` ` ` ` ` ` ` ` ` ` ` ` ` J F.F.4 7.f.g.f.s.s.g.g.l..Xg.",
"l..XoX;X>X4X>X>X;XOXoX:X:X.Xl.g.f.f.f.g.v.v.x.x ` ` ` ` ` ` ` ` ` ` ` ` ` ` ` ` ` ` ` ` ` ` ` ` ` ( o w.g.;X{.g.l.= $ $ $ {..Xg.",
"g.l.:X4X>X5X1X9X5X>X>X;X:XoX-Xl.g.g.g.x.x.x.x.n ` ` ` ` ` ` ` ` ` ` ` ` ` ` ` ` ` ` ` ` ` ` ` ` ` ~ :X>X.X|.|.,X..3.D.F.:.l {.s.",
"g..X>X9X5X1X1X9X0XyX7X5X;X:X:Xl.l.l.g.g.x.f.f.,.` ` ` ` ` ` ` ` ` ` ` ` ` ` ` ` ` ` ` ` ` ` ` ` ` ( <X>XoX:Xp.| F.;.D.D.D.=.B f.",
"g.:X>X>X5X5X9X9XyXyX0X1X-X:X-X].g.g.f.f.x.f.f.z ` ` ` ` ` ` ` ` ` ` ` ` ` ` ` ` ` ` ` ` ` ` ` ` ` ( ;XOXOXh A. .u a F.D.D.D.b s.",
"XXOX>X4X5X9X8XqX6XqX7X9X>X>X-X.X.X.Xg.g.g.g.g.c ` ` ` ` ` ` ` ` ` ` ` ` ` ` ` ` ` ` ` ` ` ` ` ` ` ( :XoXZ G.} N y.G.D.D.D.D.l {.",
">X>X4X5X9X9X6X9X9X@X6X0X9X1X>XOX>X>X<X:X-Xv.x.7.E ` ` ` ` ` ` ` ` ` ` ` ` ` ` ` ` ` ` ` ` ` ` ` ` ( ;X9.a F.B 6Xy.F.D.F.D.>.9.>X",
"oX4X>X5X9X7X1XqX5X1X9X9XqX0X9X9X9X2X9X1X<X:X-X<Xq ` ` ` ` ` ` ` ` ` ` ` ` ` ` ` ` ` ` ` ` ` ` ` ` _ .  .;.h #X5Xy.;.D.D.3.5 >XXX",
".X>X>X4X1X@X5X5X>X5XqX7XyXyXyXqXqXeX9X9X9X1X:XwX].Q ` ` ` ` ` ` ` ` ` ` ` ` ` ` ` ` ` ` ` ` ` ` ` ( 4 i 5 ;X$X5X7Xa D.F.G.7.5X:X",
"OX>X4X>X1XOX5X1X4X$XqXqXyXqXeX0X0X9X9X9X9X9X9X0XvX0 / / ` ` ` ` ` ` ` ` ` ` ` ` ` ` ` ` ` ` ` ` ` ^ . = $XOX7X8X8Xy.%.D.L.].9XOX",
"OX$XoXOXOX6X6XoXoXoX9XqX0X0X0XqXqXyX9X9X9X6X9X0XiXw _ / ` ` ` ` ` ` ` ` ` ` ` ` ` ` ` ` ` ` ` ` ( ,.3X5X5X$X6X6X6X@Xk ;.L.y.OXoX",
"OX5XoXOX5X7X6XoX{.XX1X9XeX9X9X9XuXuXyXqX9XeXyXgXuX3X; / ` ` ` ` ` ` ` ` ` ` ` ` ` ` ` ` ` ` ` W b $X@X@XOXOX$X X$X6X$XB a t >XXX",
"oX$XXX{.OX X X{.{.oXoX@XyX9X1X>XqXyXuXeX9XeXgXeXeXuX=XG ` ` ` ` ` ` ` ` ` ` ` ` ` ` ` ` ` ` ~ 7 6X%X$X X{.k.|.XXOX$X@XOX8.a m XX",
"|..Xj.|.|.|.j.k.{.|.|.OX4X5X4X5XuXuXjXuX2XuXeX9X9XeX# ; W ` ` ` ` ` ` ` ` ` ` ` ` ` ` ` ` ` w %X&X%X#X{.a.r.s.k.|.oX$X$X5X$X X|.",
"XXw.k.{.|.k.j.e.r.j.k.k.l.$X7X9XyXiXjXiXwXeXeX9XwXS Q G . J ~ ` ` ` ` ` / / ` ` ` _ Q ! ` ` E N %X$X{.h.e.r.k.{.|. X$X%X$X@X XoX",
"{.k.a.k.k.l.k.j.e.r.j.l.{.;XOX7XdXyXuXiXiX0XeX9Xw ' ' P * >X= o @ R [ [ ! ~ [ R L o ;Xd.3 ' _ E 8.#X Xh.a.e.r.k.{.XX$X$X@X6X5X>X",
"l.j.a.a.e.h.j.j.e.j.k. XXX@X5XyXyXyXiXyXuXuXwXz ^ ) : @ 4X4X:X-X4X<X-X.XOX>X4X4XOX#XoXoXs.+ 1 ` >  X+X{.e.w.r.j.{. X$X$X5X5X$XOX",
"p.e.j.e.e.j.e.e.e.a.{.}.OXOX6XaXtXjXkXuX0XuXuX2XL ` ` R XX>X>X>X4X>Xv..X:X>XoXOX#X>Xl.k Y ` _ 1 '.}.{.r.r.e.k.r.k.{.oX X X@X Xa.",
"k.oXk.e.r.e.h.j.r.h.l. XOX5XsXsXrXyXkXjXiXiXyX0X=X2 ` ` X * d.9X9X4X.XoXOXoXOXOX>XM Q ! H ` ( L e  X}.{.r.r.{. X{.j.{.}.oXOXXX{.",
"j.|.{.a.e.e.r.h.j.r.k. X|.qXqXqXyXjXyXjXhXyXqX7X. { Y ] ! P ^ [ 6X4X4X4X>X9X6X5X7X6XG / ( { _ ' . @XoX X{.{. X+X Xk. X{.h.}.k.r.",
"e.k.k.j.e.j.k.k.h.k.k.oXoX@XyX5XfXkXkXhXyXyX7XZ 1 ' ' _ ) ` ^ . 5X5X7X#X1X6XyXyXyXyX, ` ` ` O W.!.V.9X3X X X+X%X X$X@X X{.k.a.e.",
"k.k.i.e.0.e.k.|.|.|.k.h.oX@XdXrXdXtXyX6Xb.r m Q.!.8 ` ` ` ` _ 2X5X5X6X7XqXyXuXyXtXl _ ` ` U E.R.5.^.V.R.f 7XaX7X#X X$X#X|.{.{.{.",
"|.h.e.i.e.j.r.|. X X}.{.{. X%XyXtXtXyXn.!././.^.~.J.) ` ` ` / Y 9X5X5X8XrXyXdXtXyXs ` / ` X.~.^.^.^.^.^.^.V &X$X X X XoX|.|.|.|.",
"k.j.i.i.r.k.|.|.|. X|.|.{.}.%XtXfXaXC.!.~.^.^.!.~.!.+._ ` ` ` ` 9X$X6X8XsXdXdXtXdXw / / 3 R.~.^.^.^.^.^.^.r $X#X$X XoX X}.}.{.s.",
"k.k.i.e.h.k.k.h.k.k.{.|.h.{.+X%XtXrXS.^.g (.(.(.r K.Q.: ` ` ` 2 * 7X8XsXyXdXdXdX5.V.B.V.R.B.t (./.^.E.O.^.r %X%X$X X@X XOX}.{.{.",
"|.k.j.j.a.j.e.a.j.e.h.k.r.r.}.+XaXrXN.^.E.T.T.T.Q.^.~.Q.J.H.H.U.X 8XqXyXsXdXhXdXrXb.g W.^.^.!.K.Y.W.V.(.^.C rX&X6X%X@X X@XXXXX;X",
"j.j.u.j.k.k.k.e.k.h.r.h.0.e.r.+X*XrXS.T.N.b.b.O.M.J.^.^./.T.M.W.3X7XrXqXdXjXdXaXB Y.^.V./.!.!.T.N.N.M.M.t +XrX&X%X6X8X1X@X@X9X{.",
"|.k.e.0.w.k.r.j.|.|.e.e.e.e.w.+X+X+X5.O.N.M.M.M.M.M.M.M.= B.g M 9X0XgXyXgXhXhXsXyXC 5.Z.Z.Z.Z.Z.Z.Z.C.M &XrX*X6X6X%X7XyX5XOX5XXX",
"#Xk.a.a.a.k.k.|.#X|.|.h.e.5.'.}.|.#X|.OX5XyXrX5X1X1X1X9X9XqXyXeXqXeXgXsXdXdXgXqXsXfXfXsX8XyXaXfXfXfXdXaXrXtX%X$X$X@X%XqX6XOX5X5X"
};
