/* XPM */
static char *_7859d4914e3422bd06d2ac49bfad158PCes8rctdcL1apce[] = {
/* columns rows colors chars-per-pixel */
"64 64 177 2 ",
"   c None",
".  c #020101",
"X  c #0B0B08",
"o  c #120D0A",
"O  c #1B120D",
"+  c #17150F",
"@  c #1B1A14",
"#  c #2A1E15",
"$  c #251913",
"%  c #25231A",
"&  c #35251A",
"*  c #3C2A1E",
"=  c #2C2C27",
"-  c #333225",
";  c #363529",
":  c #3D3B2E",
">  c #422D21",
",  c #453022",
"<  c #4B3425",
"1  c #453B2C",
"2  c #49372B",
"3  c #503727",
"4  c #533929",
"5  c #5A3E2D",
"6  c #413F31",
"7  c #60382C",
"8  c #5E412E",
"9  c #454232",
"0  c #494836",
"q  c #4C4A38",
"w  c #5C4433",
"e  c #584338",
"r  c #504E3B",
"t  c #54523D",
"y  c #60432F",
"u  c #644532",
"i  c #6B4A35",
"p  c #6D4F3C",
"a  c #6C433E",
"s  c #714E39",
"d  c #65553F",
"f  c #75513A",
"g  c #7B553D",
"h  c #7F583F",
"j  c #545342",
"k  c #5C5B44",
"l  c #5A5743",
"z  c #595957",
"x  c #6A5142",
"c  c #6E5A4B",
"v  c #6C574A",
"b  c #775B48",
"n  c #785B48",
"m  c #636149",
"M  c #6B654C",
"N  c #6C694F",
"B  c #706248",
"V  c #77684E",
"C  c #7A684E",
"Z  c #7D674C",
"A  c #6E6C51",
"S  c #6F6C59",
"D  c #726F53",
"F  c #747255",
"G  c #767458",
"H  c #7E7B5D",
"J  c #7A775A",
"K  c #616160",
"L  c #6C6C6C",
"P  c #706E66",
"I  c #7A7763",
"U  c #7B7A72",
"Y  c #797877",
"T  c #8A241A",
"R  c #93261C",
"E  c #825A41",
"W  c #895E44",
"Q  c #815C50",
"!  c #8C6146",
"~  c #82644F",
"^  c #906347",
"/  c #94664A",
"(  c #97684B",
")  c #9D6C4E",
"_  c #826454",
"`  c #866851",
"'  c #8B6D58",
"]  c #916C55",
"[  c #817D5E",
"{  c #867052",
"}  c #937455",
"|  c #A06E4F",
" . c #A16F50",
".. c #877C69",
"X. c #807F76",
"o. c #847F7C",
"O. c #B06B64",
"+. c #D2756C",
"@. c #D77970",
"#. c #848161",
"$. c #8A8666",
"%. c #8C8967",
"&. c #87846F",
"*. c #8E8A69",
"=. c #978563",
"-. c #938E6C",
";. c #95926E",
":. c #8D8B75",
">. c #8A887B",
",. c #9A9671",
"<. c #9D9973",
"1. c #97957F",
"2. c #9B987A",
"3. c #A29E77",
"4. c #A39F78",
"5. c #AA9F78",
"6. c #A6A27A",
"7. c #AAA57D",
"8. c #AEA87F",
"9. c #DA847C",
"0. c #8D8D8D",
"q. c #908E83",
"w. c #9A988C",
"e. c #939393",
"r. c #9E9E94",
"t. c #AEAA81",
"y. c #A8A587",
"u. c #B2AE83",
"i. c #B0AD88",
"p. c #B6B186",
"a. c #B8B487",
"s. c #BBB589",
"d. c #BDB98B",
"f. c #B6B289",
"g. c #A3A297",
"h. c #B3B19F",
"j. c #AEAEA5",
"k. c #BEBCAD",
"l. c gray69",
"z. c #BABAB6",
"x. c #E68B82",
"c. c #C2BD8E",
"v. c #C2BE92",
"b. c #C6C193",
"n. c #CAC594",
"m. c #CDC897",
"M. c #CFCA99",
"N. c #CCC799",
"B. c #D3CE9B",
"V. c #D6D19E",
"C. c #D8D39F",
"Z. c #D3CEA0",
"A. c #DAD4A1",
"S. c #DED9A3",
"D. c #C7C5B8",
"F. c #CDCBBD",
"G. c #E2DCA6",
"H. c #E4DFA8",
"J. c #E7E2AA",
"K. c #EAE5AC",
"L. c #EDE8AF",
"P. c #EFE9B0",
"I. c #F2ECB2",
"U. c #F7F1B6",
"Y. c #F9F2B7",
"T. c #FDF7BA",
"R. c #CACAC9",
"E. c #D2CFC1",
"W. c #D5D3C5",
"Q. c #D4D4D4",
"!. c #DAD9D4",
"~. c gainsboro",
"^. c #E2E2E2",
"/. c #E9E9E9",
"(. c #FBFBFB",
"). c #FFFFFF",
"_. c #FEFEFE",
/* pixels */
"                                                                                                                                ",
"                                                                                                                                ",
"                                                                                                                                ",
"                                                                                                                                ",
"                                                                                                                                ",
"                                                                                                                                ",
"                                                                                                                                ",
"                                                          t l                                                                   ",
"                                                    . 6.G.I.T.I.t.                                                              ",
"                                                    b.T.T.T.T.T.T.A                                                             ",
"                                                  m U.T.T.T.T.T.T.c.                                                            ",
"                                                  3.T.P.v.i.7.y.2.w.0.                                                          ",
"                                                  8.T.y.).).e.).!./.L                                                           ",
"                                  : G s.;.J       L.T.f.0.0.H h...z                                                             ",
"                                $.T.T.I.H.u.q     T.T.7.T.T.T.T.A.                                                              ",
"                              6.T.T.b.-.B.S.T.A.% S.T.c.T.T.T.T.A.                                                              ",
"                            $.T.T.V.8.n.d.r 3.<.7.#.c.a.T.T.T.T.S.                                                              ",
"                          m T.T.T.T.d.7.I.T.T.C.S.#.G.t T.T.T.T.T.9                                                             ",
"                          s.T.T.T.J.%.T.T.T.T.G.G.H.T.K.F S.T.T.T.9                                                             ",
"                        X T.T.T.T.;.T.T.T.T.T.B.B.T.T.T.Y.d.T.T.T.-                                                             ",
"                        4.T.T.T.T.-.T.S.:.@ = :.I.T.T.T.T.n.*.T.T.t                                                             ",
"                        #.T.T.T.T.-.A.z ^.0.Q.G T.T.T.T.T.T.a.C.T.9                                                             ",
"                        #.T.T.T.T.q z.).).(.w.T.T.T.T.T.T.T.L.6.B.                                                              ",
"                        m.T.T.T.T.F /.).).R.b.T.T.T.T.T.T.T.T.,.;                                                               ",
"                      -.T.T.T.T.T.I.:.(.l.t.Y.T.T.T.T.T.T.T.T.,.                                                                ",
"                      J.T.T.T.T.c.A.L.A i.T.T.T.T.T.T.T.T.T.T.%.                                                                ",
"                      T.T.T.T.T.Y.b.$.d.U.T.T.T.T.T.T.T.T.T.T.N                                                                 ",
"                      n.T.T.T.T.T.T.I.$.G.T.T.T.T.T.T.c.. n.T.A                                                                 ",
"                        d.T.T.T.T.T.e x.n Y.B.n.T.T.T.T.T.T.J.                                                                  ",
"                        n.T.T.T.T.u.O.x.9.Q %.,.c.u.T.T.T.T.#.                                                                  ",
"                        T.T.T.T.T.T._ x.x.+.7 ,.T.7.I.T.I.#.                                    t -.j -                         ",
"                        T.T.T.T.T.T.n.a @.R R ,.T.n.P.B.6                                   r b.T.T.T.L.M.;.                    ",
"                        T.T.T.T.T.T.T.B.s T R H T.L.6.l                                   N T.T.T.T.T.T.T.Y.#.                  ",
"            - H H -     T.H 4.T.T.T.T.T.L.C 2 t I.T.T.                                  J.I.T.T.T.T.T.T.T.T.T.d.                ",
"      A n.G.n.n.p.n.#.- #.T.T.T.T.J.J.V.T.T.T.M.L.K.0             t -.u.u.t.          ,.T.T.T.T.T.T.T.T.T.H ;.T.#.              ",
"    %.T.d.v.Y.Y.U.Y.Y.Y.H u.T.T.A.p.n.Y.T.T.T.T.T.F             m P.T.T.T.T.Y.A     : T.T.T.T.T.T.T.T.T.T.T.Y.T.T.;             ",
"  = K.T.T.T.T.T.T.T.T.T.T.d.$.I.G.p.6.T.T.T.T.U.l             #.T.T.T.T.T.T.T.U.*.9 A.T.T.T.T.T.T.T.T.T.T.T.T.T.T.S.D           ",
"  J.T.T.T.V.3.T.T.T.T.T.T.T.K.k I.*.u.T.T.T.Y.-.3 5 $ O O O % S.T.T.T.T.T.T.T.T.T.F I.T.T.T.T.T.T.T.T.T.T.T.Y.Y.T.T.T.0         ",
"  J.T.T.T.p.c.T.T.T.T.T.T.T.T.L.*.*.,.T.T.Y.[ E  . . . . .E ,.T.T.T.T.T.T.T.T.T.T.J.F T.T.T.T.T.T.T.T.T.T.m.7.L.T.T.T.d.:       ",
"  J.T.T.T.T.T.T.T.T.T.T.T.T.T.T.S.B.6.Y.T.n.` p c c c c ~ w T.T.T.T.T.T.T.T.T.T.T.K.u.,.T.T.T.T.T.T.T.T.J.G T.T.T.T.T.T.[ z..   ",
"  s.T.T.T.T.T.T.T.T.T.T.T.T.T.T.K.$.v.n.;.q.g.U W.W.W.W.D.t.T.T.T.T.T.T.#.D L.T.T.K.#.4.T.T.T.T.T.T.T.T.$.T.T.T.T.T.T.T.#.)..   ",
"  1 V.T.T.T.T.T.T.T.T.T.T.T.T.T.B.c.M.j X.U >.W.W.W.W.W.W.b.T.3.T.T.T.,.t.I.G.T.T.T.T.V.7.T.T.T.T.T.T.3.u i 5 5.Y.T.T.T.[ Y     ",
"o W Z Y.T.T.T.T.T.T.T.T.T.T.T.T.Z.k.F.F.F.E.W.W.W.W.W.W.W.n.T.3.T.T.T.U.U.T.T.T.T.T.T.T.q T.T.T.T.T.M.g  . . .E 4.T.T.b.+       ",
"* g u C 8.G.T.T.;.6.T.T.T.T.T.J.&.F.W.W.W.W.W.W.W.W.W.W.P T.T.a.J.T.T.T.T.T.T.T.T.T.T.T.a.7.c.c.c.c.V g s g g s 9 a.t.          ",
"& ) s 3 ) 3 M [ [ 7.Y.Y.Y.Y.Y.S E.E.E.E.E.E.E.E.E.W.W.W.I T.T.T.3.T.T.T.T.T.T.T.T.T.T.T.Y.}  .) ) ) )  . . .) * )               ",
"  ^  .^ i i i  . ./ E E E E E b 2 E E E E E E * f n ' ' d =.=.=.M T.T.T.T.T.T.T.T.T.T.T.T.{  .f i 4 3 ) g s i / g               ",
"  u  . . . .E < 8 i / ^ / ) ) <  . . . . . .E E  . . . . . . . .b I.T.T.I.K.K.K.H.7.-.A H k i  ./ / 5 * g W ,  .y               ",
"  o ^  . .| ! f < 5 3 E W u u u u u ^  . . .i  . . . . . . . . .! d.T.T.-.A.A.<.u.%.3.J j.!.Y < f ! s < g E )  .>               ",
"    i  . . . . . . .E 5 u g ! ^  . .u u 5 u 4 3 E ! ! ! h ! ! ! ! 1 J.T.v.y.1.N.S ^.).e.~.).!.]  . . . . . .) ) &               ",
"    5  .s  . . . . . . . .) / )  . . . . . . . .( / / / < 3 f / / ! B b.r.).(.!.K ).).o.e v x )  . . . . . .5 ^                 ",
"    * ) i E  . . . . . . . . . . . . . . . . . . . . . . . .3 f E ! ( W _ ..x w p x w W  . . . . . . . . .) f g                 ",
"      #  .5  . . . . . . . . . . . . . . . . . . . . . . . .) ) ) )  . . . . . . . . . . . . . . . . . . .5 ^ .                 ",
"        ! f E  . . . . . . . . . . . . . . . . . . .4 W  . . . . . . . . . . . . . . . . . . . . . . . ./ , 3                   ",
"        8 ) 8 )  . . . . . . . . . . . . . . . . . . .5 f ( ( )  . . . . . . . . . . . . . . . . . . . .g (                     ",
"          s E i  . . . . . . . . . . . . . . . . . . . .E * u i !  . . . . . . . . . . . . . . . . . . . .>                     ",
"            E  . . . . . . . . . . . . . . . . . . . . . . .u u W  . . . . . . . . . . . . . . . . . . .g                       ",
"            >  . . . . . . . . . . . . . . . . . . . . . . . . . . . . . . . . . . . . . . . . . . . .E                         ",
"              * )  . . . .) W  . . . . . . . . . . . . . . . . . . . . . . . . . . . . . . . . . . .E &                         ",
"                & W  . . .) 8  . . . . . . . . . . . . . . . . . . . . . . . . . . . . . . . . . .E #                           ",
"                  # g  . . .f f  . . . . . . . . . . . . . . . . . . . . . . . . . . . . . . . .u                               ",
"                      > )  . .E i  . . . . . . . . . . . . . . . . . . . . . . . . . . . . . .<                                 ",
"                          3 !  . . . . . . . . . . . . . . . . . . . . . . . . . . . . . .^ <                                   ",
"                              8 / / / / / / / / / / / / / / / / / / / / / / / / / / / ^ ^                                       ",
"                                                                                                                                "
};
