/* XPM */
static char *d108169511f4475eea84405ceed4f17cDaT8J2PzOUZQx3kn[] = {
/* columns rows colors chars-per-pixel */
"64 64 186 2 ",
"   c None",
".  c #030300",
"X  c #1F0202",
"o  c #120B01",
"O  c #1A1101",
"+  c #1A1A00",
"@  c #2C0202",
"#  c #280B03",
"$  c #3D0505",
"%  c #370404",
"&  c #241602",
"*  c #2A1C03",
"=  c #271804",
"-  c #2A2900",
";  c #3C2605",
":  c #3F2906",
">  c #332105",
",  c #393800",
"<  c #372D1D",
"1  c #313131",
"2  c #440303",
"3  c #4B0606",
"4  c #4F0B06",
"5  c #540606",
"6  c #5B0707",
"7  c #5A0A07",
"8  c #4E1D06",
"9  c #5C1107",
"0  c #6B0808",
"q  c #660606",
"w  c #740808",
"e  c #7B0909",
"r  c #700707",
"t  c #631A07",
"y  c #681308",
"u  c #442C05",
"i  c #482404",
"p  c #5A2007",
"a  c #4E3206",
"s  c #45310E",
"d  c #523506",
"f  c #5C3B06",
"g  c #672407",
"h  c #702108",
"j  c #633F07",
"k  c #6E3308",
"l  c #623E08",
"z  c #743D08",
"x  c #773709",
"c  c #6A3712",
"v  c #474500",
"b  c #535000",
"n  c #5E451E",
"m  c #574601",
"M  c #664207",
"N  c #694307",
"B  c #664208",
"V  c #6D4608",
"C  c #754B09",
"Z  c #7A4E0A",
"A  c #7C4509",
"S  c #605D00",
"D  c #7E5109",
"F  c #734F18",
"G  c #7F591B",
"H  c #6D4C17",
"J  c #686500",
"K  c #706C00",
"L  c #787400",
"P  c #777300",
"I  c #584528",
"U  c #695534",
"Y  c #685433",
"T  c #735A33",
"R  c #7A623C",
"E  c #747068",
"W  c #747474",
"Q  c #830909",
"!  c #8C0A0A",
"~  c #930B0B",
"^  c #9C0B0B",
"/  c #84160A",
"(  c #94180B",
")  c #A50C0C",
"_  c #AB0C0C",
"`  c #B30D0D",
"'  c #BC0E0E",
"]  c #B10606",
"[  c #A8170C",
"{  c #B4170D",
"}  c #88270C",
"|  c #992D0B",
" . c #8A3109",
".. c #982210",
"X. c #95390B",
"o. c #A4300B",
"O. c #AD290F",
"+. c #C40E0E",
"@. c #CC0E0E",
"#. c #D30F0F",
"$. c #DA0F0F",
"%. c #C8120F",
"&. c #DA120F",
"*. c #D1180F",
"=. c #DC1010",
"-. c #D41310",
";. c #E41010",
":. c #EB1111",
">. c #F31111",
",. c #FF1212",
"<. c #C1220E",
"1. c #8D4808",
"2. c #835409",
"3. c #8A550A",
"4. c #8D5A0A",
"5. c #965A0B",
"6. c #924117",
"7. c #8A4F19",
"8. c #97610B",
"9. c #9B640B",
"0. c #817C00",
"q. c #886A1F",
"w. c #936112",
"e. c #A56A0C",
"r. c #AB6D0C",
"t. c #A76308",
"y. c #AE700C",
"u. c #B4730D",
"i. c #BD790D",
"p. c #B9760D",
"a. c #AF771E",
"s. c #A26B14",
"d. c #906724",
"f. c #C47D0E",
"g. c #C3770D",
"h. c #C27525",
"j. c #8C7249",
"k. c #907446",
"l. c #9B7C4C",
"z. c #888400",
"x. c #8A8600",
"c. c #938E00",
"v. c #9A9500",
"b. c #9E9900",
"n. c #959000",
"m. c #A08B01",
"M. c #A39D00",
"N. c #AAA400",
"B. c #B3AD00",
"V. c #BAA701",
"C. c #B9B300",
"Z. c #BFB900",
"A. c #B6B000",
"S. c #C7800E",
"D. c #CB820E",
"F. c #C88111",
"G. c #C58011",
"H. c #C2BC00",
"J. c #D3902C",
"K. c #DDBA36",
"L. c #E1BE37",
"P. c #CDC700",
"I. c #CBC400",
"U. c #D2CB00",
"Y. c #D7D000",
"T. c #DBD500",
"R. c #E5DD00",
"E. c #ECE400",
"W. c #F0E800",
"Q. c #E9C439",
"!. c #F6CF3C",
"~. c #FFD73E",
"^. c #9F804E",
"/. c #AD8A52",
"(. c #908573",
"). c #C19A5D",
"_. c #EABC72",
"`. c #EABA6E",
"'. c #EFC075",
"]. c #F8C779",
"[. c #F2C276",
"{. c #8E8E8E",
"}. c #BBBBB9",
"|. c #EBD8B9",
" X c #C5C5C5",
".X c gainsboro",
/* pixels */
"                                                                                                                                ",
"                                                                      W 1       {. X                                            ",
"                                                                d      X(.M 5.I }..X<   C                                       ",
"                                                                2.f.N G.f.i.; D.G.Z ; y.|.1                                     ",
"                                                                  C 2.d u.S.i.Z f.9.& d.1                                       ",
"                                                                    = N S.4.u f.D.3.D.                                          ",
"                                                                      u.f.N j.l S.C S.                                          ",
"                                                                  I R Y w.H }.(.S.u.D.                                          ",
"                                                                Y [.].].).: E k.e.S.S.                                          ",
"                                                                k.]._.].k.^.u.D.u.D D.                                          ",
"                                                                < '.k.].R `.r.D.S.C S.M                                         ",
"                                                                Y ].).].].`.s.D.D.e.f.B                                         ",
"                                                                ^.].|.[.[.`.a.D.D.e.f.N                                         ",
"                                                                Y [./.].].G p.D.4.9.S.N                                         ",
"                                                                  l.Y T n e.D.D.D.D.u.k                                         ",
"                                                                    $ e.u.D.D.D.D.e.( :.~                                       ",
"                                                                : x ( f.S.S.r.u.D.X.>.,._ d                                     ",
"                                                              V 8 q e.D.u.C 9.f.4.%.,.,.8 D.u.                                  ",
"                                                            d g @.5.D.D.i.D.D.S.| ,.,.%.y.S.D.Z                                 ",
"                                                          j 5.$.| f.D.: D.D.S.r.*.,.,. .D.S.D.D.C                               ",
"                                                        * A ` :.2.D.9.u.D.D.D.x >.,.,.4.D.D.D.D.S.2.                            ",
"                                                      > p.` ,.h f.D.2.f.D.D.f._ ,.,.! y.D.D.D.D.D.F.C                           ",
"                                                    * 2.( ,.;.5.D.S.3.f.D.D.A ,.,.,.! S.D.D.D.D.D.D.i.:                         ",
"                                                  ; g.o.,.,.*.u.D.f.5.D.D.f.| ,.,.,./ D.S.y.D.D.D.D.D.e.                        ",
"                                                  9.2.@.,.,.9 D.D.2.f.S.D.f.{ ,.,.,.x D.f.e.D.D.D.D.D.D.i..                     ",
"                                                D f.t ,.,.;.2.D.S.2.D.D.D.g.{ 7.q.@.z f.f.9.D.D.D.D.D.D.f.e.                    ",
"                                                y.9.s / ,.O.F.F.D.S.D.D.D.f.q !.~.Q 5.S.f.2.D.D.D.D.D.D.S.D.B                   ",
"                                              u y.q.~.h.,.} D.F.D.D.D.D.e.p G ~.~.c 5.F.D.2.i.f.D.D.D.D.D.D.2.                  ",
"                                              u D ~.~.h.>.! 9.F.S.S.S.8./ e J.~.~.5 3 y.D.D.a D.D.D.D.D.D.D.4.                  ",
"                                              : u ~.K.[ ` =.[ 1.D.u. .` ` 0 J.~.Q.Q >.o.y.D.e.5.D.D.D.D.D.D.D.                  ",
"                                                4 Q.q.,.3 _ ,.,.~ ~ ,.;._ Q 6.Q.F ' =.,.i S.S.V e.D.D.D.D.D.D.                  ",
"                                              q ;...-.@.=.+.! ,.,.,.>.@.:.! ;.O.;.@.5 ;.:.k 2.k  .D.D.D.D.D.D.a                 ",
"                                              ,.,.,.,.) ,.,.@.;.,.,.,.,.,.e ,.,.,.@.>.! ,.,.,.,.{ r.F.D.D.D.D.*                 ",
"                                              $.,.,.,.^ ,.,.,.,.,.,.,.,.,.e &.,.,._ >.>.,.,.,.,.>.y D.D.D.D.Z                   ",
"                                              3 ' ' ~ :.,.,.,.,.,.,.,.,.,.>.+.` ` ;.,.,.,.,.,.,.>.t D.D.S.3.                    ",
"                                                $.>.,.,.,.,.,.,.,.,.,.,.,.,.,.,.,.,.,.,.,.,.,.,.,.q u.D.M                       ",
"                                                ;.,.,.,.,.,.,.,.,.,.,.,.,.,.,.,.,.,.,.,.,.,.,.,.,.,.#               B N >       ",
"                                                >.,.,.,.,.,.,.,.,.,.,.,.,.,.,.,.,.,.,.,.,.,.,.,.,.,.            l D.S.D.S.d     ",
"                                              6 ,.,.,.,.,.,.,.,.,.,.,.,.,.,.,.,.,.,.,.,.,.,.,.,.,.,.          Z S.e.D.D.S.9.    ",
"                                                ;.,.,.,.,.,.,.,.,.,.,.,.,.,.,.,.,.,.,.,.,.,.,.,.,.,.        e.9.O N D.D.D.D.&   ",
"                                                ;.,.,.,.,.,.,.,.,.,.,.,.,.,.,.,.,.,.,.,.,.,.,.,.,.,.      u.2.    f.D.D.D.D.O   ",
"                                                -.,.,.,.,.,.,.,.,.,.,.,.,.,.,.,.,.,.,.,.,.,.,.,.,.,.    Z y.      S.D.D.D.9.    ",
"                                                Q ,.,.,.,.,.,.,.,.,.,.,.,.,.,.,.,.,.,.,.,.,.,.,.,.,.9 5.f.o       r.D.D.S.f     ",
"                                                  +.,.,.,.,.,.,.,.,.,.,.,.,.,.,.,.,.,.,.,.,.,.,.,.,.u V a         N S.D.S.      ",
"                                                  Q ,.,.,.,.,.,.,.,.,.,.,.,.,.,.,.,.,.,.,.,.,.,.,.,.8 .             i.D.S.      ",
"                                                  5 >.,.,.,.,.,.,.,.,.,.,.,.,.,.,.,.,.,.,.,.,.,.=.w                 & 9.D.      ",
"                                                    w >.,.,.,.,.,.,.,.,.,.,.,.,.,.,.,.,.,.,.,.+.4                       2.d     ",
"                                                      ~ ,.,.,.,.,.,.,.,.,.,.,.,.,.,.,.,.,.,.:.3                           f     ",
"                                                    2 2 @.>.,.,.,.,.,.,.,.,.,.,.,.,.,.,.,.,.3                                   ",
"                                                    +.r X r ,.,.,.,.,.,.,.,.,.,.,.,.^ +.,.,.@.                                  ",
"                                                5 @.,.] @     Q e ` ' ' +.@.' ) ~ 6     ~ :.:._                                 ",
"                                              @ ;.$.Q %                                   5 ! :.w                               ",
"                                                ! ;.,.^                               2 ' >.:.Q                                 ",
"                                                  Q >.,.X @                         ' %.' >.:.w                                 ",
"                                                q @.+.~ _ @.-.e                     ) ,.#.' :.+.i                               ",
"                                                o.;.,.:.@.,.>.$                     % ,.,.>.i x.P.x.                            ",
"                                        0., - T.R.1.>.,.,.,.=.                      >.,.,.^ U.U.Z.W.M.I.K                       ",
"                                      L T.E.W.W.W.V.&.,.,.,.>.!                     >.,.,.t.W.W.E.W.W.W.T.,                     ",
"                                    S E.W.W.W.W.W.E.m ,.,.,.,.,.                  5 >.,.7 U.W.E.W.W.W.W.W.L                     ",
"                                    c.W.A.A.C.B.v.B.Y. .;.,.>.[ -                 M.n.m.U.P.B.B.A.E.N.U.W.L                     ",
"                                    N.W.E.E.W.W.E.E.W.W.B.L 0.T.P                 b v P.W.W.W.E.T.0.E.E.E..                     ",
"                                    z.U.H.v.N.v.Z.P.W.W.U.U.Z.b.                  C.W.B.W.W.E.C.Z.Z.Z.z.K                       ",
"                                      M.T.T.T.T.T.T.T.H.. T.n.+                     K L L L L L L L b                           ",
"                                                                                                                                "
};
