/* XPM */
static char *result[] = {
/* columns rows colors chars-per-pixel */
"64 64 96 2 ",
"   c #648D47",
".  c #658D4A",
"X  c #688F4C",
"o  c #67914A",
"O  c #6C944D",
"+  c #6F994F",
"@  c #719647",
"#  c #72974D",
"$  c #739A4E",
"%  c #799D4E",
"&  c #658F50",
"*  c #6E9651",
"=  c #6F9852",
"-  c #709653",
";  c #749C53",
":  c #7B9E53",
">  c #759758",
",  c #759C5B",
"<  c #799E5A",
"1  c #79A04F",
"2  c #77A053",
"3  c #7DA154",
"4  c #76A058",
"5  c #7CA25B",
"6  c #779F61",
"7  c #7B9F60",
"8  c #7DA362",
"9  c #809F52",
"0  c #83A54F",
"q  c #82A455",
"w  c #88A755",
"e  c #86A956",
"r  c #8AAA56",
"t  c #83A55B",
"y  c #89A75C",
"u  c #85A95C",
"i  c #8BAB5C",
"p  c #92AC54",
"a  c #91AE5C",
"s  c #8FB15D",
"d  c #94B25D",
"f  c #9AB55D",
"g  c #9EB85F",
"h  c #A1B95E",
"j  c #83A662",
"k  c #89A763",
"l  c #86A963",
"z  c #8CAD62",
"x  c #84A76A",
"c  c #8DAD6A",
"v  c #91AE63",
"b  c #91AF6B",
"n  c #8EB163",
"m  c #8EB16A",
"M  c #94B364",
"N  c #9AB663",
"B  c #97B867",
"V  c #9DB965",
"C  c #94B36A",
"Z  c #9AB66B",
"A  c #97B869",
"S  c #9DB96B",
"D  c #90AE70",
"F  c #95B471",
"G  c #9AB672",
"H  c #9DB973",
"J  c #9AB679",
"K  c #9DBA7A",
"L  c #A3BC64",
"P  c #A9BF65",
"I  c #A0B66B",
"U  c #A2BD6B",
"Y  c #A8BF6E",
"T  c #A3BD72",
"R  c #A8BF72",
"E  c #A3BD79",
"W  c #A5C164",
"Q  c #ABC266",
"!  c #A6C16D",
"~  c #ABC26C",
"^  c #B2C667",
"/  c #B2C66A",
"(  c #B4C86B",
")  c #B9CB6D",
"_  c #A6C072",
"`  c #ABC373",
"'  c #A7C17B",
"]  c #ABC27C",
"[  c #B1C776",
"{  c #B8C772",
"}  c #B2C973",
"|  c #B1C77B",
" . c #B1C87B",
".. c #ACC581",
"X. c #AEC881",
"o. c #B3C881",
/* pixels */
"i i < : ; 3 3 e a t : 9 % X 9 y v 9 i y N N L M N f a V U V U U ! U ! ! ! ~ ! S ` ` Y U L I ! W W Q P W h L L g d d V V s i s s ",
"B M u $ : q : u i k # : 9 - > k y y y y a a N L a L I N M i ! U ! ! ! ~ _ ! L U V I L V V L L V L L P Q ! L V V f f f N f d f N ",
"L V M 3 t y y k C y > > 9 > < 9 z z e 5 y i i a M V d y M s V ! U ! ! ~ ` U U V B L L U I L L V L h ! h W L N V d s r s d d d N ",
"B U d i v v v v v y k j X   > # # ; - * ; 5 t t w V d s i s M ! ! ! ! ~ ! U V V B N L V N V V V L h L L N d f L d f s r d d s s ",
"L ! U L v v v v C z k k j > > - o & o o + 4 5 5 i d i i n B N B U S U ! L V S B d B B N d N L L V g g L W f W W f d d r s r r f ",
"L L N N v z z c b b b j k j < - * o . * 4 5 3 e M M B i N N N ! S U S V L B N C z z M M i M d N N f f L L V W L d d u e e e d g ",
"M N a v I b y c j j c D > 6 - - = = = 4 5 u u B N L N d S M B U S S U S d C B B z i k i C z u i d N f N f N g f d r u r r d d d ",
"d N y i G k y F x 7 x x - & * ; = = + = 4 3 u M B B B V U S U I S S S S N B B c i z i M M i u i d N f a s f f N r r r M d s i r ",
"y i y t b D 9 D x j k x > 6 & > = O o = = = i n i s S ! V S ! ! B V S T Z B B B z j m C M z u i i d d M i f f a s d f d r r r r ",
"r w t t b x c k F D x 7 6 > < < 4 = = = 4 5 n 5 u u B L V ! V V V V M M M B a z i k l z n t t t i v n i r d i i p d a a r q s r ",
"d a y t b 9 j D k 9 x j 6 8 8 5 4 = 4 2 4 5 z i n i V N V U U B V B i n M Z c y u l z c y t t < u u q 3 q i i i r i r d d p d d ",
"a M y v b k j x j j j < 6 8 8 5 5 4 4 5 5 i u m n N B S V W W U B V M n S Z n u j l m c j l t 5 < ; 3 $ ; q e w 3 s d g V V V d ",
"I V Z v C C v 9 = ; t 5 , 8 5 8 4 5 5 4 5 u n s B V V V U L W W U U U U I B z y u l i l t j t - O O . . ; % 3 3 e w d p a a M a ",
"b Z R I v C v t > + 3 4 = = 5 4 4 4 3 4 e 5 i M M B I V ! W S B ! ! U V N d i e t t i t 5 j < *     . X O O $ 3 e r a d a w i a ",
"Z a ` T S C i y 5 3 5 5 4 5 8 5 4 2 2 4 5 5 n n B V N V W B g V N V V L V d i t 3 < t t 5 5 - O O . . X O O O % q w r r d s w i ",
"Z U Y C i v v C u l 5 8 u n i 5 4 4 4 5 8 s n n f B V V V V B B M N V B d d i t t q t < 5 : - O O X     O O : % q q w q e w y N ",
"V I Z I V S M d z u 5 l l n u 5 5 4 5 8 u n n B N V V S V B g B M d N V N a i e t 9 y y j * O - * O ; : : # $ ; : % % % e q r N ",
"d ` ` L S U S M n z n i n n n u 3 5 u 5 u s n n B W V L L f V B N M B I L C a i z z v y k : ; ; - + 3 3 9 : # ; % 3 ; # : e r d ",
"N U Y I V S S S S S H C M v i i z n n z s 8 n n B V B M B V B B B d N V V M v B b v M M n j , - : ; 3 t y q q $ # % % % q i y v ",
"N I R ` _ ` _ _ T S ! U B B M n n n i n n n n n d B B g V V g s B M N V N a i N V N C B a b y 9 q q 3 t y q q q % ; % 3 q y M a ",
"Z V I U _ ` ` R ! _ ` _ S B B B B n n n m n 8 s n M B B V f s M f V N d z i v v C C V N N y k z 9 t % : q q : q : # : q i i N V ",
"v M S I ! ` ` I ! ` ` T B C M B B n B B n m n s n s m M B B B f N N N s i a N S V a v v k k 9 t q < : : q q 9 t : $ : t i u i C ",
"a d L T R ! ` ` ! ! ` S n z M B s n n u n n n n n M B B f g N N N L L V C M V L I N N C y 9 9 j : : # : t q : : 9 < q u i t p a ",
"C V N B ` ` ` ` I U S B M n n M n u u l u n n n n M d B B M N L V L W ! Y U I I f v I I G < j 9 : 9 < 9 9 t t t t t q u i q w v ",
"a z a C S U T _ U S C M n M u l u 5 u u n M M M M M i M M B L ! U ! ! U ` ` ! L N v S C Z v 9 c k 9 t t 9 9 q t y q y t u q : a ",
"i i a C S S S S U S A n M u u u 5 u u i i i z n B M c n C S ! U U U U S _ _ R U Z C F T Z Z c c k y t t t q q i i t t t t q t t ",
"y i i v U I U T Z M B M n z 5 3 3 3 5 5 t k c z c C C V ! Y ! ! L U U U U U R R R T ] ] Z v Z Z < : q y : 9 q 3 q t 9 q t q t q ",
"v z z v C S S S C M M M M i 3 t 3 4 5 5 l l k j l c C T ! U ` U I S U S U U Y R E R | R Z v v G y 9 q t q e e 1 t % q q q q q < ",
"k k k i M C H S C M c v B z t 4 4 4 - 8 5 j l l l c C C Z C B S Z U T R T R U U T Z R | E I I y i a i w r e e i q 0 w y a t t t ",
"j z c M c C C Z C M Z M z i t t 5 5 8 6 ; < , , 5 z m l c B S S V R T I R T T E [ [ o.o.R T B d Z V N a w q e w e a y r a q q 9 ",
"j k z z c C v C c b Z v c l 5 t j < , < * - < 5 j k j c n C _ ` T S T E I S T R I R  .] R U S C V V V y q : q w e e q w y e t < ",
"y l l c M C Z C C M B M z y 5 < < 5 , < , < > , 6 8 j c c Z S H H U U E C T E E C S ' E T H S S V f d u u 3 q q q q q q q : q t ",
"z z k u z b C C C B Z i k l 5 < < t < < j < , 7 j x l c c m C F b C G E E T b E E S T Z H U S S B d N M i t 3 : 3 q e : t < t t ",
"z z z c z C z C C C v k y y x t < , < ; < 7 6 8 j l j m j t c c F E ] I E E I T X.H C C Z H U V V I L B 3 : % % < q < q t ; e t ",
"z z M c b i i M z v i i t t t j > > , , , 7 7 j j < 4 5 5 j c c F K E T E R E E ' C m M C S ! V L I S V u < : < : t ; < e < t t ",
"t z B v z z z M z i y t t t k 5 8 = > > < 6 6 , t j 5 8 5 l l l F D F E ..E ..R _ Z C C A S ! L L L B B z t < ; ; 9 ; 3 q t 5 < ",
"< t u k z z c i z i u y u t 5 < 5 , , , 7 8 6 6 j j 5 < j z l C E J K E ..R J I Z Z G Z B M I L M M M i j u t 3 5 3 q 3 < t t ; ",
"< 4 u n M M z C b v z i k y 8 5 , , < 4 6 , 6 6 , 5 5 j u c C J F F E I ] E G I T S T T V V B B N i l i t u t t u q t 3 t t t ; ",
", t z b M z v C U U Z C k k j 8 < 5 4 < 6 , , , j j j j c z C F G I E T E G T I _ ! _ T U C B L N i n z t s z i u u t t y i q ; ",
"4 u c z N M M Z I U B v j j j 8 5 < , , 6 > 6 8 x z l k c C E K I E I E I E E I S H G C Z M i B B a z i i f N i s s u 3 3 t t : ",
"t i z M z B V Z N S V C a k y 9 t t 5 6 < < 6 j l c c F F G C E I E D G F H G H T H A C C A C M n M i e i f f f M d t 5 e i t 3 ",
"i z v M C C Z C C v C Z C v i i k k k t j < 6 5 8 b c x J F K D E J C b F F Z C A H A M C C C C n n i i f f M N N i i t t k i i ",
"l n i n C C N C C i b Z B Z Z C B v C v z z t c l F D c K E J G E J G b F m C C n n C M M B B M M i 3 i d i s M N d M i i C z u ",
"t k n z M a M N i C V C I L U Z S H C C v z x F F J K J H E K J b c D c m m G Z m C A C d M V B M n u i i n M M f B B v i z m u ",
"i i z n a a v v n a S U I S Z Z Z Z C C C B C C ..K z C K F m m c j m m m n m c M M M M f N V N d N d d d d B V N N B d i b z i ",
"i i u i i Z M i u u C B S S G S S I V C M B Z I S K J m E F n z l 8 8 m l l u z z B d M f f g V d d d d d d N N N d d d i i i i ",
"i M i e i N N i q q d M Z B M C S U U B B Z T R ' G F C S m n m l j j l 8 l 5 u i M d d V f g f d f d d i i d i d N d y i i i t ",
"i d i 3 s i w q q t u M I C v c S H ' S M H E T H ' G G m C m 8 5 8 5 5 5 j l u i a M d f N g g B N d r q 3 q i i d a a M a i t ",
"u q , q u q 3 3 3 u e z M n c C T H | T n E G C M ' C z l m 5 8 8 8 8 5 j l 5 t i i e d f d g g g f s e % ; % 3 e i d d f f w e ",
"q $ 4 q e 3 % % 1 : 3 3 3 M B d R T _ ' C E H M G H n z n j l u n l 8 8 z z z l i i i i d d d d f d 0 1 $ : 3 3 w i i d a a i u ",
"3 3 $ 3 3 1 3 2 $ 2 1 3 t i i B ! U R R T C H G H Z n z z i u l m 8 j j n M z i i n u u i e d d d f r 1 $ $ 1 3 3 w i d a M d z ",
"3 , 3 % 2 1 2 $ ; % 3 e t a C L ! I R Z T ' C C n C M n n n l 5 z m l 5 i z n M i i e q r i i d i i d q $ $ % 3 q a f d a N M i ",
"; ; 2 % ; 2 1 ; + 1 q w i y N L P Y | T Z T R Z n c n M n n M n n n l 5 l i i i i z u i a r p p r r 0 1 $ % 3 1 2 3 r e i i w 3 ",
"2 u 3 % 1 + 1 $ 1 3 3 r a C ! ` N U [  .` T S Z M M n B n M B C n n u u i l u u d i i d a p d f i p 0 0 % $ q e 3 3 3 q w i i 3 ",
"% 3 u 2 + + 1 1 1 $ 1 w i S V I ! } ! ` _ Z V B M A A B M M C B S n s n a M N C N N V V f f f f f r r p q 0 i s r q i e 3 q 3 % ",
"% 3 3 2 1 2 3 e 1 3 3 u u i ! d ` [ [ [ U U d N B M M n n M M s n M M s M V I U L U ` ! L h L h h f f f i i f f i d d i 3 % % $ ",
"e 3 2 + O + 1 r e q q % u a ! L { U L N V i c M 5 l n n i z M C M M B L Z U R U U ~ } P W Q P P Q Q h h f f g V i w B s r 1 q e ",
"e 1 + + 1 2 1 e r i e q q i f L h Y P I a N i i 5 u u i n M z M B M d N V U ~ L P ~ / W / / ^ P ^ ^ Q P f W W f i r r r q r w e ",
"3 2 = + 1 3 3 e r r q w e r f W / P W L N a y e e i z n z M n C M s M B U ~ Q L ~ / Q P / ( ^ / ^ Q Q Q h f f r d w w r q w q : ",
"3 2 + 2 1 3 e 3 3 r 1 r 9 q f p L L h h d a y i u i q t c n M b M B V L ! ! U P / ( ^ ( ( ( / ^ ( Q Q P h f f d d r i r a w q : ",
"e 3 2 = 3 ; $ ; 3 % % 3 $ $ 0 p h P Q h V d d w u u u u i y C M B Z V U ` ` } P } ( / ( ( ( ) ) ( ^ P h f f L L f N f r a y i i ",
"4 3 $ = : 3 3 ; q $ % 3 O # % f h h h f d f d i s M M n C M M M Z M L Z ! } ~ I Q ` ` { ( / Q ( ^ ^ h h f f h h N d N V a a v t ",
"u 2 + O # q % < q q $ @ # # % p d f p d g V N d d d M B M N B Z C Z U U ! } ` ! L ! ` ( ! L Q ( ( ( ^ h P P f f f d N I i v b y ",
"i u % ; ; : 3 e a e w q @ @ 9 w 0 r r r f V V a d d d V N B V ! S I R U ! ! _ S U [ / ! L U ! Q Q / ^ Q L L N d d d d U B e z a "
};
