/* XPM */
static char *result[] = {
/* columns rows colors chars-per-pixel */
"64 64 244 2 ",
"   c #1A0600",
".  c #0A1102",
"X  c #1A1702",
"o  c #380400",
"O  c #251500",
"+  c #2F1002",
"@  c #1F2E0A",
"#  c #252600",
"$  c #382605",
"%  c #2B310E",
"&  c #2B3C19",
"*  c #343B16",
"=  c #450301",
"-  c #560602",
";  c #491B00",
":  c #581507",
">  c #640100",
",  c #680603",
"<  c #760704",
"1  c #711608",
"2  c #492702",
"3  c #572C00",
"4  c #583805",
"5  c #513115",
"6  c #692703",
"7  c #782B08",
"8  c #663B00",
"9  c #783013",
"0  c #5B3E22",
"q  c #3B410D",
"w  c #3D4927",
"e  c #494702",
"r  c #53470B",
"t  c #4A4C1D",
"y  c #5E4715",
"u  c #69460A",
"i  c #7A4A07",
"p  c #7A520C",
"a  c #654616",
"s  c #63511D",
"d  c #765715",
"f  c #6B6B06",
"g  c #797401",
"h  c #484B27",
"j  c #574525",
"k  c #48552A",
"l  c #585926",
"z  c #555B35",
"x  c #69562F",
"c  c #4C642E",
"v  c #586628",
"b  c #576735",
"n  c #5B723A",
"m  c #646A3A",
"M  c #786B37",
"N  c #66773C",
"B  c #677A45",
"V  c #76734A",
"C  c #667058",
"Z  c #8A0708",
"A  c #940100",
"S  c #960708",
"D  c #85120B",
"F  c #9B1A0D",
"G  c #871815",
"H  c #A80907",
"J  c #B70706",
"K  c #B9120B",
"L  c #AD1511",
"P  c #B51616",
"I  c #8B2713",
"U  c #B92925",
"Y  c #CF0F0E",
"T  c #C91516",
"R  c #D41414",
"E  c #DB1413",
"W  c #D71D1A",
"Q  c #F00F0E",
"!  c #EA110E",
"~  c #E41212",
"^  c #EA1111",
"/  c #E91C1C",
"(  c #F61312",
")  c #FE1212",
"_  c #F31718",
"`  c #D6211D",
"'  c #E01F20",
"]  c #C72627",
"[  c #CE2B28",
"{  c #885706",
"}  c #885110",
"|  c #885A15",
" . c #A35509",
".. c #A34617",
"X. c #9A630B",
"o. c #88720E",
"O. c #986517",
"+. c #A4690C",
"@. c #A96B0C",
"#. c #AC710A",
"$. c #B9760B",
"%. c #A76912",
"&. c #A56D13",
"*. c #AD7317",
"=. c #B37414",
"-. c #BC7A13",
";. c #BA7814",
":. c #994739",
">. c #8E6E2B",
",. c #AB7822",
"<. c #BD702E",
"1. c #C47E0D",
"2. c #C37D13",
"3. c #8B6B43",
"4. c #A06447",
"5. c #7D831D",
"6. c #5F8049",
"7. c #678849",
"8. c #658E4A",
"9. c #748B4B",
"0. c #6A934B",
"q. c #6C944E",
"w. c #72954D",
"e. c #739B4E",
"r. c #799E4E",
"t. c #698951",
"y. c #788B54",
"u. c #6E9651",
"i. c #6F9852",
"p. c #729751",
"a. c #7B9356",
"s. c #749B53",
"d. c #7A9E53",
"f. c #759B5A",
"g. c #7A9E5B",
"h. c #7BA04F",
"j. c #77A053",
"k. c #7DA154",
"l. c #7DA25B",
"z. c #799F61",
"x. c #7DA362",
"c. c #868204",
"v. c #969311",
"b. c #A19B02",
"n. c #ACA601",
"m. c #ADA800",
"M. c #B2AB04",
"N. c #BDB606",
"B. c #B6AD16",
"V. c #888D2D",
"C. c #8E9324",
"Z. c #919527",
"A. c #BC832D",
"S. c #B0AD22",
"D. c #CB820F",
"F. c #CB8211",
"G. c #C88315",
"H. c #C4831D",
"J. c #C99A16",
"K. c #C5BB05",
"L. c #C4BF15",
"P. c #C28423",
"I. c #C18528",
"U. c #CE9531",
"Y. c #C3BF21",
"T. c #DCB838",
"R. c #C7C102",
"E. c #CAC201",
"W. c #D3CB00",
"Q. c #DCD503",
"!. c #CFC91B",
"~. c #E5DC05",
"^. c #EDE504",
"/. c #F1E702",
"(. c #F0E801",
"). c #EDE617",
"_. c #DBCE23",
"`. c #F3CC39",
"'. c #FED53E",
"]. c #FED93E",
"[. c #968452",
"{. c #819B59",
"}. c #AC8F5E",
"|. c #82A455",
" X c #89A556",
".X c #86A856",
"XX c #8AAA56",
"oX c #83A55A",
"OX c #89A75C",
"+X c #86A95B",
"@X c #8BAC5C",
"#X c #90AD57",
"$X c #91AE5C",
"%X c #8EB05B",
"&X c #94B25D",
"*X c #9AB55E",
"=X c #9EB85E",
"-X c #A1BA5E",
";X c #899C65",
":X c #84A562",
">X c #8AA662",
",X c #86A961",
"<X c #8CAC62",
"1X c #88A669",
"2X c #8CAB6A",
"3X c #91A667",
"4X c #92AE64",
"5X c #92AC6C",
"6X c #8EB063",
"7X c #8FB16A",
"8X c #94B263",
"9X c #9AB663",
"0X c #97B965",
"qX c #9DB964",
"wX c #95B46A",
"eX c #9BB66B",
"rX c #9DBA6B",
"tX c #94AB71",
"yX c #9CB771",
"uX c #A2BC64",
"iX c #A8BF64",
"pX c #A2BC6B",
"aX c #A4BE72",
"sX c #A8BF75",
"dX c #D8A758",
"fX c #E3BB7F",
"gX c #A6C065",
"hX c #ABC166",
"jX c #A6C16D",
"kX c #AAC26C",
"lX c #B2C66A",
"zX c #B5C96A",
"xX c #B7C86A",
"cX c #A7C071",
"vX c #AAC273",
"bX c #ACC27A",
"nX c #B0C67A",
"mX c #FDD741",
"MX c #FCD551",
"NX c #F8C779",
"BX c #F9C67A",
"VX c #AAA79C",
"CX c #B1C880",
"ZX c #F3C789",
/* pixels */
"@XOXk.s.d.k.k.+X$X|.d.{.{.w.g. X@X|. XoX&X Xv 9.9X9X*XuXrXrXpXpXpXjXjXjXjXkXjXpXaXvXkXuXuXpXpXiXgXhXiXgXuXuXqX=X&X&X0XqX&X%X&X&X",
"rX8X+Xs.k.|.l.+X<X>Xp.d.|.q.s.>X>X,XOX+X<Xm 9Xc {.pXpXz w @XpXpXpXjXjXvXkXjXuXrXrXpXuXqXqXuXuXqXuXiXiXkXjXiXuXqX0X*X*XqX*X&X8XqX",
"qXrX8Xk.oXOXOX>X8X>Xf.g.f.d.f.d.oXoXz y B b d.9.r *.3 c w.n N s pXcXkXkXkXjXpXqX0XqXrXuXpXuXuXuXqXuXiXuXuXuX=XqX*X&X@X&X*X&X&X9X",
"9XuX8X@X4X8X8X8X4XOX>X:Xw.7.f.w.u.q.w V.*.u 2 I.-.2 F.<.O.3 F.&.rXjXvXkXiXpXpXrXqX9XpX0X9X9XqX9X-X*XiXuX*X0X*X-X*X&XXXXX&X&X@XXX",
"qXjXpX8X8XwX8X5XwX1X<X,X{.p.f.s.u.0.0.& | O =.F.4 D.F.$.O +.O.& pXpXcXpXpXrXrX0X8X0XqX9X9X9XqXqXuX*XuXuXuX*XgXuX*X&X&XXX<X#XXX#X",
"uXuXqX8X8X4X<X5XwXwX2X:X:X:Xg.u.u.8.8.8.c P.,.F.$.4 | 1.} & qXpXrXrXpXpXqXqXqX0X%X8X8X6X<X&X9X0X*XqX*X-XuXuXgXuX&X6XXX|..X.X&X=X",
"9X9X$X8XeX5XOX7Xx.:X2X1Xf.x.p.p.s.i.q.f.t.H.| F.p 3.5 F.%.y.eXrXrXrXrXrX0X8X0XwX6X>X@X4X8X<X@X%X*X9X*X9X*XqX-X*X&XXX+XXX%X&X&X&X",
"&X8XOX<XtX4X>X5Xx.1X1X1Xf.t.u.f.i.i.i.s.8.H.$.F.3.C $ | x }.h 4XrXrXrXeX0X0XeX4X>X<X<X0X&X<X+X@X8X*X*X&X@X*X*X0X@X+XXX&X&X%XXX%X",
"@X@X>XOX<X2X,XtX1X:X1Xx.f.z.i.f.i.q.8.i.6.A.D.-.4.VXM ZXBXBXBXO 0XrXrXcXrXrX0X0X<X:X7XwX8X6XoX@X@X9X*X&X#X&X9X$X#X&X*X&X@X.XXX+X",
"@X+X|.oX2X1X<X1XtX2X1Xz.z.f.z.f.j.i.i.f.t.H.{ G.H.=.$ 2 BXBXBXfX*X0X8X8X8X8X4X<X,X<X,X2X6XoXoXoX@X@X<X X+X$X%X$X@X&X#X&XXX.X#X#X",
"&X$XoXOX5XoX:X1X1X:X:Xx.z.x.x.g.s.j.f.j.l D.O.F.F.A.ZX2 BXM NX  tXqX6X6X8XqXwX+XoX,X7X7X,XoXoXl.,XoXoXg.|.+X.XXXXXXX#X*X*X$X&X*X",
"4X$X@X8X5X,Xl.:Xx.l.:Xl.x.x.x.l.l.l.l.l.l D.8 F.D.X.ZXBXfX3.fXM 0X0X8X8XrXeX<XOX,X,X7X<X,X1X:Xl.d.s.d.p.s.|..X.X|.XX&X*XuX9X*X4X",
"eXeX9X8XwXwX5X:Xi.j.l.l.f.f.x.x.x.j.l.x.l D.8 D.D.+.NXNXBXBXBXfXuXpXpXpXrXqX8XoX,X@X,X,X:X,Xl.s.u.q.8.0.i.s.k.|. XXX$X&X$X4X*X$X",
"4XeXaXpX4XwX4XoXf.f.j.l.i.f.l.l.l.j.j.j.$ F.$.4 D.D.y NXfX>.BX+ pXuXuXrX9X8X@XoXoXoX@X:Xl.x.g.u.8.7.8.0.w.w.s.k..XXX$X#X#X X@X$X",
"8XwXsXaXeX8X@X>X|.l.l.j.j.l.x.l.j.f.f.l.; G.D.D.D.D.+.$ $ V j 2X0XrXrXqX*X8X@XoXl.l.l.oXl.l.s.u.8.8.8.0.q.0.w.r.|. XXXXX&X@X+X$X",
"pXpXpX4X8X4X8X6X+X:Xl.x.l.6X,Xl.l.j.t.D ( D =.D.F.D.F.;.} 0 a.wX0XqXqXqX4X&X+X XoX|.oXl.l.k.i.q.u.8.8.8.0.q.r.r.|.|..X|..X X$X$X",
"9XpXpXuX9XeX5X8X@X:XoXoX,X7XOXoXl.7.d L ) ) i F.X.-.D.D.2., 9 q 4X9X8XqX9X$X@X.XoXoXOXoX,Xp.u.u.u.u.w.s.d.p.w.e.e.d.k.r.|.|. X9X",
"9XsXaXpXpXpXeX9X6X6X7X6X6X6X<X+Xb *.D.7 ) ) E { D.{ u 1.D.+.< 2 a 4XqXpXqX9X4X@XOX<X4X<X<Xd.p.p.i.i.k.|.|.d.e.d.e.r.e.w.k..X+X&X",
"9XpXpXuXpXpXpXrXrXyXrXwX8X8X<Xd.p D.D.&.R ) ) ..D.D.D.G.D.D.| / ; s $XpXqX8X4X8X0XwX8X4X<X,XoXf.d.s.k.oX XoX|.e.r.r.r.r.oX X@X$X",
"9XpXsXsXaXvXvXpXpXaXcXrX0X0Xc u G.D.D.D.7 ) ) J +.D.D.D.3 D.D.  ( i 4 OX9X4X$X8X8X9XeXeX4X<XoX|.|.k.|.|.@XoX|.|.r.d.{.|.|.OX&X$X",
"eXqXeXsXcXvXvXcXpXvXnXcXrX XO.D.D.D.D.D.%./ ) ) 7 F.F.D.@.X.1.*.( T i j $X@X4X4X8X9XeXwX4X4XoXOXOXoXd.d. X X|.|.d.e.g.|.OX@X9XuX",
"4X4XpXpXaXcXvXpXjXcXvXpX0Xa D.D.D.D.D.D.;.A ) ) J 2.F.D.F.8 D.F.o ) K %.k :X8XqXeX9X9X4X<X>X{.oXl.d.e.d.|.|.d.|.r.r.k.+X@X+X$X8X",
"$X9XpXpXaXcXnXkXjXcXcXrXh 1.F.D.D.D.D.D.D.A ) ) _ } D.D.F.{ D.F.A.( ) < *.l 9XpX9XuX9X5XOXoXg.oXd.d.w.d.|.|.l.g.|.g.|.OX@X+X@X4X",
"9X8XeXuXkXvXvXcXpXrXrXb @.D.D.D.D.D.{ D.D.F ) ) ) 1 D.F.1.$.F.D.G.J ) ) I 2.j uX4X4X9XpXwXoX{.oXd.{.oXk.k.oXoXoXoX|.|.+X@X|.+X$X",
"4X4X&X9XeXpXaXaXpXrXb 2.F.D.D.D.D.D.+.+.1...) ) ) Y D.D.D.1.O.G.F.= ) ) _ %.*.B 8X5XeXeX8X3X;X,X:X{.oXoX|.k.oXoX XOXoX+X Xk.oX@X",
"OX@X<X4XeXrXrXpXpX>X=.F.D.F.D.D.D.D.A.X.2...Y >.} K G.D.F.F.O.F.F.O.( ) ) - 1.u rXeXrXsXeXwX4X2X,XOXoXoX|.{..XXXOXoXoXoX+XoXoXoX",
">X<X@X8XrXpXrXaXrX  F.F.D.D.D.F.D.D.8 F.2.} F mXMXG A.D.D.D.D.D.F.D.F ) < $ %.X.n aXbXbX9X4XeXwXoXg.|. Xd.d.k.k.oX|.|.oXoX|.oX{.",
"4X<X4X<X8XeXpXrX4XI.D.D.D.D.D.D.F.$.} D.2.| <.mXmX8 + #.D.D.D.D.F.F.1 ) dX].d -.x aXnXaXeX5X4XeXoX|.oX X|..X.Xk.|.k.|.|.oX|.|.k.",
"OX<X<X@X4XwXrXyX3XH.D.D.D.D.F.D.D.4 F.D.2.o G mXmXU., 1 O.2.F.F.1.%.J ~ U.].mX{ [.qXbXbXaXwXrX>X+X+X@X XXX|.XX.X|.|.@X+X@X.X|.oX",
":X<X7X<X2XwXtXeX3XD.D.D.D.D.F.1.p #.1.1.I P H `.mXU.P ' R ; 2.G.=.H ) P H T.'.u [.nXnXnXsXaXeX9XuXqX9X$X+X|..XXXXXXXXX@X4XXX|.l.",
":X1X6X<X<XwXwXwX;XD.D.D.D.D.D.&.{ G.F.: ) ~ A d mX6 T F ( ) P P ) ) Z - ) U.'.- n sXCXsXaXpXeX8XrXqX9XXX|.d.|. X|. X|..X XoXoXg.",
"oX1X<X<X7XeXwXwXX D.D.D.D.D.F.6 3 2.2 Y ) > A _ H _ T ) ' ) ( ) ) P R / ~ [ = ) : wXsXsXsXyXrXeXqX9X9X|. X|.|.|.|.|.|.|.|.|.|.oX",
"<X<X1X:X1XwX0X5X. D.D.F.D.D.A.T ) ) ) _ > _ A ) ) ) R ) ) ) ) ) ) ~ ) ) ] ) ) ) ) m aXyXaXrXrXqXqX&X9X6XOXl.|.k.k.|.|.g.|.g.|.oX",
"<X<X6X6X6X6X<XwX;XO.D.F.D.D., _ ) ) ) ) ) ) T ) ) ^ > ) ) ) ) ) ) ) ) ) > ( ) ) ~ B tX5XwXrXpXrXrXrXqXqX|.k.k.s.d.oXl.oXl.d.|.oX",
"+X<XwX7X6X<X6X6X<Xa.{ F.D.D.= ( ) ) ) ) ) ) Q ! ! ! ) ) ) ) ) ) ) ) ) ) ) G Z G z yX5XwXeXyXpXuXuXuXrXeXOXl.f.k.g.oXd.d.oXl.oXl.",
":X<X8X<X<X<X<X7X<X<X7.3 D.F.D ) ) ) ) ) ) ) ) ) ) ) ) ) ) ) ) ) ) ) ) ) ( ) _ W B yX0X0X0XeXjXpXrXeXqX0X<XoXk.g.s.k.d.d.l.l.oXl.",
"l.oX,X@ # @ q 2X<X,X,Xg.w.. Q ) ) ) ) ) ) ) ) ) ) ) ) ) ) ) ) ) ) ) ) ) ) ) ) ) m rXyXeXwX0XpXuX0X8X6X6XoX@XoXg.l.l.l.k.g.oXoXg.",
"s.l.l -.D.D.;.o.tX8X<XOX>X,X^ ) ) ) ) ) ) ) ) ) ) ) ) ) ) ) ) ) ) ) ) ) ) ) ) ) 3.rXaXyXeXqXqX0X9X$X,X@Xl.oX|.+X|.|..Xg.|.oX|.f.",
"g.N @.F.D.D.=.F.{ ;X0X4X,X1X! ) ) ) ) ) ) ) ) ) ) ) ) ) ) ) ) ) ) ) ) ) ) ) ) ) 4.vXaXaXrXeX0XrX8X<X&X6X+X@X@XOX+X@X+X|.oX+X|.f.",
"g.v D.D.D.D.p t | <.k 4X:X1X! ) ) ) ) ) ) ) ) ) ) ) ) ) ) ) ) ) ) ) ) ) ) ) ) ) b yXeXeXeXwX6X0X9X@X<X@XXX0XqX@X%X@X|.oX|.+X|.d.",
"OXl F.F.D.D.G.a.b { 2.B <X1X^ ) ) ) ) ) ) ) ) ) ) ) ) ) ) ) ) ) ) ) ) ) ) ) ) ) m yXwX5XwXwXwX0X8X8XXX+X%X*X*X9X0X6X+X|.|.+X+X|.",
">Xy.*.F.D.D.G.y.4Xn 2.} a.tX! ) ) ) ) ) ) ) ) ) ) ) ) ) ) ) ) ) ) ) ) ) ) ) ) T {.5XeXeXwX8XeX7X6X6X@X%X&X&X9X*X9X@X>XoX,X<X<X,X",
"+X<X2 D.D.D.$.a.8X<Xk ;.p   ) ) ) ) ) ) ) ) ) ) ) ) ) ) ) ) ) ) ) ) ) ) ) ) ) 9 wX6X0X8X6X8XeX8X<X+XoX%X&X<X8X8X9X8X6X+X@X6X<X+X",
"+X<X8.P.D.F.p wX6X8X4X5 u 2 ~ ) ) ) ) ) ) ) ) ) ) ) ) ) ) ) ) ) ) ) ) ) ) ) R a.7XwXwX8X8X9X0X9X9X@X.X@X%X<X8X8X9XqXqX<X@X<XwX>X",
"@X<Xg.I.F.#.9.<X6X6XrXrX*   ^ ) ) ) ) ) ) ) ) ) ) ) ) ) ) ) ) ) ) ) ) ) ) ) 7 2XwX8X8X9X8X0XqX0X9X9X&X%X&X<X9XqXqXrXqX&X<X8X6X>X",
"@X@X9.P.*.k 9XOX+X<X0XeXyXyX:.^ ) ) ) ) ) ) ) ) ) ) ) ) ) ) ) ) ) ) ) ) ) ) 0 <X<X8X&X9X*X=X=XqX&X&X9X&X&X8X*X0X9X&X9X<X@X@X@X@X",
"@X8Xr i n 0X9X+X|.oX<XeXyXeX4Xx E ) ) ) ) ) ) ) ) ) ) ) ) ) ) ) ) ) ) ) ) = g.,X<X8X&X8X9X*X=XqX*X&X&X%X@X@X&X@X&X*X&X@XXX<X@XoX",
"<Xv d B @X@XXX|.|. X+X4XpX8X<X>X5 ! ) ) ) ) ) ) ) ) ) ) ) ) ) ) ) ) ) ) A t.x.oX@X8X&X&X*X*X=X=X0X*X&X.X|.k.|.+X@X&X&X%X&X<X@XoX",
".X|.d.oX@Xk.k.k.k.+XXX<X8X8X<X8XyXj ) ) ) ) ) ) ) ) ) ) ) ) ) ) ) ( ) E = $ oXx.@XXXXX%X&X*X=X=X=X&X&X|.d.e.d.k..XXX&X&X*X&X+X.X",
"|.s.l.|.|.k.j.r.r.k.j.k.k.7X8X0Xm J ) ) R W ( ) ) ) ) ) _ _ ) ) ) ~ Z   Z T b :X,X<X%X%X&X#X&X&X*X&X.Xh.e.r.k.|..XXX@X*X8X$X@X+X",
"l.k.s.k.k.k.k.j.e.j.j.k.|.>X@Xy.Y ( _ 1 5XyXX G U ] ! W [ [ U O O & 1X% H ) _ 5 +X@X+X@X%X@X&X&X&X&XXXh.e.e.r.k.|. X$X&X&X8X&X@X",
"l.d.j.w.j.h.j.j.e.e.k.XX+X<X4X: ) > o 3XaXaXyX4X4X8X8X<X6X6X,Xx.>X,X1X:XX - ~ ) h @X+Xk.@X@X%X%X#X#X#Xh.s.e.e.h.|.@X8X&X&X8X8X@X",
"s.e.h.e.e.j.e.e.e.r.|. X6X@XqX4X, _ ) K z rXaX8X4X<X6X6X6X6X6X6X<X<XoXl.U ) ) I <X@XoX@X#X#X#X#X#X.X.Xr.e.e.k.h.k.k.XX@X@X#X+Xg.",
"j.oXk.s.e.e.k.e.e.k.|.XXXX8XpXk G ^ ) S R R m eX6X8X6X0X6X8X8XwXwXy.& . ) ) < a.8X@X<X8X&X#X&X*X#X#X.Xh.r.e.|.XXk.k.|.|.XX+X X|.",
"k..X|.j.e.e.r.k.j.r.|. X+XrXpX  / ) ` _ ) Z wXqX8XeXeX0X8X8XeX8XU ( H Y ' P W   eXqXqX=X*X&X*X*X&X#XXXXX.X|.XX#XXX.XXX|.k.|.|.d.",
"e.k.k.j.j.j.k.k.h.k.g.+X>X5XB.~._.  ) ) ) : 9X9XeX8X7X6X6X&X0X6X  ) ) ~ Q ) _ : N iXkXgXgX=X-XuX=X*X*X*X#XXX#X=X@X@X&XXXh.k.h.w.",
".Xk.j.q.0.e.k..X.X.Xk.f W.B.(.c.W.Q.K ) ) ( h +XoX,X6X<X<X<X8X0XwX! ) ) ) ) 6 /.Q.m e c.kXkXhXgXhX-XiX-X=X*XuX9X%XXX&X%X.X|.k..X",
"k.j.q.i.e.j.h.|..X@Xv ^.(.(.(.(.(.(. .) ) ) t >XoXoX,X<X6X8X<X8XP ) ) ) ) / N.(.(.^.(.^.C.lXhXhXxXhXiXhX-XuX-X*X%XXX.XXX.XXX|..X",
"k.j.i.e.r.j..X.X.X%Xq (.(.(.(.(.(.(.W.1 ) ) 5 OX@X@X<X6X<X6X7X5X) ) ) ) ) | ^./.(.(.(.(.Q.V.lXlXxXiXhXhX-X=X*X#X&XXX XXX.X X|.|.",
".Xk.j.e.h.k.k.h.h.k.e ^.c.Q.^.).).e M.W.B.M.K.b @Xl.oX+X<X6X6X% < ) ) ) - ~.L.e ).).).g (.B.zXzXxXhXlX-X=X*X*X&X&X@X@XXX@X.X{.|.",
"k.k.j.j.h.j.e.s.k.r.k (.).E.!.K.!.~.^.(._.g c.k.+XoXoX+X>X>X8X. Y.J.J.K.^.(.(.~.E.E.E.Q.^.n.xXzXxXhXhX-X*X*X-X9X9X*X&X X#XOX@X>X",
"l.j.e.i.d.k.k.e.k.h.r.e v.m.n.n.E.(.^.^.N.^.E.c %X6X6X6X8X8X7XwX!.n.W.~.(./.K.m.c.o.c.m.R.S.zXzXxXlXiX=X=X=XiX-X*X9X9X9X$X$X4XoX",
"oXk.i.q.p.k.r.d.|..Xe.e.c 5.C.C.C.C.C.Z.Z.5.v 9X@X8X0X0XqX8XeXwXm g n.* b.n.n.n.m.n.n.n.c.9.hXlXxXzXhX=X-XuX-X*X*X8XqXrX9X@X8XOX",
"%XoXs.s.p.|.k..X@X.X|.|.e.0.r.k.XXXX XXX*XqXqX&X&X&X&XqXqX9XeXrXpXpXaXsXvXsXsXpXaXnXvXaXrXjXhXhXhXzXhXiXuXuX*X&X&X&X8XqX0X>X8X8X"
};
