/* XPM */
static char *_15c36d39855477e894d97bde48b7281dldMrrpsQo5t7MgM[] = {
/* columns rows colors chars-per-pixel */
"64 64 218 2 ",
"   c #96752E",
".  c #9B6E35",
"X  c #9D6E3B",
"o  c #9D7433",
"O  c #9F7D30",
"+  c #A27635",
"@  c #A3753B",
"#  c #A47B3B",
"$  c #AB7D3D",
"%  c #A67E42",
"&  c #AA7E42",
"*  c #A78536",
"=  c #AB8537",
"-  c #A6813C",
";  c #AB833E",
":  c #AA8A3A",
">  c #B1863F",
",  c #B28A3C",
"<  c #B3913D",
"1  c #AC8243",
"2  c #AE8A42",
"3  c #AD864A",
"4  c #AD8A4C",
"5  c #B28445",
"6  c #B38C44",
"7  c #B98E46",
"8  c #B3864B",
"9  c #B58B4B",
"0  c #BA8D4C",
"q  c #B49245",
"w  c #BB9346",
"e  c #B69847",
"r  c #BD9E47",
"t  c #B6924A",
"y  c #BB944C",
"u  c #BE9A4C",
"i  c #BC8E50",
"p  c #BC8B58",
"a  c #BC9453",
"s  c #BE9A53",
"d  c #BA9359",
"f  c #BE9B59",
"g  c #BFA049",
"h  c #BEA250",
"j  c #B89B66",
"k  c #BEA87C",
"l  c #C1934D",
"z  c #C9964C",
"x  c #C39D4E",
"c  c #C89D4F",
"v  c #C29555",
"b  c #CA9654",
"n  c #C39C53",
"m  c #C99D53",
"M  c #C6975C",
"N  c #C59C5B",
"B  c #C99D5B",
"V  c #D09653",
"C  c #C4A34D",
"Z  c #CAA54D",
"A  c #C8AA4E",
"S  c #C5A253",
"D  c #CAA455",
"F  c #CCAB55",
"G  c #C5A25A",
"H  c #CBA45B",
"J  c #C7A85B",
"K  c #CDAB5B",
"L  c #D1A756",
"P  c #D1AC56",
"I  c #D1A55C",
"U  c #D2AD5C",
"Y  c #CDB155",
"T  c #CEB15C",
"R  c #D2B356",
"E  c #D3B35C",
"W  c #D9B45E",
"Q  c #D5BA5D",
"!  c #DABB5E",
"~  c #C49E61",
"^  c #CA9E64",
"/  c #C29F73",
"(  c #C3A163",
")  c #CBA462",
"_  c #CEAB63",
"`  c #C4A56C",
"'  c #CDAA6A",
"]  c #D1A561",
"[  c #D3AD62",
"{  c #D8AB62",
"}  c #D2A668",
"|  c #D3AD69",
" . c #D9AF69",
".. c #CEB262",
"X. c #CFB16B",
"o. c #D5B463",
"O. c #D9B563",
"+. c #D6B963",
"@. c #DBBB64",
"#. c #D5B36A",
"$. c #DAB46A",
"%. c #D5BC6B",
"&. c #DDBC6A",
"*. c #CEAD72",
"=. c #C4A679",
"-. c #CDAF7C",
";. c #CEB072",
":. c #DDB471",
">. c #D4BC74",
",. c #DCBC72",
"<. c #D4BB79",
"1. c #D7B97B",
"2. c #E1BE66",
"3. c #E1B66C",
"4. c #E1BD6B",
"5. c #E4BE72",
"6. c #D9C05D",
"7. c #DAC55F",
"8. c #E1C75F",
"9. c #DDC265",
"0. c #DFCA67",
"q. c #DEC36A",
"w. c #DFC96B",
"e. c #DCC174",
"r. c #DBC879",
"t. c #DFD172",
"y. c #E1C465",
"u. c #E3CA66",
"i. c #E3C46B",
"p. c #E8C46E",
"a. c #E4CB6C",
"s. c #E9CD6E",
"d. c #E4D166",
"f. c #E5D26B",
"g. c #EAD26D",
"h. c #E4C472",
"j. c #E9C673",
"k. c #E5CB72",
"l. c #EACC73",
"z. c #E6C37A",
"x. c #EAC57A",
"c. c #E3CB7A",
"v. c #EBCD7B",
"b. c #F0CD7E",
"n. c #E6D271",
"m. c #EBD373",
"M. c #EDD973",
"N. c #E7D07C",
"B. c #EDD47A",
"V. c #EED87C",
"C. c #F2D171",
"Z. c #F2DC74",
"A. c #F1D37A",
"S. c #F2DB7C",
"D. c #F3E079",
"F. c #C7AE88",
"G. c #CAB58F",
"H. c #D5B987",
"J. c #CDBB96",
"K. c #DDC380",
"L. c #DECA84",
"P. c #D9C68C",
"I. c #DEC68D",
"U. c #DBC393",
"Y. c #D5C199",
"T. c #DECC9A",
"R. c #ECC782",
"E. c #E4CC82",
"W. c #E7CB88",
"Q. c #EDD387",
"!. c #E5D58E",
"~. c #EDD389",
"^. c #EBD98B",
"/. c #F3D683",
"(. c #F4DD81",
"). c #F7D48A",
"_. c #F9D989",
"`. c #E1C691",
"'. c #E4CB92",
"]. c #E1C69D",
"[. c #E3CE9C",
"{. c #E6D193",
"}. c #EED693",
"|. c #EED895",
" X c #E7D29C",
".X c #ECD69D",
"XX c #EED99C",
"oX c #F0D692",
"OX c #F0DA95",
"+X c #F1DB9C",
"@X c #F8E084",
"#X c #D5C3A2",
"$X c #E3CCA2",
"%X c #E6D1A4",
"&X c #ECD5A2",
"*X c #EDDAA3",
"=X c #E8D5A9",
"-X c #F1DCA3",
";X c #F1DEAA",
":X c #E7D7B6",
">X c #E6D9BA",
",X c #ECDCBB",
"<X c #F1DFB8",
"1X c #F4E4A4",
"2X c #F3E1AD",
"3X c #EFE1BE",
"4X c #F3E3B4",
"5X c #F3E4BA",
"6X c #F5E9BC",
"7X c #EFE4C1",
"8X c #F2E6C4",
"9X c #F5E9C4",
"0X c #F9EBC4",
"qX c #F2E6C9",
"wX c #F3EACC",
"eX c #F5EAD1",
"rX c #FCF3D6",
"tX c #FBF2DC",
/* pixels */
"Q.Q.Q.Q.Q.Q.Q.Q.Q.Q.Q.Q.Q.Q.Q.Q.Q.Q.Q.Q.Q.Q.Q.Q.Q.Q.Q.Q.Q.Q.Q.Q.Q.Q.Q.Q.Q.Q.Q.Q.Q.Q.Q.Q.Q.Q.~.~.W.Q.Q.Q.Q.Q.Q.Q.Q.Q.Q.Q.Q.Q.Q.Q.",
"Q.Q.Q.Q.Q.Q.Q.Q.Q.Q.~.Q.Q.Q.~.Q.~.~.~.~.~.Q.Q.Q.Q.Q.Q.Q.Q.Q.Q.Q.Q.Q.Q.~.Q.Q.Q.Q.Q.Q.Q.~.~.~.^.~.Q.Q.Q.Q.~.Q.Q.~.).Q.Q.Q.Q.Q.Q.Q.",
"Q.Q.Q.Q.Q.Q.~.~.~.Q.Q.-X4X|.~.~.Q.6X3X,X4X~.~.~.Q.Q.Q.Q.~.~.Q.Q.Q.~.Q.~.~.Q.~.~.~.~.~.}.qXtXtXtX5X4X9X4XOX~.~.).~.Q.Q.Q.Q.Q.Q.Q.",
"Q.Q.Q.Q.Q.~.^.8X=X4X%X`.,.>.4X9X0XXXW.k.r.1X6X4X~.Q.^.~.~.~.~.Q.~.~.~.}.6X0X9X9XrXeX,XH.H.~ ( X.OX<.>.`.$X4X+X<X^.Q.Q.Q.Q.Q.Q.Q.",
"Q.Q.Q.Q.~.9X5X' @.i.D P ! i.! 9.V.K G a.B.M.f.r.%X4X4X5X<X,X5X7X,X#X,X$X` N.^.}.a.j.+.@.2.+.H U y.s.O.L I 2.! <.;XoX~.Q.Q.Q.Q.Q.",
"Q.Q.Q.~.;X*.b z +.l.i.q.i.+.l.a.F U h.o.O.i.@.@.@.@.9.B.i.T O.L i.D b m F i.g.g.+.W l.y.a.@.H U @.y.k.i.a.l.i.c ^ H.}.Q.Q.Q.Q.Q.",
"Q.Q.Q.~.].8 9 8 I U G E O.%.@.e.' s 9 0 5 5 B S K @.k.k.&.4.y.g.B.y.E O.@.f.n.a.a.@.O.o.E h.9 y $.F W o.D K | 8 0 & -.oXQ.~.Q.Q.",
"Q.Q.).*Xv z O.m [ H D F F e E E @.h.W C H U m H S P @.+.P ! 8.7.Q q.q.+.&.h.w.a.9.o.&.F i.[ + b D x E U G D I n O.b l &X~.Q.Q.Q.",
"Q.~.;XG o.P q.i.$.I @.a.@.y.u.i.9.w.M.V.M.B.Q @.Q a.Z.M.f.s.a.f.u.u.u.u.E E +.s.2.i.q.n.m.k.H F 2.0.6.i.@.I E u.a.E O.' *X~.Q.Q.",
"Q.Q.'.4.d a T &.[ D i.g.u.m.9.0.M.M.D.a.T a.i.a.M.d.g.C.u.f.M.9.0.m.M.q.s.p.O.I l u 2.B.B.f.B.E R A.i.m.u.$.N [ _ a i O.%X^.Q.Q.",
"Q.Q.&X) ; [ G > B [ &._ +.+.@.! u.R D b m C p.M.d.M.Z.y.9.0.@.w.m.a.+.#.H n a j.$.E R k.0.B.0.s.2.+.o.+.v.t r F t F 9 H $X~.Q.Q.",
"Q.~.-XI &.u q G 1 N - # 9 K S H ] o.5 v B I +.q.i.i.2.D $.I H | ).| @ % & 9 ( 6 I 9.F B.! B.&.s K I % 2 - - Q B.,.a.u.o.U.~.Q.Q.",
"~.-X'.I h.K T y.u.s n y S Q l.a o t E 2.F E ! T H s N m B X $ 9 # 9 . N 6 9 8 n I $.2.h.s.R K N $.a 9 2 $ s a.q.i.P &.[ 1.|.~.~.",
"~.4X>.W u.O.F @.a.o.q S @.i.@.* &.#.G /.i.i.9.j.E E F u I X 9 a % d # n E E & K S H n 7 F a 9 +.h.g &.,.H K 9.9.@.F 9.+.#.;X~.~.",
"Q.OXW.l.i.U C &.B.@.I &.o.K S E s.W N P y.f.m.K 4.q.k.i.4.1 q y a & & a a y 0 0 M $ M . 3.o % l.B.e v s w C s.9.P U 9.i.<.XX~.Q.",
"Q.^.XXy.2.K C s.&.E H U K [ H : O ).S i.j.F W i.i.n.l.+.E [ i.K l. .m 8 t ; n 6 7 t * i.m 3 6 x.$.  ) o E E Q s.o.%.l.Q  X~.Q.Q.",
"Q.oXe.T _ G l O.R u.B 9 Y - # o.q.i.l.U p.p.P @.l.C.m.l.K 2 ,.l.R q 4.I m O.K v.F 4.E w.w.N # x.:.a 6 y q Q 0.a.U k.a.9.4X~.Q.Q.",
"~.).N S 6 9 0 K a.y.a u a.s 3 A.l.A.v.+.s.y.2.U q.S.m.L Z +.l.@.Q &.L D 2.4.{ m j.a.k.k.k.[ 4.o.S #.n 5.; a.a.V.%.$.g Q.5X~.Q.~.",
"~.Q.;.O.+.K n i.M.e.W B.a.2 _ a.m.2.Z l.m.9.W 4.v.(.S.k.a.m.M.M.l.U K K l.j.m w o.&.m.B.k.D 4.j.[ l.F o.6 i.M.n./.9 K e !.4X~.Q.",
"Q.~.H.a.u.C q.B.m.k.T j.H [ o.@.S.9.i.F F l.i.D q.0.V.l.2.@.a.@.9.$.; @.i.i.j.4.o.x q.Y F h.&.C @.4.+.a.x D M.n.k.> O.u >.:X~.Q.",
"Q.Q.{.y.i.K E B.M.k.A.K 6 D h.i.M.k.i.S 2.p.E i.l.&.o.N : R +.l.l.s H +.h.o.v &.#.6 $.S.a.R O.y.R D P k.I m s.M.&.y K 0.N.Y.^.~.",
"Q.Q.}.h.k.+.2.k.k.i.R k.! C F k.S.i.F +.j.@.o.2.C.g.k.t $.x w K u D v x &.9 0 o y $ 8 h.&.P &.W q.O.&.R D b R m.i.$ D f.N.3X~.~.",
"Q.Q.~.W.y.E E +.S S A.V.l.s.9.S.V.V.j.R i.@.! &.m # v u i.2.i.i.q.&._ t # d % _ ] n 9 $ 6 m l.l.B.! y.s.+.m R f.i.8 P g.!.;X~.~.",
"Q.Q.~.~.E k.W 4.l x.&.9.l.Y g.m.a.l.u.u.! l.@.x F E @.y.O.+.a.9.P | w @.i.9 a S u @.5 & v N &.o.s.! V.6.l.m.9.i.I ; 9.w.=X~.Q.Q.",
"Q.Q.Q.}.a.w.k.j.m G K Q ! i.i.S.9.! B.a.9.B.u h.O.+.A.i.i.l.y.i.k.o.] _ &.$.S n n i.o.B a K 1 2 &.! k.s.Q g.u.@.I H @.%.7X~.Q.Q.",
"Q.Q.Q.}.m.a.0.+.2.#.s _ E +., A.B.i.&.Q F j.&.E E i.s.a.i.P O.@.F &.i.K U ,.) &.s &.z.J ! 2.[   2 U [ x E M.u.y.H x +.<.9X^.Q.Q.",
"Q.~.~.^.i.m.k.o.O.i t 1 7 n ; 5.5.H N i.O.F l.L @.Q a.a.@.K U @.&.P @.l.l.N ; l.x t K s O.l.k.) v $.4.H p.Z.g.a.P @.@.P.5XQ.Q.Q.",
"Q.Q.~.K.E i.i.+.l.H q s # ..,.9 0 t u i.B.S.q.i.&.v.V.k.O.W ! i.s.F +.9.@.&.; +.&.u K h.H e.5.H m n P j.Z M.g.M.i.i.w.T.;X~.Q.Q.",
"Q.Q.~.U.D O.W u.9.K S W 3 ! V.e.t a 9 +.u.i.a.@.a.m.B.v.O.@.i.! B.i.@.+.m.S u &.&.O.C F +.S H o.@.j.@.k.E y.u.Z.i.o.a.$X*XQ.Q.Q.",
"Q.Q.Q.+Xm &.2.s.a.$.< h.H s.a.m.m.u H 9.s.u.B.@.j.j.q.i.o.4.E @.W O.a.u.n.i.I y i.K k.M.g.i.6 &.! q.m.v.&.Y f.M.! E e.Y.XXQ.Q.Q.",
"Q.Q.~. XL @.! a.f.9.q.i.4.i.+.k.9.h.v h.s.+.o.F : +.k.a.+.O.O.@.K P i.u.u.+.&.K K E m.Z.s.y.P o.w.B.(.j.m @.f.g.@.O.&.G.-X^.Q.Q.",
"Q.Q.~.*Xy.s.6.f.Q.n.c.K &.; i.E h.6 9 9 o.B K U 1 #.k.&.@.O.W a.2.+.+.l.S.i.+.a.m.B.Q A.l.a.o.= V.k.m.@.F T g.u.a.y.o.Y.-XQ.Q.Q.",
"Q.Q.Q.&XE s.7.u.&.A._ P B & 5.j.E &.s 1 1 @ 2 D v 9 $ N | i.i.m.Q 2.B.B.a.B.@.y.9.a.u.y.W S.&.D @.l.C &.U v.! 0.f.f.i.G.;XQ.Q.Q.",
"Q.Q.Q.&X&.u.a.d.f.T #.5 ; 8 $ y o.H s 1 9 f % $.4.9 1 a > o.o.s.@.m.9.u.B.f.l.R m.u.u.K h.@.P B m v { 9 $.q.n.d.! a.j.J.;X~.Q.Q.",
"Q.Q.^.&X$.2.2.a.g.s.l M v 0 ; &.9.F S H - o.a i.@.o.w y y 0 $.9.9.V.7.u.l.R p.i.q.q.q.B 9 @.5.M 0 8 6 H S k.Z.C.@.k.U k 4X~.Q.Q.",
"Q.Q.Q.-Xe.O.E g.d.R o.t S w m O.E C 1 u 6 N f | ,.[ H O.o.H 5., T #.S i.@.K l +.t F z.M N o.0 v b p 8 v 9 o.a.u.W @.I F.;X~.Q.Q.",
"Q.Q.Q.*XN.@.O.M.a.y.R &.m.i.m y t H @ S i.n.a.D %.H h.B.@.V.R.$ K N 1 o.H N 2 K ) - ' 9 H U H m [ b ] D _ F 0.B.@.@.H =.5XQ.Q.Q.",
"Q.Q.~.2X9.j.O.M.Z.d.K O.+.E s y l v ' r y.D.m.q.o.G q.h.o._.S ) m H S B 2 n o.6 N H 6 8 H t q.! q.9 1 # o.D i.+.&.+.F f 8XQ.Q.Q.",
"Q.Q.~.;X9.&.2.g.u.D.a.D K k.y 2 s $ 9 S i.+.@.j.&.S N.F %._.a H ) T F S &.k.B.u K @.l.a @ 1 O.v.~.$ 1 #  .y E +.i.m.a.N.8X~.Q.Q.",
"Q.Q.Q.*X&.O.D 9.g.f.&.K t @.l.&.h v.6 O.D ] o.n S q.Q.O.9.K r o.H y.k.i.u.S.i.U r i.! E ] 1 8 0 % m s J 8 v O.U a.m.a.Q.5X~.Q.Q.",
"Q.Q.+XXX@.u m &.m.g.i.S q v.@.w.#.K s 6 i.9 $ l N +.J H E y.! 0.P +...l.a.B.W F K T M.i.@.o.U 5 @ 6 l.[ 8 x.+.@.k.a.m.e.2X~.~.~.",
"Q.~.;Xk.i.H H Q y.B.Y @.+.s a.E N h.a a K 9 m H o.y H m C l.g.T S R _ W i.W 9 N K E &.&.6 l.F 0 9 N [ i.[ x B ! a.9.a.&.;X~.Q.Q.",
"Q.oX1Xf.&.6 U l.i.F &.l.E a o.m 3 H 6 t N a m S 5.$.v N U a.m.o.a E N 5 O.H ~ - &.a ) n # l.v.2.7 & n @.,.&.H 9.&.i.R i.=X~.Q.Q.",
"Q.5X^.Z.O.5 F C.o.b n S F y v $ 9 | j.:.B m #.m ; $ $ @ 7 } a B N G I X b a u K 6 s # | 9 u = l U Z l.#.& Q S w.&.H w.p.J.~.Q.Q.",
"Q.>Xc.n.&.5 C M.i.b m 2.q.q u U 7 s +.m a v.: j.m w +.R &.m - u &.H , 9 H 6 y.k.x.6 [ o.L $.= &.Z @.k.@.y y.l.S.E P R u.j ^.Q.Q.",
"~.,X!.S O.5 E S.Z.D w E K J C e x B.W h.q D B.E W p.l.9.l.+.+./.k.A.&.%.a.9.k.E m e.i.P q.l.2.A.O.i.m.j.S u.(.V.v.E s.p.j XXQ.Q.",
"Q.4XL.N %.N &.a.Z.E R e.9 a.a.a.R P o.6 H Q g.0.q.E 4.2.&.E K +.q.a.l.F a.u.9.K s e @.j.O.@.W C q.a.m.i.U @Xa.S.&.o.+.l.3 +XQ.Q.",
"Q.~.*Xc.y ) w.n.B.u.&.o.S u.M.k.A.i.S m p.k.n.l.i.F O.@.4.p.&.j.i.) h E &.W u.&.q l.@.D h.R D z +.i.a.i.@.@.C.5.@ 9 H S 3 XXQ.Q.",
"Q.Q.XX~.a.v.K h.a.9.#.- R 0.u.(.F i.a.i.F l.(.(.P O.q.a.F P 2.C.E R.a F J _ &.4 | ; F P F l.a.U W a.t.n.i.9.a.I b 9 a S z.+X~.Q.",
"Q.Q.*Xq.m.&.o.u.! W T K 0.V.@.! m.a.u.k.9.(.w.B.m.9.+.k.l.l.H 0 # 6 y ) t o 2 1 H O.C @.i.i.9.9.0.a.V.e.l.l.E y.] U R p.r.|.Q.Q.",
"Q.OX`.q.i.K K i.n.T g K o.&.5.F y.i.A.T s.a.m.u.0.m.@.A.R o.5 ^ d u +.#.= 9 3 1 q O.D m m S.@.u.m.a.0.B.l.E a.9.o.r @.l.>.XXQ.Q.",
"Q.4X#.y.a.E +.9.9.o.) v O.K y o.! Q k.a.i.9.m.9.9.B.9.j.v ] = t s 2.E #.u ' y S o.K @. .1 /.i.l.E 9.u.v.] E Q 9.&.K 9.y.K -XQ.Q.",
"~.-X`.O.i.@.O.y.f._ # 0 H 4.} H (.G t @.a ] R l.J &.o.9 N x K &.#.[ | H y 9 H s y K O.W v _ &.5._ i.i.x.@ J a.9.i.P 9.[ *.oXQ.Q.",
"Q.}.U.H l.x [ q.q.o.9 a n $.J 2 s + $.o.+ K U $.1  .{ o #.l.w.h.H t D p.C @.&.u w K y b N y w o.2 m z.0 3 6 2 n $.y i.[ G.Q.Q.Q.",
"Q.~.1X+.s.S H K $.H f H S C l.E R q.q.q.q.h.H ) <.l D H K @.B.v.F y.A Q s.M.M.M.a.W x b m @.l.Q T ..o.y n H 9 B 1 Z ) a  X~.Q.Q.",
"Q.Q.XXq.p.[ ] K H t 1 a.@.p.R @.g.a.S.w.k.K m H 5.P @.p.@.m.(.Q a.u.g.u.m.g.u.g.! $.F i.g.g.a.a.R u.R u.Q P ) y T y 6 U `.~.Q.Q.",
"Q.~.+X$.m 7 F 4.J s 6 i.y.y.i.D E V.V.(.v.@.R 4.R W @.a.g.f.M.9.u.a.g.M.M.a.y.9.q.w.g.f.M.m.S.n.u.i.@.9.a.H m +.0.+.o.$.[.Q.Q.Q.",
"Q.~.~..Xb 0 $.l.&.y ' k.9.E { D N u k.a.i.E h.k.c.k.i.o.! R 6.f.g.y.@.s.y.@.I H U 2.p.i.v.v.&.Q [ O.y.l.&.[ E U y.I ^ .XQ.Q.Q.Q.",
"Q.Q.Q.~.B & H W a ) q F S K o.y $ h.A S S @.q.y.s.g.a.W @.y.s.a.u.@.L K 2.&.D S 9 6 5 0 8 9 o.k.&.s K K n u H 5 B 1 ` ~.Q.Q.Q.Q.",
"Q.Q.Q.).oX/ y O.3 a o.@.y.+.E J 6 C a.@.q.R w.l.a.l.U I I P i.e.i.,.E.N.a.i.&.&.&.E m U D &.m k.a.k.9.@.q.q.2.m v N ~.~.Q.Q.Q.Q.",
"Q.Q.Q.Q.~.+X$X[ I a o.| @.m.y.C y k.g.y.i.i.@.%.N.N.[ ` F.j [.%XT.[.&X.X-X*X&X}.c.0.f.i.+.e T m.&.@.i.E o.q.i.,.I.}.~.Q.Q.Q.Q.Q.",
"Q.Q.Q.Q.~.~.4XF.r.H.-.' K >.z.c.( 3 d j F.#X7XeXwX8X8X5X}.~.~.~.~.~.~.~.~.~.~.~.XXXX+XOXr.L.XX*X}.,._ ' ` {.I..X}.~.Q.Q.Q.Q.Q.Q.",
"Q.Q.Q.Q.Q.~.~.4XwX5X9XwX8XqXwX>X>X8X5X2X}.~.~.~.~.~.Q.~.~.Q.Q.Q.~.Q.Q.Q.Q.Q.Q.Q.~.~.^. X&XXX~.~.~.*X;X2X-XXX}.Q.Q.Q.Q.Q.Q.~.Q.Q.",
"Q.Q.Q.Q.Q.Q.~.Q.Q.~.^.~.~.~.~.~.~.~.~.~.Q.Q.~.~.~.Q.~.Q.Q.Q.Q.Q.Q.Q.Q.Q.Q.Q.Q.Q.Q.Q.~.~.Q.Q.Q.Q.~.~.~.~.Q.Q.Q.Q.Q.Q.Q.Q.Q.).Q.Q."
};
