/* XPM */
static char *d893429888a14535cd4972b785caa5bb0bIkcVDy2y8fiyZu[] = {
/* columns rows colors chars-per-pixel */
"64 64 157 2 ",
"   c None",
".  c #020100",
"X  c #0A0602",
"o  c #0C0A01",
"O  c #0C0C0C",
"+  c #130C03",
"@  c #190E05",
"#  c #141200",
"$  c #1C1303",
"%  c #1D1B00",
"&  c #11110D",
"*  c #221506",
"=  c #231A04",
"-  c #291B05",
";  c #291708",
":  c #271808",
">  c #2D1C08",
",  c #311E09",
"<  c #232202",
"1  c #2A2500",
"2  c #2C2B01",
"3  c #332C00",
"4  c #3A2E00",
"5  c #352109",
"6  c #3C250C",
"7  c #343201",
"8  c #3D3500",
"9  c #3D3D00",
"0  c #44290D",
"q  c #4A2D0E",
"w  c #453D00",
"e  c #493D00",
"r  c #4E310F",
"t  c #52330F",
"y  c #543410",
"u  c #593711",
"i  c #5D3912",
"p  c #643C13",
"a  c #683D15",
"s  c #444201",
"d  c #4B4300",
"f  c #4C4C07",
"g  c #564500",
"h  c #594300",
"j  c #554C00",
"k  c #5A4A00",
"l  c #525202",
"z  c #5C5200",
"x  c #6A4E00",
"c  c #625100",
"v  c #6A5400",
"b  c #655C00",
"n  c #6C5D00",
"m  c #735C00",
"M  c #7C5F00",
"N  c #6D4315",
"B  c #724515",
"V  c #764917",
"C  c #794B17",
"Z  c #744618",
"A  c #744919",
"S  c #7D4C19",
"D  c #636102",
"F  c #6F6601",
"G  c #6B6B00",
"H  c #736300",
"J  c #796600",
"K  c #736C00",
"L  c #796F00",
"P  c #747301",
"I  c #7F7F05",
"U  c #814E1B",
"Y  c #84511C",
"T  c #8A561D",
"R  c #8D591F",
"E  c #945C1D",
"W  c #896700",
"Q  c #806D00",
"!  c #886F00",
"~  c #817300",
"^  c #8C7700",
"/  c #817800",
"(  c #8F7F00",
")  c #967000",
"_  c #9A7400",
"`  c #957E00",
"'  c #9C7A00",
"]  c #A27E00",
"[  c #925B20",
"{  c #9A5E21",
"}  c #9C6523",
"|  c #A56924",
" . c #AB6925",
".. c #B56F23",
"X. c #868600",
"o. c #8B8304",
"O. c #8F8F07",
"+. c #848409",
"@. c #968300",
"#. c #998100",
"$. c #9B8B00",
"%. c #9C9C00",
"&. c #979708",
"*. c #AA8400",
"=. c #A38B00",
"-. c #AE8C00",
";. c #B28A00",
":. c #A69300",
">. c #AA9300",
",. c #A69B00",
"<. c #AE9C00",
"1. c #B79700",
"2. c #BB9700",
"3. c #B69A00",
"4. c #BD9D00",
"5. c #AAA501",
"6. c #A9A900",
"7. c #BEA300",
"8. c #B6B402",
"9. c #B8B700",
"0. c #BDBD00",
"q. c #C69E00",
"w. c #C4A400",
"e. c #C6AA00",
"r. c #CAAD00",
"t. c #CDB300",
"y. c #D1B500",
"u. c #D3BB00",
"i. c #D9BD00",
"p. c #C3C304",
"a. c #CFCF00",
"s. c #D6C100",
"d. c #DAC400",
"f. c #D7C900",
"g. c #DDCB00",
"h. c #D3D201",
"j. c #DCD300",
"k. c #DCDB01",
"l. c #E0C700",
"z. c #E2CD00",
"x. c #E4D400",
"c. c #EAD400",
"v. c #E6D900",
"b. c #EADB00",
"n. c #F1DE00",
"m. c #E3E203",
"M. c #EDE300",
"N. c #EDED01",
"B. c #F3E400",
"V. c #F4EB00",
"C. c #FAEE00",
"Z. c #F0E70C",
"A. c #F5F300",
"S. c #FDF400",
"D. c #FEFD00",
"F. c #FDFC19",
"G. c #FAF721",
/* pixels */
"                                                                                                                                ",
"                                                                                                                                ",
"                                                                                                                                ",
"                                                                                                                                ",
"                                                                                                                                ",
"                                                                                                                . . . .         ",
"                                                                                                    . . X O & 2 G %.# X .       ",
"                                                                                                . p.D.D.F.G.A.D.N.. j.. .       ",
"                                                                                              & S.K V.Z.M.M.F.X.= v.M.. .       ",
"                                                                                            < D.D.b N.M.M.D.% ( v.v.A.X X       ",
"                                                                                        X 2 D.D.D.5.M.M.A.. f.v.x.v.D.o s       ",
"                                                                                      . f D.D.D.j.b.M.a.o v.x.v.x.x.A.2 ,.      ",
"                                                                                    . +.D.D.D.D.V.N.%.2 x.j.v.x.x.x.h.s s..     ",
"                                                                                  . 8.D.D.D.D.S.C.G j x.x.x.x.v.b.M.h.d z..     ",
"                                                                                . j.A.S.S.S.S.C.9 / x.x.8.w % X X 9 0.s g..     ",
"                                                                              . N.M.S.S.D.S.S.< 9.z.x.z.g.s.u.i.d.g.d L d..     ",
"                                                                            . A.b.B.S.S.S.D.o k.x.x.z.g.z.g.g.u.z.` = r.F %     ",
"                                                                          X A.b.b.C.S.S.S.. A.c.x.g.g.g.g.x.x.d.w j u.e.` .     ",
"                                                                        # V.v.v.B.C.C.k.X D.b.b.x.g.g.g.g.g.s.+ $.u.u.=..       ",
"                                                                      7 N.v.v.v.V.V.6.2 D.b.b.v.z.g.g.g.f.u.. t.u.y.c .         ",
"                                                                  . D M.v.v.v.b.C.D P A.x.c.c.c.g.f.g.f.<.X u.u.r.$             ",
"                                                                . &.b.v.v.x.v.M.= f.v.g.z.c.v.z.g.f.g.F 3 y.u.4..               ",
"                                                              . p.v.v.v.x.x.M.o h.z.f.g.x.c.c.g.d.d.1 n t.y.! .                 ",
"                                                            . m.v.v.v.x.x.N.o v.z.g.f.z.c.c.x.f.d.X >.r.r.3 .                   ",
"                                                          . A.v.v.v.v.j.A.. N.c.g.d.g.c.c.c.g.t.. e.e.w.X                       ",
"                                                        . A.b.v.x.x.x.m.. A.c.z.g.d.g.c.c.z.$.# e.r.-..                         ",
"                  u B Y S U N . . .                   o V.b.b.v.x.x.6.% g.c.c.z.d.d.c.c.z.j e w.e.m .                           ",
"                . ..r 0 5 6 A u 5 N .               < M.c.b.v.x.v.l g u.i.c.z.z.i.l.c.c.$ ^ w.q.- .                             ",
"                . S # k.N.# X C 5 = u .           s b.b.b.b.x.v.1 $.y.u.g.z.l.d.d.z.c.. 7.w.;..                                 ",
"                . p :.# B.b S.. C : > 5 .     . P v.b.b.b.n.v.2 t.t.u.u.d.l.g.u.u.t.X t.w.) .                                   ",
"                . 6 b.i.H $.v.D.. C $ 5 X   . 8.j.c.b.b.B.b.>.u.t.t.u.u.l.d.i.u.Q 1 y.w.h .                                     ",
"                5 6 S.i.i.:.N.x.N.X S X 5 . m.z.x.n.B.n.B.d.u.t.t.t.y.i.d.g.u.7 m y.w.$ .                                       ",
"                6 i $ X w.w.D v.V.p.i u . A.g.j.n.B.n.B.l.u.y.t.t.u.u.d.l.i.X =.y.q..                                           ",
"                . Y + c.d.r.X j.x.A.l Y X D.g.x.n.B.n.l.u.t.t.t.t.t.u.d.y.. 4.y.] .                                             ",
"                  $ N # u.u.3.z j.v.D.X u 5.g.x.B.5.@.d.u.t.t.r.t.y.d.:.o w.2.h .                                               ",
"                    N r f y.u.$ s.x.v.X Y z g.M.s m i.u.y.r.r.r.t.u.z 4 w.*.+                                                   ",
"                    . N + 3.u.u.X f.s.I E . v.% #.t.u.t.t.r.t.t.t.= J w._ .                                                     ",
"                      * N . t.t.e.8 o h.C > % 1.4.y.t.t.r.r.t.r.. =.1.M .                                                       ",
"                        p a 1 t.t.w.o j.> A $ 4.1.t.t.r.e.r.1.. 3.;.4 .                                                         ",
"                        . N , @.t.f.e.g.F $ B $ #.t.r.r.r.Q # 1.*.X                                                             ",
"                          O N X r.f.d.d.g.g.X N 6 z t.e.3 e ' _ .                                                               ",
"                          . i i X r.f.d.x.x.x.2 N t 1 X x ) v .                                                                 ",
"                        . $ X a 0 7 y.s.d.. P g.s N N . . . .                                                                   ",
"                      . i [ a . p + #.u.d.1.H f.g.O.i p o * .                                                                   ",
"                    . } R R U p + i . w.e.e.z 7.d.f.9 u t $ * .                                                                 ",
"                  . | T R T R a , 0 r o w.w.e.% s.d.d.# i : ; $ .                                                               ",
"                @  .T T T T T N a X p : k w.e.w.. f.d.v.. N . > o                                                               ",
"            . C } Y T T T Y T a 0 X . p X -.r.e.-.o V.A.D.. u + * .                                                             ",
"          . A [ Y T Y T Y T U ; X y 6 o y . y.r.q.m j w.v . i . + X                                                             ",
"        . Y Y Y Y U Y Y Y Y * X i t y . , 6 8 r.g *.$ 1.4.8 u X > .                                                             ",
"      . Y R Y Y Y U Y Y U @ O Z V y >   . u > 1.$ ] ] . 4.. q + ; .                                                             ",
"      S { U U U Y Y U Y + > Z Z B 5       . u X k ' _ W 3 X ; * $ .                                                             ",
"    .  .S U S U Y U Y . 0 Z B Z >           . u , X . . . 6 + > @                                                               ",
"    + U S S U U U U . u B N Z *               + 6 0 y q 6 6 . * +                                                               ",
"    o U U U S U U . a B B B o                   . . . X X + X . .                                                               ",
"    . T U S S Z . N B B a .                       . . . . . . .                                                                 ",
"      . i y * X N N N q .                                                                                                       ",
"        . o * 5 q 0 o .                                                                                                         ",
"                  .                                                                                                             ",
"                                                                                                                                ",
"                                                                                                                                ",
"                                                                                                                                ",
"                                                                                                                                ",
"                                                                                                                                "
};
