/* XPM */
static char *ae54fce05db34291f9fc9179922ce61aJNGF1T0EpzZ4WScs[] = {
/* columns rows colors chars-per-pixel */
"64 64 218 2 ",
"   c #305A26",
".  c #39642D",
"X  c #4A722C",
"o  c #446C32",
"O  c #466B36",
"+  c #4E6C3B",
"@  c #516D3C",
"#  c #4C7236",
"$  c #497636",
"%  c #4E743B",
"&  c #4D7A3D",
"*  c #557A35",
"=  c #53753C",
"-  c #59773C",
";  c #547B3D",
":  c #597D3D",
">  c #627D3B",
",  c #547443",
"<  c #597644",
"1  c #567C42",
"2  c #5B7D44",
"3  c #567B49",
"4  c #5F7D4C",
"5  c #617F45",
"6  c #607F48",
"7  c #5B823D",
"8  c #5A873D",
"9  c #63823B",
"0  c #67853B",
"q  c #648A3E",
"w  c #77BE36",
"e  c #79BD36",
"r  c #7ABC39",
"t  c #568144",
"y  c #5C8344",
"u  c #5D8A43",
"i  c #5C844A",
"p  c #5B8B4A",
"a  c #628544",
"s  c #698745",
"d  c #648C44",
"f  c #6B8C45",
"g  c #64844B",
"h  c #68864B",
"j  c #648C4B",
"k  c #6B8C4B",
"l  c #718E4C",
"z  c #649145",
"x  c #6B9345",
"c  c #6F9947",
"v  c #65924A",
"b  c #6C934B",
"n  c #6D994B",
"m  c #729446",
"M  c #739947",
"N  c #7B9A47",
"B  c #73944C",
"V  c #79964B",
"C  c #749B4C",
"Z  c #7A9B4C",
"A  c #648752",
"S  c #678C52",
"D  c #6D8D52",
"F  c #718E53",
"G  c #6D9353",
"H  c #6E9A50",
"J  c #6F9559",
"K  c #6E9A5B",
"L  c #749452",
"P  c #799753",
"I  c #759C53",
"U  c #7B9C53",
"Y  c #73935B",
"T  c #78915B",
"R  c #749C5D",
"E  c #7C9C59",
"W  c #77A04E",
"Q  c #79A14E",
"!  c #7EBD42",
"~  c #75A253",
"^  c #7DA454",
"/  c #7FA856",
"(  c #74A25B",
")  c #7CA45B",
"_  c #77A95C",
"`  c #7CA95B",
"'  c #789764",
"]  c #75A563",
"[  c #7CA563",
"{  c #77A862",
"}  c #7BAA63",
"|  c #7DA969",
" . c #7EC144",
".. c #809A49",
"X. c #829D4D",
"o. c #819E54",
"O. c #819F5B",
"+. c #84A34E",
"@. c #8AA64E",
"#. c #87A84F",
"$. c #93AA4E",
"%. c #82BC43",
"&. c #82A554",
"*. c #8AA654",
"=. c #82A956",
"-. c #8BAA55",
";. c #83A45B",
":. c #89A65B",
">. c #83AA5A",
",. c #8BAB5C",
"<. c #96AB53",
"1. c #93AB55",
"2. c #91AF5B",
"3. c #8DB15D",
"4. c #94B25D",
"5. c #9BB65A",
"6. c #9BB65D",
"7. c #A2BC5F",
"8. c #80966E",
"9. c #829C6A",
"0. c #83A562",
"q. c #84AC62",
"w. c #8CAC61",
"e. c #86A269",
"r. c #86AB6B",
"t. c #8BAD6C",
"y. c #91AF62",
"u. c #84B164",
"i. c #8CB263",
"p. c #8EB866",
"a. c #94B463",
"s. c #9AB664",
"d. c #95BA65",
"f. c #9CBA65",
"g. c #95B56A",
"h. c #9CB669",
"j. c #95BB6B",
"k. c #9CBB6B",
"l. c #8CA373",
"z. c #91AC77",
"x. c #94AC7C",
"c. c #8EB37D",
"v. c #9BB67B",
"b. c #A2BD63",
"n. c #A1BE6A",
"m. c #81C044",
"M. c #86C34B",
"N. c #8BC552",
"B. c #8EC55A",
"V. c #92C757",
"C. c #92C65A",
"Z. c #93C95D",
"A. c #AAC35E",
"S. c #98C566",
"D. c #96CB63",
"F. c #9EC16C",
"G. c #9CCD6B",
"H. c #9DD16E",
"J. c #9DCB77",
"K. c #A5C264",
"L. c #ABC464",
"P. c #ABC964",
"I. c #A4C36C",
"U. c #ABC56B",
"Y. c #A7C96A",
"T. c #ABCB6B",
"R. c #B5CB66",
"E. c #B6CB66",
"W. c #B4C969",
"Q. c #B9CC6C",
"!. c #ACD065",
"~. c #A4C571",
"^. c #AAC572",
"/. c #A1CF73",
"(. c #ABCB73",
"). c #B7CC76",
"_. c #B9CB74",
"`. c #A4D276",
"'. c #A6D37A",
"]. c #A9D47E",
"[. c #91AE83",
"{. c #99B688",
"}. c #9EBA94",
"|. c #A4BF97",
" X c #ABD683",
".X c #AED687",
"XX c #B1D78B",
"oX c #B3D98D",
"OX c #A5C394",
"+X c #AAC49D",
"@X c #B6DA93",
"#X c #BCDE95",
"$X c #BCDE9B",
"%X c #ACC7A2",
"&X c #B5CBA6",
"*X c #BEDDA4",
"=X c #BBCFB2",
"-X c #C0DCA9",
";X c #C7D9B8",
":X c #C4E3A3",
">X c #C6E3AA",
",X c #CBE7AD",
"<X c #CBE6B3",
"1X c #D0E7BA",
"2X c #CBDDC1",
"3X c #D6EBC1",
"4X c #D8EBC5",
"5X c #D8E7CC",
"6X c #D8E5D2",
"7X c #DBEBD2",
"8X c #DEF2DB",
"9X c #E1EBD5",
"0X c #E4F4D3",
"qX c #E7F5DA",
"wX c #EAF5E4",
"eX c #EEFAE4",
"rX c #F3FDEF",
"tX c #FBFFF7",
/* pixels */
"e e e e e e e e e e e e e e e e r e e w w r r e e e e e e e e e e e e e e e e e e e e e e e e e e e e e e e e e e e e e e e e e ",
"e e e e e e e e e e e e e e e e w w e e r H.r r e e e e e e e e e e e e e e e e e r e e e e r e e e e e e e e e e e e e e e e e ",
"e e e e e e e e e e e e e r r r r N.N.M.7X%X;X0X Xr r r e e e r r r r r e e e r r N.G.`.].'.'.`.D.m.r r w e e e e e e e e e e e ",
"e e e e e e e e e e e r ! ,X7X5XqX&X+X8X' _ q.[ OX+X1X<XoXG.G. X].'.H.oX@X$X$X>X;XF l o.O.e.t.[ }.OX%XV.r e e e e e e e e e e e ",
"e e e e e e e e e e r @X=XS _ } } ( ] ] Y S k H / _ ( ' l.x.x.{.l.v.OXr.>.E D a U V -.b.4.a.3.d.,._ Y >X].e e e e e e e e e e e ",
"e e e e e e e e e e ].f.,.) i.>.j.2.i.} ] { } k ;.) I ;.g.Z ~.I.f.d.i.3.a.^ w.&.^ *.:.;.*.>.` ,.i._ } } f.V.e e e e e e e e e e ",
"e e e e e e e w r m.0XQ.S.f.P.A.7.b.E.Y.>.( ( ) y.y.s.y.2.,.s.I.I.K.I.I.n.s.;.O.P b O.d.g.:.:.=.u.3.j.b.W.#X! e e e e e e e e e ",
"e e e e e e w r  XwX_.E.L.b.P.L.L.L.L.W.L.b.:.Y :.n.^.(.(.^.b.a.i.;.V E B h l l k I.(.(.E U E O.I.L.b.P.E._.$XC.r e e e e e e e ",
"e e e e w w r  X8.S k n.s.,.,.,.a.3.-.6.b.L.n.I D Y B E h.n.^.h.k b &.g.I.~.I.I.b.5.n.2.E B s < y i.,.f.I.L F ' Z.w e e e e e e ",
"e e e e e r m.9XA G D ) :.U q.q.w.&.-.,.&.o.:.L B P L k F P V E h l ,.y.s.*.s.~.I.I.6.s.I.k.h.V i 4 ;.;.0.S Y g :X .e e e e e e ",
"e e e e  .qX0X_.D , i y < g ,.I.s.s.;.>.g.i.&.^ L R ;.>.:.I.Y.T.U g < s F L P B P P ) j.i.w.w.n.n.V + < 2 i = k ).:X]. .e e e e ",
"e e r r wXn.Q.E.K.;.1 a I 1 k 0.&.C U I E a B L I ;.;.^ / :.w.;.B k s P F B V &.*.o.o.P Z V U M L < - E i 2 0.b.R._.f.1Xe e e e ",
"e e e /.eX>.7.P.s.;.< U &.>.>.&.=.^ W =.=.=.=.=.=.=.^ &.U C ^ I k ^ ) ^ &.^ Q &.+.&.&.*.*.&.&.*.&.E Z C S 3 ;.4.P.b.>.&X Xr e e ",
"e e r &X' ` d.k.,.0.= 1 =.=.=.=.=.=.=./ =.Q =.=.^ &.=.=.^ =.^ / ;./ ^ ^ ^ Q &.C C Q >.>./ +.=.&.&.^ b j 1 2 U q.b.k./ v qXr e e ",
"e e M.|._ ` i.U.i.4 V < C =.=.&.=.=.=.=.=.=./ / ^ / =.=.&./ =.=.=.^ &./ ^ ^ / / ^ ^ C x Q C / / ^ n n L g :.q.:.L.U.u.} 6Xr e e ",
"e e C.|.u.q.i.I.2 6 n.b Q =.Q ^ =.=.=.=.=.=.=.=.=.=.=.&./ =.=.=.=.^ &./ / C L u v n v v z z v n z b z ~ &.I.u.:.L.L.,.} 5Xr e e ",
"e r >X[ g.>.3.E < o.n.b >.M / / / c / W / c >.C >.=.&./ >.^ =.Q =.>.~ ~ b n p u p u u u u u u u u u u u U 6.q.i.K.b.F.{ eXr w w ",
"e r 3Xr.,.` :.U g n.,.U ) C ) / =./ =.^ ^ / >.>./ =./ >.>.^ ^ M ^ c P d z u u u u u u u u u u u u u u j L f.&.4.L.b.i.K %X].r w ",
"e r qXO.6.>.:.U B f.,.p 8 u ~ W C ^ Q ^ =.=.^ ^ W ^ =.C C M ^ ^ / / =.^ n z z z b v u u p 8 u v z u v p z :.:.1.W.W.a.] }.'.w r ",
"e r tX;.4.:.a.E E I.i., I L z ^ ^ =./ =.C &.C C =.=.&.C I C Q / ^ C =./ >.W b v p d H ~ z W C x ~ W v z j 0.,.6.E.L.0.] 8XD.e w ",
"r r tXo.b.:.d.~.w.f.k.B +.V q C d d I C / / ^ v C n d u u d u ~ u n b x c p z u d y C / ^ B U =./ ) v n v p.;.b.L.>.] K ' 7Xr r ",
"r r rXL -.:.:.(.K.s.) L B k d d d B 8 ) ) x C j d v p d u u u d d z z d u u n d v 7 / >./ / / &.&.W M ~ p w.&.I.b.{ ] S { OX Xe ",
"e r qXF Z *.k I.6.I.H & % # o % b B k j I u v u d d f b k a d x b n 8 u p x ~ =.C / >.=.Z / Q ^ =./ W &.b &.;.n.0.( r.h >.=Xr e ",
"e r e ;XE ^ P k b.I.L p t t & y y : y i j u i = d U >.U b k a g M ~ n C W ^ C C =.>.^ &.=.=.=.^ =.=.=.^ b U U E Y / h n ) tXr e ",
"r e r 9Xk ;.o.l I.n.P p i p i 1 ; 1 y ; 2 y y y y G 7 ; ; y y d b b I I ) x q M >.>.=.&./ >.=.>.>.=.=.Z H P L F ;.a.&.0.{.4Xw r ",
"e e r 4Xh w.;.F I.h.L k B b g j u t t 1 1 ; 1 ; j f b B a C v C n H 8 y y ; b B / ;.^ &.>.>.=.&./ &.>.C ` I P Y s.a.) ( OXN.r w ",
"e e r <XE o.a.s ^.:.L V X.X.L s y y y 1 t y y k d v I I M I ~ I G y a y j n k C d C b C B ^ Z / ~ b ;.` :.) L l ~.a.C ) eXr w e ",
"e e r >Xq.i.b.B I.d.F l V C d a y 7 y 1 2 1 a j b j v j j 7 j y 2 y a d d I d ^ M &.Z N k k b u d s y C ;.^ k E (.4.:.J wXr e e ",
"e e r XXr.,.Y.E j.2.s D V B f k s b y k y y 2 > k a a d d y j s u n n n k C ) I x =.C q * = $ = # % % o &.:.l a.(.a.j.9.4Xr w e ",
"e e e V.+Xq.I.L ;.w.< s Z Z m l B k f 0 C M B m B B d P M x z ^ M C M Q ^ W C ~ x q b 8 I C C x x C b M >.I.U k.I.,.&.l.4Xr e e ",
"e e r G.v.d.I.&.B B g s ..Z Z N B V V V B B B B V V m B C Z ^ / n d ( v z q ) Q Q Q M C C C N N Z V B Z :.P.B ^.n.4.~.l.3Xr e e ",
"e e r Z.l.f.K.,.h h P L V V N V Z V C V V V B m 0 s C B f q ) C z u 8 8 u d M V V m x M M M Z Z C V Z B :.!.U j.6.I.k.z.1Xr e e ",
"e e e Z.x.F.I.4.a.E T.:.f V V Z V B V B N N Z Z +.*.+.@.+.@.-.&.=.*.&.o.U f V M M x M B B N V Z V V Z Z L Z g k ,.I.f.9.1Xr w e ",
"e e e N.x.~.a.n.^.C Y.,.f s l f m s f Z *.N ..@.-.@.+.*.-.-.*.*.@.#.$.+.*.:.U B V B M B N N N Z V Z Z Q k g l B ;.I.d.v.,Xr e e ",
"e e r D.x.Q ,.I.n.P I.:.d 9 f s s a s x =.&.#.+.+.#.+.Z &.+.*.-.&.=.=.&.C P B L - ; y s d b M m Z Z M q d < ,.;.B I.i.{.>Xe e e ",
"e e e D.l.j.-.(.h.L &.O.a a v u s v B ^ Q ^ ^ / x +.+.:.v x Z N Q ^ =.M E ^ ^ L u d f a o $ = j : : y - 2 g ,.g.U I.,.r.4Xr e e ",
"e e r G.' ;.4.(.E k ;.&.n W =.^ v C b B C >.=.x ^ x C ^ W Q Z Q ^ Q / x 7 E d C 8 Z M C p & 1 O 1 1 1 a 1 k 4.~.b n.a.` 3Xr w e ",
"e e r '._ L a.(.l B ) 0.z ~ =.^ Z =.;.^ / >./ z / ^ ^ W ^ ^ ^ Q / / Q x C ^ C C c Z >.z u ; u ; 7 v a b s F *.(.k s.&.E >Xr e e ",
"e e r %X_ U a.n.L P U ) p n ( n / / C ~ W / C ^ c Q Q &.^ C / C z C C ;.^ &.^ ^ ^ >.C / n d j = y a k U U F a.I.k &.4.D $Xe e e ",
"e e G.OX>.O.a.;.D L Y H v q v z ` c ^ ^ >.^ ^ 8 / / C d ~ / / W W ^ / >.^ / =./ ^ ^ / ^ I I / j 2 a k d 9 L n.I.L E &.s -Xe e e ",
"e r :X' H b ) L P P ) B +.C c u z n C ^ =.Q Q ^ ^ / I z C C / x ^ W =.>.>.^ =.&./ / >.^ ;.=.~ : = k L C -.L I.b.h P U E -Xr r r ",
"e r *X>.j 0.( ;.k.*.&.F X.Z Q z z W =.Q V M C ~ ~ C C =./ / >.>.^ q / =.=./ =./ >.>.&./ / C C &.o.U Z Z ;.L I.6.k.k ;.V D %.e e ",
"e m.OX_ S [ ( b.Y.o.w.y = ^ ^ >.^ Q ^ >.^ d C x / Z ^ &./ Q >.Q Q =./ =.=.=.=./ / / / >.=./ f q U Z &.Z a I 2.U.(.&.:.*.U N.e e ",
"e r -X' K ] >.L.b.;.d.A k +.^ Z Q &.Q ^ &.x z c C C / / ) C &.>.=.^ >.=.=.Q >.=.&.>./ >.=.^ / m &.x $ & y g.f.a.(.f.:.b.o.%.e e ",
"r e ! '.| r.Y.W.6.*.;.; o P E Z ^ C =.I ~ 8 L c I / C / / =.Q &.=./ =.=.^ =./ =.>.d n b W ^ x x C d v U C w.I.E U h.&.5.o.r e e ",
"e e w J.| 3.E.L.2.,.:.k . ,   O $ . v 8 q n / ~ ^ / W W Q Q =.=.=.=.=.=.=.=./ =./ z z ` / c &.V Z Z B Z L ,.f.B P -.>.d.9.e e e ",
"e e r H.q.2.7.L.4.&.s.Z - a h l B # X ^ W / ^ ~ ~ ^ x / +.=.=.=.=.=.-.=.=.=.Q W / / n n c M f f V B s q : =.h.s Y :.>.i.t.r e e ",
"e e w H.p.j.7.L.4.w.4.O.k f V V m B f C ~ =./ ^ C 9 =.&.=.=.=.-.-.=.=.=.+.M d I C L b k f B C B B l B f l F.o.2 U ,.=.f.t.e e e ",
"e e e m.B.=.A.P.,.q.n.;.s k s > > l B k k / B B I &.+.Z U Q ^ V =.Z C M N *.L Z ..+.o...*.X.V B V B B V f n.5 2 n.p.u.>.B.r w e ",
"e e e e C.%.L.L.;.i.w.L 2 L -.,.*.E L l : L B 1.&.X.<.<.B B X : +.+.=.*.-.<.+.1.<.$.$...X.X.X.V ..V V k : E 4 i.T.a._ { r r e e ",
"e e e e e %.F.b.w.L S ; P 9 ....g = @ , + O - *.o.o.2.1.V U *.-.@.#.*.&.-.1.&.U V *.V V 1...V X.N Z l a , + O.w.b.s.} H e e e e ",
"e e e e e m.%.L.f.;., P b a s E U U Z P a = @ @ B L f < 2 L -.-.&.&.- : : f U y k Y L V V B U V f f B 0 k = 0.a.Y.b.>.r e e e e ",
"e e e e e r Z.R.b.0.< g B < = a D J h j j y y ; y # = 4 , < h B &.,.,.) ;.;.E J b P k B D : k L E 5 5 1.l < } b.Q.W.5.e e e e e ",
"e e e e e e ! D.E G y , = @ O.I.~.w.>.w.g.R j d l F F h g < 6 E T.I.I.*.&.E I L U &.,.t.) ,.f.6.U.,.4 , , < < l _.C.w e e e e e ",
"e e e e e e e N.R G , 0.0.) 6 5 o.n.b.I.f.4.n.U.f.a.Z a.3.w.k h *.B Z l k L E L E ;.&.&.:.&.U w.w.w.I &.>.G b A  .w w e e e e e ",
"e e e e e e e e ! D k b.2.,.>.2 5 k L ;.i.^.7.I.I.^.(.(.F.,.B h i.^.n.y.U D F F E n.U.b.5.1.4.i.^ E w.2.f.k D ' e w e e e e e e ",
"e w e e e e e e r B._.E.L.b.L.I.I P L P ~.T.k.k L L s k P L o.w.i.f.n.(.(.I.d.E n &.f.L.W.L.U.L.L.L.n.L.R._.Z.r w e e e e e e e ",
"e e e e e e e e w r G.W.K.d.i.p.,.,.&.g.k.w.f L U o.a.F.I.b.n.Y.I.2.y.2.a.s.f.s.) ( ) :.U.W.L.K.A.L.I.K.Q.'.r e e e e e e e e e ",
"e e w e e e e e r e m.h.,.} _ >.&.;.>.:.&.:.:.o.&.a.>.h.i.i.f.f.I.~.&.k.>.R R o.S q.] ] ` a.a.j.,.i.;.q.f.M.e e e e e e e e e e ",
"e e e e e e e e e e e G.@XD _ i.S.3.a.2.s.-.U o.s h I 0.} [.t.T e.e.' ' Y ) _ >.G h S K } ] K ] _ _ k {.XXe e e e e e e e e e e ",
"w e e e e e e e e e e e  .|.[.c.' ;.;.:.&.U T |.@XG.@X9X4XoX<X@X.X.X.XXX1XeX{.x.) >.( ' 6X[.{.eX2X2X0XG.e e e e e e e w e e e e ",
"e e e e e e e e e e e e e r  .! N.D.'.:X,X4X@Xr r r e r r e e e e e e r r r r .XrX&X[.2X! N.`.r r r r r e e e e e e e e e e e e ",
"e e e e e e e e e e e e e e e e e e e r r r r e e e e e e e e e w e w e e e r e r r B.r w w e e e e r e e e e e w e e e e e e e ",
"e e e e e e e e e e e e e e e e e e e e r e e e e e e e e e e e e e e e e e w e e e e e e w e e e e e e e w e e e e e e e e e e "
};
