/* XPM */
static char *bb2b1b0b60bd46c6b22d53e5696bc68d9joCNxZ6XEvyynw2[] = {
/* columns rows colors chars-per-pixel */
"64 64 103 2 ",
"   c None",
".  c #000000",
"X  c #080605",
"o  c #0C0B07",
"O  c #0C0C0B",
"+  c #130E0B",
"@  c #19120F",
"#  c #151719",
"$  c #1B1C1D",
"%  c #271C17",
"&  c #281D17",
"*  c #291E18",
"=  c #1C1F20",
"-  c #1E2224",
";  c #212425",
":  c #252729",
">  c #252A2B",
",  c #2B2C2D",
"<  c #2D2E30",
"1  c #2D3233",
"2  c #2F3638",
"3  c #313435",
"4  c #343738",
"5  c #343B3B",
"6  c #3B3B3C",
"7  c #373F40",
"8  c #3C4344",
"9  c #3F4749",
"0  c #434444",
"q  c #434748",
"w  c #434A4C",
"e  c #4A4B4D",
"r  c #464F51",
"t  c #4C4D50",
"y  c #475052",
"u  c #4C5355",
"i  c #4D5659",
"p  c #4E585A",
"a  c #515355",
"s  c #555658",
"d  c #535B5D",
"f  c #595B5D",
"g  c #545E60",
"h  c #5B5E60",
"j  c #576264",
"k  c #5C6265",
"l  c #5A6669",
"z  c #5E696B",
"x  c #616365",
"c  c #636669",
"v  c #636B6D",
"b  c #696B6E",
"n  c #626E71",
"m  c #6B6E71",
"M  c #657173",
"N  c #6D7174",
"B  c #6A7679",
"V  c #6D7B7E",
"C  c #727476",
"Z  c #747679",
"A  c #76797C",
"S  c #7A7B7F",
"D  c #6F7E81",
"F  c #727E82",
"G  c #7B7E81",
"H  c #748386",
"J  c #7D8285",
"K  c #768588",
"L  c #79868A",
"P  c #7E8A8E",
"I  c #828384",
"U  c #828589",
"Y  c #85898D",
"T  c #8A8B8D",
"R  c #818E91",
"E  c #8C8E92",
"W  c #8C9296",
"Q  c #8B9599",
"!  c #8F999D",
"~  c #919294",
"^  c #939599",
"/  c #94999E",
"(  c #989898",
")  c #959DA2",
"_  c #9C9EA3",
"`  c #9CA1A5",
"'  c #9EA4A9",
"]  c #A3A3A5",
"[  c #A2A5AA",
"{  c #A5A9AD",
"}  c #A9ABAE",
"|  c #A7ACB1",
" . c #AAADB2",
".. c #AEB1B6",
"X. c gray70",
"o. c #B0B3B8",
"O. c #CECECE",
"+. c gray84",
"@. c #D8D8D9",
"#. c #E0E1E2",
"$. c #EDEDED",
"%. c #F2F2F2",
"&. c #FFFFFF",
/* pixels */
"                                                                                                                                ",
"                                                                                                                                ",
"                                                                                                                                ",
"                                                                                                                                ",
"                                                                                                                                ",
"                                                                                                                                ",
"                                                                                                                                ",
"                                                                                                                                ",
"                                                                                                                                ",
"                                                                                                                                ",
"                                                                                                                                ",
"                                                                                                                                ",
"                                                                                                                                ",
"                                                                                                                                ",
"                                                                          s c $                                                 ",
"                                :     . c ~ / / ^ 6                 s T ' o.o._ c :                                             ",
"                          k o.o.o.o.o.o.o.o.o.o.o.o.^ u t x C C U o.o.o.o.o.o.o.o.{ 6                                           ",
"                      ; _ o.o.o.o.o.o.o.o.o.o.o.o.o.o.o.o.o.o.o.o.o.o.o.o.o.o.o.o.o.| s                                         ",
"                    - ^ o.o.o.o.o.o.o.o.o.o.o.o.o.o.o.o.o.o.o.o.o.o.o.o.o.o.o.o.o.o.o.o./ e                                     ",
"                    A o.o.o.o.o.o.o.o.o.o.o.o.o.o.o.o.o.o.o.o.o.o.o.o.o.o.o.o.o.o.o.o.o.o...Z                                   ",
"                  s ..o.o.o.o.o.o.o.o.o.o.o.o.o.o.o.o.o.o.o.o.o.o.o.o.o.o.o.o.o.o.o.o.o.o.o.o.^ s                               ",
"                : Q ..o.o.o.o.o.o.o.o.o.o.o.o.o.o.o.o.o.o.o.o.o.o.o.o.o.o.o.o.o.o.o.o.o.o.o.o.o.o.N                             ",
"                B Q o.o.S ..o.o.o.o.o.o.o.o.o.o.o.o.o.o.o.o.o.o.o.o.o.o.o.o.o.o.o.o.o.o.o.o.o.o.o.o.                            ",
"              9 H Q o.o.9 o.o.o.o.o.o.o.o.o.o.o.o.o.o.o.o.o.o.o.o.o.o.o.o.o.o.o.o.o.o.o.o.o.o.o.o.] c                           ",
"              H H ! o.o.9 ....o.o.o.o.o.o.o.o.o.o.o.o.o.o.o.o.o.o.o.o.o.o.o.o.o.o.o.o.o.o.o.o.o._ j S <             w 8         ",
"              H H ' o.o.u Q o.o.o.o.o.o.o.o.o.o.o.o.o.o.o.o.o.o.o.o.o.o.o.o.o.o.o.o.o.o...k J o.h V > Z ,       w h ) e         ",
"              H H ' o.o.f K ` ..o.o.o.o.o.o.o.o.o.o.o.o.o.o.o.o.o.o.o.o.o.o.o.o.o.o.o.o. .E o.A z H D f { W D H | [ 2           ",
"              H H ' o.o.m B L | o.o.o.o.o.o.o.o.o.o.o.o.o.o.o.o.o.o.o.o.o.o.o.o.o.o.o.W o.E { m H H l f ........W u             ",
"              H H ' o.o...l H ) o.o.o.o.o.o.o.o.o.o.o.o.....o.o.o.o.o.o.o.o.o.o.o.o.G m  .E g V n : g f o.o.o.G O               ",
"              u H Q o.o. .z H L ' o.o.o.o.o.o.o.o.o.o.' L v o.o.o.o.o.o.o.o.o.o.o.o.r j m [ d R | ) H f o.o.o.s                 ",
"              - H Q ..o...g H H K { o.o.o.o.o.o.o...` H H k o.o.o.o.o.o.o.o.o.o.o.o.w v o.^ w u B B p Y o.o.o.a                 ",
"              , H L { o.o.Z M H H L W ..o.o.o.o. .P H H q ^ o.o.o.o.o.o.o.o.o.o.o.o.s v ^ [ W ^ E ^ ^ o.o.o.Y                   ",
"              2 F H P o.o.o.9 F H H H H ! ' ! H H H H l ^ | { ..o.o.o.o.[ ( _ o.o.o.x L 4 ..o.o.o.o.....o.o._ $                 ",
"            5 M B H H o.o.o.W B H K H H H H K H H H H l o.m  ...o.o.o.o.} [ h ^ o.o.x R g ^ o.o. .R P ....Q ' f                 ",
"            7 p j H H ' o.o.] 7 n H H H H H H H H H g z S I S S G G [ o.o.o.o.h  .o.k ! F G ..o...{ | ..o.o.o.C                 ",
"            g . - H H Q o.o.' M 9 H H H H K H K H H 9 F 9 x E ..o.o.o.o.G o.J _ _ o.x ` F G ..o.o.o.o.o.o.o.o./                 ",
"  @       : 5     i H L o.o.' n z 1 n H H H H H H H B r M d ..o.o.o.o...z  .u o.m [ x ^ H E  .| o.o.o.o.o.o.o._                 ",
"O * +     p       1 H ! o.o./ M L   # B D K H H H H H l V ! o.o.o.o.o./ u { n o.o.a s r H W  .| o.o.} } o.o...} 3               ",
"+ * +   i           u ..o.o.q P N       4 4 l H H H H D w W o.o.o.o.| d g q { o...A M y H E o.o.o.o.^ S / o.o.o.0               ",
"o & * a 9           O { o...9 Z                 2 8 8 8 7 u o.o.o.o. .n = x W k d j H n $ G o.o.o.^ d G Z o.o.o.e               ",
"  O @ X             n b o.o.x                             j o.o.o.o.o.n     Y _ H H H >   f o.o.o.o.Z f / o.o./ v f             ",
"                    D z o.o. .a                           j o.o.o.o.R >     W ..! L ;       [ o.o.o.o.o.{ _ o. .] h       T $.  ",
"                    > p o.o.o.E                           j o.o.o.o.7     w  .o.o.U         e o.o.o.o.o.| / o.o.S %.$.$.%.&.&.C ",
"                      y m o.o.o.<                         g { u A U       z ..o.^             Y o.o.{ o.o.o.o.[ } &.&.&.&.&.%.  ",
"                      u q _ o.o./                         B o.o...;       v o.o.m             . ^ o.o.o.o.o.o.' @.&.&.&.&.+..   ",
"                      i H J o.o. .e                       J o.o./         1 _ o.m               0  .o.o.o.o. .) Z X.&.&.}       ",
"                    . M H A [ [ ] I .                     Y o.o.^           ^ o.` O               [ o.o.o.o.o.' { C 6 ,         ",
"                      9 H 7   <                         ~ N o.o._ #         ^ ..| g               f E o.' o.o.o.{ W             ",
"                        - $       .                   T &.( ] ] x Z 6     e _ ~ ^ J e               0 o.Q L o.o.o.^             ",
"                                                      ~ &.X.&.&.O., q     s $.E #.c $.Z               0 ..| o.o.o.4             ",
"                                                        I 6               e     6                                               ",
"                                                                                                                                ",
"                                                                                                                                ",
"                                                                                                                                ",
"                                                                                                                                ",
"                                                                                                                                ",
"                                                                                                                                ",
"                                                                                                                                ",
"                                                                                                                                ",
"                                                                                                                                ",
"                                                                                                                                ",
"                                                                                                                                ",
"                                                                                                                                ",
"                                                                                                                                "
};
